<?xml version="1.0" encoding="UTF-8"?>
<!DOCTYPE svg PUBLIC "-//W3C//DTD SVG 1.1//EN" "http://www.w3.org/Graphics/SVG/1.1/DTD/svg11.dtd">
<!-- Creator: CorelDRAW -->
<svg xmlns="http://www.w3.org/2000/svg" xml:space="preserve" width="36.3296mm" height="72.1492mm" version="1.1" style="shape-rendering:geometricPrecision; text-rendering:geometricPrecision; image-rendering:optimizeQuality; fill-rule:evenodd; clip-rule:evenodd"
viewBox="0 0 308.69 613.04"
 xmlns:xlink="http://www.w3.org/1999/xlink"
 xmlns:xodm="http://www.corel.com/coreldraw/odm/2003">
 <defs>
  <style type="text/css">
   <![CDATA[
    .str0 {stroke:#373435;stroke-width:1.7;stroke-miterlimit:22.9256}
    .str1 {stroke:#373435;stroke-width:1.7;stroke-miterlimit:22.9256;stroke-dasharray:16.993776 8.496888}
    .fil1 {fill:none}
    .fil0 {fill:#6B809B}
    .fil2 {fill:#52658C}
   ]]>
  </style>
 </defs>
 <g id="Слой_x0020_1">
  <metadata id="CorelCorpID_0Corel-Layer"/>
  <g id="_1937546824112">
   <path class="fil0 str0" d="M62.52 604.87c76.49,-130.75 152.98,-261.5 229.48,-392.25 -11.89,-7.46 -23.78,-14.91 -35.67,-22.37 17.15,-4.66 34.3,-9.32 51.46,-13.97 -3.65,-44.92 -7.3,-89.84 -10.95,-134.76 -5.24,-3.94 -10.49,-7.88 -14.93,-11.22 -4.45,-3.34 -8.1,-6.09 -12.93,-9.46 -4.83,-3.36 -10.83,-7.35 -15.73,-10.23 -4.9,-2.88 -8.71,-4.67 -12.44,-6.07 -3.74,-1.4 -7.41,-2.41 -10.59,-2.69 -3.19,-0.28 -5.89,0.18 -8.75,0.86 -2.87,0.68 -5.9,1.58 -10.07,2.73 -4.17,1.15 -9.49,2.54 -14.93,3.54 -5.45,1 -11.03,1.62 -17.73,1.71 -6.7,0.09 -14.53,-0.34 -24.77,-0.23 -10.24,0.11 -22.91,0.78 -33.39,-0.27 -10.49,-1.04 -18.79,-3.79 -27.1,-6.53 -6.38,-1.75 -12.76,-3.49 -19.47,-2.58 -6.71,0.92 -13.75,4.5 -20.11,8.51 -6.36,4.01 -12.05,8.45 -18.92,13.72 -6.88,5.26 -14.95,11.35 -23.02,17.43 -0.13,16.04 -0.27,32.08 -0.67,44.7 -0.41,12.62 -1.08,21.82 -1.95,31.4 -0.86,9.57 -1.92,19.51 -3.34,29.35 -1.42,9.84 -3.21,19.57 -4.99,29.3 16.96,4.77 33.93,9.55 50.9,14.32 -11.7,7.34 -23.41,14.68 -35.11,22.02 35.67,73.43 71.34,146.86 107.01,220.29 7.12,-19.98 14.25,-39.97 21.37,-59.95 -12.44,-44.69 -24.89,-89.38 -36.27,-125.15 -11.38,-35.78 -21.69,-62.64 -27.05,-82.85 -5.35,-20.22 -5.75,-33.79 -6.24,-45.59 -0.49,-11.8 -1.06,-21.83 -1.23,-31.19 -0.17,-9.35 0.06,-18.03 1.1,-28.58 1.04,-10.55 2.9,-22.98 4.76,-35.41 15.86,1.1 31.73,2.21 44.35,3.64 12.62,1.43 21.99,3.19 31.75,3.4 9.76,0.22 19.9,-1.11 28.85,-2.18 8.95,-1.08 16.71,-1.91 24.14,-2.68 7.43,-0.77 14.52,-1.49 21.62,-2.21 2.64,20.84 5.28,41.68 5.87,57.28 0.59,15.6 -0.87,25.96 -2.3,36.14 -1.43,10.18 -2.84,20.17 -8.09,35.39 -5.25,15.22 -14.36,35.67 -42.31,111.99 -27.96,76.32 -74.76,208.5 -121.57,340.68z"/>
   <path class="fil1 str0" d="M220.57 155.58c4.06,5.11 8.11,10.22 13.5,15.75 5.39,5.53 12.11,11.49 19.09,16.63 6.98,5.14 14.23,9.46 21.48,13.78"/>
   <path class="fil1 str0" d="M88.19 154.81c-4.06,5.11 -8.11,10.22 -13.5,15.75 -5.39,5.53 -12.11,11.49 -19.09,16.63 -6.98,5.14 -14.23,9.46 -21.48,13.78"/>
   <path class="fil1 str0" d="M220.57 155.58c4.06,5.11 8.11,10.22 13.5,15.75 5.39,5.53 12.11,11.49 19.09,16.63 6.98,5.14 14.23,9.46 21.48,13.78"/>
   <path class="fil1 str0" d="M220.57 155.58c4.06,5.11 8.11,10.22 13.5,15.75 5.39,5.53 12.11,11.49 19.09,16.63 6.98,5.14 14.23,9.46 21.48,13.78"/>
   <path class="fil1 str0" d="M88.19 154.81c-4.06,5.11 -8.11,10.22 -13.5,15.75 -5.39,5.53 -12.11,11.49 -19.09,16.63 -6.98,5.14 -14.23,9.46 -21.48,13.78"/>
   <path class="fil0 str0" d="M186.63 65.69c8.8,-0.14 15.42,-0.75 23.33,-1.67 7.91,-0.92 17.12,-2.15 26.32,-3.37 -0.76,-5.28 -1.51,-10.57 -2.41,-16.77 -0.89,-6.21 -1.91,-13.35 -2.94,-20.48 -10.68,1.01 -21.36,2.02 -31.84,3.12 -10.48,1.11 -20.76,2.32 -28.1,3 -7.34,0.68 -11.75,0.83 -16.16,0.98 0.34,11.55 0.68,23.1 1.02,34.65 10.99,0.34 21.98,0.69 30.78,0.55z"/>
   <path class="fil1 str0" d="M220.57 155.58c4.06,5.11 8.11,10.22 13.5,15.75 5.39,5.53 12.11,11.49 19.09,16.63 6.98,5.14 14.23,9.46 21.48,13.78"/>
   <path class="fil2 str0" d="M155.28 66.15c-0.32,17.75 -0.65,35.49 -0.97,53.24 8.61,0.04 17.23,0.07 26.07,0.11 8.84,0.04 17.91,0.08 26.9,-0.38 8.99,-0.45 17.91,-1.4 26.82,-2.35 1.17,-10.37 2.34,-20.73 2.71,-30.09 0.36,-9.35 -0.09,-17.69 -0.54,-26.04 -12.85,1.53 -25.7,3.05 -35.15,3.88 -9.45,0.83 -15.52,0.96 -22.59,1.12 -7.07,0.15 -15.16,0.33 -23.25,0.5z"/>
   <path class="fil2 str0" d="M106.99 118.6c6.7,0.24 14.74,0.65 22.85,0.81 8.11,0.16 16.29,0.07 24.73,0.05 8.44,-0.02 17.13,0.01 25.7,0.02 8.57,0 17.01,-0.02 25.96,-0.48 8.95,-0.45 18.42,-1.34 27.88,-2.22 -0.17,3.68 -0.34,7.37 -0.78,11.28 -0.44,3.91 -1.15,8.04 -2.01,12.7 -0.86,4.67 -1.88,9.87 -2.76,14.47 -0.89,4.6 -1.64,8.6 -3.94,14.57 -2.29,5.97 -6.12,13.92 -9.8,21.96 -3.68,8.04 -7.22,16.19 -13.59,31.78 -6.37,15.59 -15.58,38.61 -25.4,64.63 -9.82,26.02 -20.25,55.02 -30.69,84.03 -7.89,-25.26 -15.77,-50.52 -23.06,-73.79 -7.29,-23.27 -13.97,-44.54 -19.71,-61.85 -5.74,-17.31 -10.53,-30.65 -14.42,-41.6 -3.89,-10.95 -6.87,-19.49 -8.98,-28.34 -2.11,-8.85 -3.33,-17.99 -3.94,-26.04 -0.61,-8.06 -0.6,-15.02 -0.59,-21.98 5.03,-0.14 10.07,-0.28 15.27,-0.31 5.2,-0.03 10.57,0.05 17.27,0.3z"/>
   <path class="fil0 str0" d="M155.88 66.18c-11.18,0.01 -22.36,0.01 -31.25,-0.29 -8.9,-0.3 -15.51,-0.92 -23.42,-1.84 -7.91,-0.92 -17.12,-2.15 -26.32,-3.37 0.76,-5.28 1.51,-10.57 2.41,-16.77 0.89,-6.21 1.91,-13.35 2.94,-20.49 10.68,1.01 21.36,2.02 31.84,3.12 10.48,1.11 20.76,2.32 27.85,2.99 7.09,0.67 11,0.82 14.91,0.96 0.35,11.89 0.7,23.79 1.05,35.69z"/>
   <path class="fil2 str0" d="M155.65 66.21c0.32,17.75 0.65,35.49 0.97,53.24 -8.61,0.04 -17.23,0.07 -26.07,0.11 -8.84,0.04 -17.91,0.08 -27.3,-0.08 -9.39,-0.16 -19.09,-0.52 -28.8,-0.87 -0.38,-10.96 -0.76,-21.92 -0.69,-31.57 0.07,-9.65 0.6,-18 1.13,-26.36 12.77,1.54 25.54,3.07 34.96,3.91 9.42,0.83 15.48,0.97 22.55,1.12 7.07,0.15 15.16,0.33 23.25,0.5z"/>
   <path class="fil1 str1" d="M18.96 35.45c0.16,9.02 0.33,18.03 -0.2,31.11 -0.52,13.07 -1.73,30.2 -2.94,45.52 -1.21,15.32 -2.42,28.82 -3.32,37.99 -0.91,9.17 -1.51,14.01 -2.12,18.84 8.06,2.22 16.12,4.43 25.39,7.56 9.27,3.12 19.75,7.15 30.23,11.18 -7.25,5.64 -14.51,11.29 -21.06,15.99 -6.55,4.7 -12.4,8.46 -18.24,12.23 18.34,35.33 36.68,70.67 53.48,104.98 16.8,34.31 32.05,67.6 47.3,100.89"/>
   <path class="fil1 str1" d="M285.61 33.1c3.38,46.08 6.76,92.16 10.14,138.24 -19.15,5.04 -38.29,10.08 -57.44,15.12 13.91,10.08 27.81,20.15 41.72,30.23 -35.87,60.26 -71.75,120.51 -97.94,165.66 -26.2,45.14 -42.72,75.17 -58.77,103.34 -16.05,28.16 -31.61,54.46 -47.18,80.77"/>
  </g>
 </g>
</svg>
