<?xml version="1.0" encoding="UTF-8"?>
<!DOCTYPE svg PUBLIC "-//W3C//DTD SVG 1.0//EN" "http://www.w3.org/TR/2001/REC-SVG-20010904/DTD/svg10.dtd">
<!-- Creator: CorelDRAW -->
<svg xmlns="http://www.w3.org/2000/svg" xml:space="preserve" width="27.0881mm" height="52.0952mm" version="1.0" style="shape-rendering:geometricPrecision; text-rendering:geometricPrecision; image-rendering:optimizeQuality; fill-rule:evenodd; clip-rule:evenodd"
viewBox="0 0 262.81 505.42"
 xmlns:xlink="http://www.w3.org/1999/xlink"
 xmlns:xodm="http://www.corel.com/coreldraw/odm/2003">
 <defs>
  <style type="text/css">
   <![CDATA[
    .str0 {stroke:#373435;stroke-width:1.94;stroke-miterlimit:22.9256}
    .str1 {stroke:#373435;stroke-width:1.94;stroke-miterlimit:22.9256;stroke-dasharray:19.403805 9.701903}
    .fil2 {fill:none}
    .fil1 {fill:#6B809B}
    .fil0 {fill:#52658C}
   ]]>
  </style>
 </defs>
 <g id="Слой_x0020_1">
  <metadata id="CorelCorpID_0Corel-Layer"/>
  <path class="fil0 str0" d="M130.55 101.7c0.29,102.25 0.58,204.51 0.87,306.76 9.94,-42.36 19.88,-84.72 28.79,-125.4 8.91,-40.69 16.78,-79.71 22.08,-110.34 5.31,-30.63 8.04,-52.88 10.78,-75.13 -6.4,1.41 -12.8,2.82 -19.68,3.62 -6.88,0.8 -14.24,1 -21.46,0.98 -7.22,-0.02 -14.3,-0.25 -21.38,-0.49z"/>
  <path class="fil0 str0" d="M130.19 101.71c7.36,0.16 14.71,0.32 21.91,0.24 7.2,-0.08 14.25,-0.41 21.05,-1.17 6.8,-0.77 13.36,-1.97 19.93,-3.18 0.77,-15.57 1.54,-31.14 2.31,-46.72 -6.16,1.29 -12.32,2.59 -17.88,3.44 -5.56,0.85 -10.52,1.27 -16.86,1.57 -6.33,0.29 -14.03,0.47 -19.26,0.55 -5.23,0.09 -7.99,0.09 -10.74,0.09 -0.15,15.06 -0.3,30.12 -0.45,45.18z"/>
  <path class="fil1 str0" d="M130.64 56.53c10,-0.21 20,-0.42 27.81,-0.79 7.81,-0.37 13.43,-0.89 19.22,-1.72 5.79,-0.84 11.75,-1.98 17.71,-3.13 0.34,-10.44 0.68,-20.88 1.03,-31.32 -9.07,0.86 -18.14,1.71 -27.04,2.65 -8.9,0.94 -17.63,1.97 -24.15,2.82 -6.52,0.86 -10.84,1.54 -15.15,2.22 0.19,9.75 0.38,19.51 0.57,29.26z"/>
  <path class="fil1 str0" d="M130.07 27.26c-0.11,-6.16 -0.23,-12.32 -0.34,-18.48 6.66,0.34 13.31,0.68 19.63,0.6 6.32,-0.09 12.31,-0.6 17.87,-1.71 5.56,-1.11 10.7,-2.82 15.92,-4.19 5.22,-1.37 10.52,-2.4 16.26,-1.54 5.73,0.86 11.89,3.59 20.79,9.41 8.9,5.82 20.54,14.72 32.17,23.62 0,15.4 0,30.8 0.57,43.64 0.57,12.83 1.71,23.1 2.65,31.57 0.94,8.47 1.68,15.14 2.66,21.38 0.98,6.24 2.2,12.04 3.41,17.84 -14.57,3.95 -29.13,7.91 -43.7,11.86 10.1,6.33 20.19,12.66 30.29,19 -11.98,30.46 -23.96,60.92 -38.5,96.35 -14.55,35.42 -31.66,75.81 -48.26,113.46 -16.6,37.65 -32.69,72.56 -48.77,107.47 3.76,-18.82 7.53,-37.65 11.51,-56.35 3.98,-18.7 8.19,-37.28 14.6,-65.38 6.41,-28.1 15.04,-65.71 21.85,-96.75 6.81,-31.05 11.81,-55.52 16.09,-78.4 4.28,-22.87 7.85,-44.14 10.83,-68.84 2.98,-24.69 5.38,-52.81 6.74,-72.09 1.37,-19.28 1.71,-29.72 2.05,-40.16 -9.01,0.88 -18.03,1.77 -26.53,2.68 -8.5,0.91 -16.5,1.85 -23.05,2.7 -6.55,0.84 -11.65,1.58 -16.76,2.32z"/>
  <path class="fil2 str1" d="M241.07 36.5c0.17,11.98 0.34,23.96 0.86,37.65 0.51,13.69 1.37,29.09 2.4,41.07 1.03,11.98 2.22,20.54 3.42,29.09 -13.52,3.59 -27.04,7.19 -40.56,10.78 5.13,7.02 10.27,14.03 15.49,18.65 5.22,4.62 10.52,6.85 15.83,9.07 -22.25,52.02 -44.49,104.05 -63.23,148.11 -18.74,44.07 -33.97,80.17 -49.2,116.28"/>
  <path class="fil2 str0" d="M187.61 131.81c3.44,4.34 6.89,8.68 11.46,13.38 4.58,4.7 10.28,9.76 16.21,14.12 5.93,4.36 12.08,8.03 18.24,11.7"/>
  <path class="fil0 str0" d="M132.25 101.05c-0.29,102.25 -0.58,204.51 -0.87,306.76 -9.94,-42.36 -19.88,-84.72 -28.79,-125.4 -8.91,-40.69 -16.78,-79.71 -22.08,-110.34 -5.31,-30.63 -8.04,-52.88 -10.78,-75.13 6.4,1.41 12.8,2.82 19.68,3.62 6.88,0.8 14.24,1 21.46,0.98 7.22,-0.02 14.3,-0.25 21.38,-0.49z"/>
  <path class="fil0 str0" d="M132.62 101.05c-7.36,0.16 -14.71,0.32 -21.91,0.24 -7.2,-0.08 -14.25,-0.41 -21.05,-1.17 -6.8,-0.77 -13.36,-1.97 -19.93,-3.18 -0.77,-15.57 -1.54,-31.14 -2.31,-46.72 6.16,1.29 12.32,2.59 17.88,3.44 5.56,0.85 10.52,1.27 16.86,1.57 6.33,0.29 14.03,0.47 19.26,0.55 5.23,0.09 7.99,0.09 10.74,0.09 0.15,15.06 0.3,30.12 0.45,45.18z"/>
  <path class="fil1 str0" d="M132.17 55.87c-10,-0.21 -20,-0.42 -27.81,-0.79 -7.81,-0.37 -13.43,-0.89 -19.22,-1.72 -5.79,-0.84 -11.75,-1.98 -17.71,-3.13 -0.34,-10.44 -0.68,-20.88 -1.03,-31.32 9.07,0.86 18.14,1.71 27.04,2.65 8.9,0.94 17.63,1.97 24.15,2.82 6.52,0.86 10.84,1.54 15.15,2.22 -0.19,9.75 -0.38,19.51 -0.57,29.26z"/>
  <path class="fil1 str0" d="M132.74 26.61c0.11,-6.16 0.23,-12.32 0.34,-18.48 -6.66,0.34 -13.31,0.68 -19.63,0.6 -6.32,-0.09 -12.31,-0.6 -17.87,-1.71 -5.56,-1.11 -10.7,-2.82 -15.92,-4.19 -5.22,-1.37 -10.52,-2.4 -16.26,-1.54 -5.73,0.86 -11.89,3.59 -20.79,9.41 -8.9,5.82 -20.54,14.72 -32.17,23.62 0,15.4 0,30.8 -0.57,43.64 -0.57,12.83 -1.71,23.1 -2.65,31.57 -0.94,8.47 -1.68,15.14 -2.66,21.38 -0.98,6.24 -2.2,12.04 -3.41,17.84 14.57,3.95 29.13,7.91 43.7,11.86 -10.1,6.33 -20.19,12.66 -30.29,19 11.98,30.46 23.96,60.92 38.5,96.35 14.55,35.42 31.66,75.81 45.14,106.7 13.48,30.89 23.34,52.27 33.19,73.66 2.47,-5.3 4.93,-10.6 4.07,-22.54 -0.87,-11.94 -5.07,-30.52 -11.48,-58.62 -6.41,-28.1 -15.04,-65.71 -21.85,-96.75 -6.81,-31.05 -11.81,-55.52 -16.09,-78.4 -4.28,-22.87 -7.85,-44.14 -10.83,-68.84 -2.98,-24.69 -5.38,-52.81 -6.74,-72.09 -1.37,-19.28 -1.71,-29.72 -2.05,-40.16 9.01,0.88 18.03,1.77 26.53,2.68 8.5,0.91 16.5,1.85 23.05,2.7 6.55,0.84 11.65,1.58 16.76,2.32z"/>
  <path class="fil2 str1" d="M21.74 35.85c-0.17,11.98 -0.34,23.96 -0.86,37.65 -0.51,13.69 -1.37,29.09 -2.4,41.07 -1.03,11.98 -2.22,20.54 -3.42,29.09 13.52,3.59 27.04,7.19 40.56,10.78 -5.13,7.02 -10.27,14.03 -15.49,18.65 -5.22,4.62 -10.52,6.85 -15.83,9.07 22.25,52.02 44.49,104.05 63.23,148.11 18.74,44.07 33.97,80.17 49.2,116.28"/>
  <path class="fil2 str0" d="M75.19 131.16c-3.44,4.34 -6.89,8.68 -11.46,13.38 -4.58,4.7 -10.28,9.76 -16.21,14.12 -5.93,4.36 -12.08,8.03 -18.24,11.7"/>
  <path class="fil0 str0" d="M130.55 101.7c0.29,102.25 0.58,204.51 0.87,306.76 9.94,-42.36 19.88,-84.72 28.79,-125.4 8.91,-40.69 16.78,-79.71 22.08,-110.34 5.31,-30.63 8.04,-52.88 10.78,-75.13 -6.4,1.41 -12.8,2.82 -19.68,3.62 -6.88,0.8 -14.24,1 -21.46,0.98 -7.22,-0.02 -14.3,-0.25 -21.38,-0.49z"/>
  <path class="fil0 str0" d="M130.19 101.71c7.36,0.16 14.71,0.32 21.91,0.24 7.2,-0.08 14.25,-0.41 21.05,-1.17 6.8,-0.77 13.36,-1.97 19.93,-3.18 0.77,-15.57 1.54,-31.14 2.31,-46.72 -6.16,1.29 -12.32,2.59 -17.88,3.44 -5.56,0.85 -10.52,1.27 -16.86,1.57 -6.33,0.29 -14.03,0.47 -19.26,0.55 -5.23,0.09 -7.99,0.09 -10.74,0.09 -0.15,15.06 -0.3,30.12 -0.45,45.18z"/>
  <path class="fil1 str0" d="M130.64 56.53c10,-0.21 20,-0.42 27.81,-0.79 7.81,-0.37 13.43,-0.89 19.22,-1.72 5.79,-0.84 11.75,-1.98 17.71,-3.13 0.34,-10.44 0.68,-20.88 1.03,-31.32 -9.07,0.86 -18.14,1.71 -27.04,2.65 -8.9,0.94 -17.63,1.97 -24.15,2.82 -6.52,0.86 -10.84,1.54 -15.15,2.22 0.19,9.75 0.38,19.51 0.57,29.26z"/>
  <path class="fil1 str0" d="M130.07 27.26c-0.11,-6.16 -0.23,-12.32 -0.34,-18.48 6.66,0.34 13.31,0.68 19.63,0.6 6.32,-0.09 12.31,-0.6 17.87,-1.71 5.56,-1.11 10.7,-2.82 15.92,-4.19 5.22,-1.37 10.52,-2.4 16.26,-1.54 5.73,0.86 11.89,3.59 20.79,9.41 8.9,5.82 20.54,14.72 32.17,23.62 0,15.4 0,30.8 0.57,43.64 0.57,12.83 1.71,23.1 2.65,31.57 0.94,8.47 1.68,15.14 2.66,21.38 0.98,6.24 2.2,12.04 3.41,17.84 -14.57,3.95 -29.13,7.91 -43.7,11.86 10.1,6.33 20.19,12.66 30.29,19 -11.98,30.46 -23.96,60.92 -38.5,96.35 -14.55,35.42 -31.66,75.81 -48.26,113.46 -16.6,37.65 -32.69,72.56 -48.77,107.47 3.76,-18.82 7.53,-37.65 11.51,-56.35 3.98,-18.7 8.19,-37.28 14.6,-65.38 6.41,-28.1 15.04,-65.71 21.85,-96.75 6.81,-31.05 11.81,-55.52 16.09,-78.4 4.28,-22.87 7.85,-44.14 10.83,-68.84 2.98,-24.69 5.38,-52.81 6.74,-72.09 1.37,-19.28 1.71,-29.72 2.05,-40.16 -9.01,0.88 -18.03,1.77 -26.53,2.68 -8.5,0.91 -16.5,1.85 -23.05,2.7 -6.55,0.84 -11.65,1.58 -16.76,2.32z"/>
  <path class="fil2 str1" d="M241.07 36.5c0.17,11.98 0.34,23.96 0.86,37.65 0.51,13.69 1.37,29.09 2.4,41.07 1.03,11.98 2.22,20.54 3.42,29.09 -13.52,3.59 -27.04,7.19 -40.56,10.78 5.13,7.02 10.27,14.03 15.49,18.65 5.22,4.62 10.52,6.85 15.83,9.07 -22.25,52.02 -44.49,104.05 -63.23,148.11 -18.74,44.07 -33.97,80.17 -49.2,116.28"/>
  <path class="fil2 str0" d="M187.61 131.81c3.44,4.34 6.89,8.68 11.46,13.38 4.58,4.7 10.28,9.76 16.21,14.12 5.93,4.36 12.08,8.03 18.24,11.7"/>
  <path class="fil0 str0" d="M130.55 101.7c0.29,102.25 0.58,204.51 0.87,306.76 9.94,-42.36 19.88,-84.72 28.79,-125.4 8.91,-40.69 16.78,-79.71 22.08,-110.34 5.31,-30.63 8.04,-52.88 10.78,-75.13 -6.4,1.41 -12.8,2.82 -19.68,3.62 -6.88,0.8 -14.24,1 -21.46,0.98 -7.22,-0.02 -14.3,-0.25 -21.38,-0.49z"/>
  <path class="fil0 str0" d="M130.19 101.71c7.36,0.16 14.71,0.32 21.91,0.24 7.2,-0.08 14.25,-0.41 21.05,-1.17 6.8,-0.77 13.36,-1.97 19.93,-3.18 0.77,-15.57 1.54,-31.14 2.31,-46.72 -6.16,1.29 -12.32,2.59 -17.88,3.44 -5.56,0.85 -10.52,1.27 -16.86,1.57 -6.33,0.29 -14.03,0.47 -19.26,0.55 -5.23,0.09 -7.99,0.09 -10.74,0.09 -0.15,15.06 -0.3,30.12 -0.45,45.18z"/>
  <path class="fil1 str0" d="M130.64 56.53c10,-0.21 20,-0.42 27.81,-0.79 7.81,-0.37 13.43,-0.89 19.22,-1.72 5.79,-0.84 11.75,-1.98 17.71,-3.13 0.34,-10.44 0.68,-20.88 1.03,-31.32 -9.07,0.86 -18.14,1.71 -27.04,2.65 -8.9,0.94 -17.63,1.97 -24.15,2.82 -6.52,0.86 -10.84,1.54 -15.15,2.22 0.19,9.75 0.38,19.51 0.57,29.26z"/>
  <path class="fil2 str1" d="M241.07 36.5c0.17,11.98 0.34,23.96 0.86,37.65 0.51,13.69 1.37,29.09 2.4,41.07 1.03,11.98 2.22,20.54 3.42,29.09 -13.52,3.59 -27.04,7.19 -40.56,10.78 5.13,7.02 10.27,14.03 15.49,18.65 5.22,4.62 10.52,6.85 15.83,9.07 -22.25,52.02 -44.49,104.05 -63.23,148.11 -18.74,44.07 -33.97,80.17 -49.2,116.28"/>
  <path class="fil2 str0" d="M187.61 131.81c3.44,4.34 6.89,8.68 11.46,13.38 4.58,4.7 10.28,9.76 16.21,14.12 5.93,4.36 12.08,8.03 18.24,11.7"/>
  <path class="fil0 str0" d="M132.25 101.05c-0.29,102.25 -0.58,204.51 -0.87,306.76 -9.94,-42.36 -19.88,-84.72 -28.79,-125.4 -8.91,-40.69 -16.78,-79.71 -22.08,-110.34 -5.31,-30.63 -8.04,-52.88 -10.78,-75.13 6.4,1.41 12.8,2.82 19.68,3.62 6.88,0.8 14.24,1 21.46,0.98 7.22,-0.02 14.3,-0.25 21.38,-0.49z"/>
  <path class="fil0 str0" d="M132.62 101.05c-7.36,0.16 -14.71,0.32 -21.91,0.24 -7.2,-0.08 -14.25,-0.41 -21.05,-1.17 -6.8,-0.77 -13.36,-1.97 -19.93,-3.18 -0.77,-15.57 -1.54,-31.14 -2.31,-46.72 6.16,1.29 12.32,2.59 17.88,3.44 5.56,0.85 10.52,1.27 16.86,1.57 6.33,0.29 14.03,0.47 19.26,0.55 5.23,0.09 7.99,0.09 10.74,0.09 0.15,15.06 0.3,30.12 0.45,45.18z"/>
  <path class="fil1 str0" d="M132.17 55.87c-10,-0.21 -20,-0.42 -27.81,-0.79 -7.81,-0.37 -13.43,-0.89 -19.22,-1.72 -5.79,-0.84 -11.75,-1.98 -17.71,-3.13 -0.34,-10.44 -0.68,-20.88 -1.03,-31.32 9.07,0.86 18.14,1.71 27.04,2.65 8.9,0.94 17.63,1.97 24.15,2.82 6.52,0.86 10.84,1.54 15.15,2.22 -0.19,9.75 -0.38,19.51 -0.57,29.26z"/>
  <path class="fil2 str1" d="M21.74 35.85c-0.17,11.98 -0.34,23.96 -0.86,37.65 -0.51,13.69 -1.37,29.09 -2.4,41.07 -1.03,11.98 -2.22,20.54 -3.42,29.09 13.52,3.59 27.04,7.19 40.56,10.78 -5.13,7.02 -10.27,14.03 -15.49,18.65 -5.22,4.62 -10.52,6.85 -15.83,9.07 22.25,52.02 44.49,104.05 63.23,148.11 18.74,44.07 33.97,80.17 49.2,116.28"/>
  <path class="fil2 str0" d="M75.19 131.16c-3.44,4.34 -6.89,8.68 -11.46,13.38 -4.58,4.7 -10.28,9.76 -16.21,14.12 -5.93,4.36 -12.08,8.03 -18.24,11.7"/>
  <path class="fil0 str0" d="M130.55 101.7c0.29,102.25 0.58,204.51 0.87,306.76 9.94,-42.36 19.88,-84.72 28.79,-125.4 8.91,-40.69 16.78,-79.71 22.08,-110.34 5.31,-30.63 8.04,-52.88 10.78,-75.13 -6.4,1.41 -12.8,2.82 -19.68,3.62 -6.88,0.8 -14.24,1 -21.46,0.98 -7.22,-0.02 -14.3,-0.25 -21.38,-0.49z"/>
  <path class="fil0 str0" d="M130.19 101.71c7.36,0.16 14.71,0.32 21.91,0.24 7.2,-0.08 14.25,-0.41 21.05,-1.17 6.8,-0.77 13.36,-1.97 19.93,-3.18 0.77,-15.57 1.54,-31.14 2.31,-46.72 -6.16,1.29 -12.32,2.59 -17.88,3.44 -5.56,0.85 -10.52,1.27 -16.86,1.57 -6.33,0.29 -14.03,0.47 -19.26,0.55 -5.23,0.09 -7.99,0.09 -10.74,0.09 -0.15,15.06 -0.3,30.12 -0.45,45.18z"/>
  <path class="fil1 str0" d="M130.64 56.53c10,-0.21 20,-0.42 27.81,-0.79 7.81,-0.37 13.43,-0.89 19.22,-1.72 5.79,-0.84 11.75,-1.98 17.71,-3.13 0.34,-10.44 0.68,-20.88 1.03,-31.32 -9.07,0.86 -18.14,1.71 -27.04,2.65 -8.9,0.94 -17.63,1.97 -24.15,2.82 -6.52,0.86 -10.84,1.54 -15.15,2.22 0.19,9.75 0.38,19.51 0.57,29.26z"/>
  <path class="fil2 str1" d="M241.07 36.5c0.17,11.98 0.34,23.96 0.86,37.65 0.51,13.69 1.37,29.09 2.4,41.07 1.03,11.98 2.22,20.54 3.42,29.09 -13.52,3.59 -27.04,7.19 -40.56,10.78 5.13,7.02 10.27,14.03 15.49,18.65 5.22,4.62 10.52,6.85 15.83,9.07 -22.25,52.02 -44.49,104.05 -63.23,148.11 -18.74,44.07 -33.97,80.17 -49.2,116.28"/>
  <path class="fil2 str0" d="M187.61 131.81c3.44,4.34 6.89,8.68 11.46,13.38 4.58,4.7 10.28,9.76 16.21,14.12 5.93,4.36 12.08,8.03 18.24,11.7"/>
 </g>
</svg>
