<?xml version="1.0" encoding="UTF-8"?>
<!DOCTYPE svg PUBLIC "-//W3C//DTD SVG 1.1//EN" "http://www.w3.org/Graphics/SVG/1.1/DTD/svg11.dtd">
<!-- Creator: CorelDRAW -->
<svg xmlns="http://www.w3.org/2000/svg" xml:space="preserve" width="36.0235mm" height="53.4109mm" version="1.1" style="shape-rendering:geometricPrecision; text-rendering:geometricPrecision; image-rendering:optimizeQuality; fill-rule:evenodd; clip-rule:evenodd"
viewBox="0 0 303.8 450.43"
 xmlns:xlink="http://www.w3.org/1999/xlink"
 xmlns:xodm="http://www.corel.com/coreldraw/odm/2003">
 <defs>
  <style type="text/css">
   <![CDATA[
    .str0 {stroke:#373435;stroke-width:1.69;stroke-miterlimit:22.9256}
    .str1 {stroke:#373435;stroke-width:1.69;stroke-miterlimit:22.9256;stroke-dasharray:16.866672 8.433336}
    .fil1 {fill:none}
    .fil0 {fill:#6B809B}
    .fil2 {fill:#52658C}
   ]]>
  </style>
 </defs>
 <g id="Слой_x0020_1">
  <metadata id="CorelCorpID_0Corel-Layer"/>
  <g id="_1937543119120">
   <path class="fil0 str0" d="M60.6 444.82c75.59,-78.52 151.18,-157.04 226.76,-235.56 -11.7,-7.34 -23.4,-14.68 -35.11,-22.01 16.88,-4.58 33.76,-9.17 50.64,-13.75 -3.59,-44.21 -7.18,-88.41 -10.78,-132.62 -5.16,-3.88 -10.32,-7.75 -14.7,-11.04 -4.38,-3.29 -7.97,-5.99 -12.72,-9.3 -4.75,-3.31 -10.66,-7.23 -15.48,-10.07 -4.82,-2.84 -8.57,-4.59 -12.25,-5.97 -3.68,-1.38 -7.29,-2.37 -10.43,-2.65 -3.13,-0.27 -5.79,0.18 -8.61,0.85 -2.82,0.67 -5.81,1.56 -9.91,2.68 -4.11,1.13 -9.34,2.5 -14.7,3.48 -5.36,0.99 -10.85,1.59 -17.45,1.68 -6.6,0.09 -14.3,-0.34 -24.38,-0.23 -10.08,0.11 -22.54,0.76 -32.86,-0.26 -10.32,-1.03 -18.5,-3.73 -26.67,-6.43 -6.28,-1.72 -12.56,-3.44 -19.16,-2.54 -6.6,0.9 -13.53,4.42 -19.79,8.37 -6.26,3.95 -11.86,8.32 -18.62,13.5 -6.77,5.18 -14.71,11.17 -22.65,17.16 -0.13,15.78 -0.26,31.57 -0.66,43.99 -0.4,12.42 -1.07,21.48 -1.92,30.9 -0.85,9.42 -1.89,19.2 -3.29,28.89 -1.4,9.68 -3.15,19.26 -4.91,28.84 16.7,4.7 33.39,9.4 50.09,14.1 -11.52,7.22 -23.03,14.44 -34.55,21.67 35.13,43.56 70.26,87.12 105.39,130.69 6.31,-10.87 12.62,-21.74 18.92,-32.62 -11.57,-24.07 -23.14,-48.14 -34,-73.39 -10.86,-25.25 -21.01,-51.69 -26.28,-71.58 -5.27,-19.9 -5.66,-33.26 -6.14,-44.87 -0.48,-11.61 -1.04,-21.49 -1.21,-30.69 -0.17,-9.2 0.06,-17.75 1.09,-28.13 1.03,-10.39 2.86,-22.62 4.69,-34.85 15.61,1.09 31.22,2.17 43.64,3.58 12.42,1.41 21.64,3.14 31.25,3.35 9.6,0.21 19.58,-1.09 28.39,-2.15 8.81,-1.06 16.44,-1.88 23.75,-2.64 7.31,-0.76 14.29,-1.47 21.27,-2.18 2.6,20.51 5.19,41.02 5.78,56.37 0.58,15.35 -0.86,25.55 -2.27,35.57 -1.41,10.02 -2.8,19.85 -7.97,34.83 -5.17,14.98 -14.13,35.11 -28.42,62.09 -14.3,26.99 -33.93,60.83 -48.51,85.95 -14.57,25.12 -24.08,41.5 -37.45,64.55 -13.37,23.04 -30.6,52.74 -47.83,82.43z"/>
   <path class="fil1 str0" d="M217.08 153.11c3.99,5.03 7.98,10.06 13.29,15.5 5.3,5.45 11.92,11.31 18.79,16.37 6.87,5.06 14,9.31 21.13,13.56"/>
   <path class="fil1 str0" d="M86.79 152.36c-3.99,5.03 -7.98,10.06 -13.29,15.5 -5.3,5.44 -11.92,11.31 -18.79,16.37 -6.87,5.06 -14,9.31 -21.13,13.56"/>
   <path class="fil1 str0" d="M217.08 153.11c3.99,5.03 7.98,10.06 13.29,15.5 5.3,5.45 11.92,11.31 18.79,16.37 6.87,5.06 14,9.31 21.13,13.56"/>
   <path class="fil1 str0" d="M217.08 153.11c3.99,5.03 7.98,10.06 13.29,15.5 5.3,5.45 11.92,11.31 18.79,16.37 6.87,5.06 14,9.31 21.13,13.56"/>
   <path class="fil1 str0" d="M86.79 152.36c-3.99,5.03 -7.98,10.06 -13.29,15.5 -5.3,5.44 -11.92,11.31 -18.79,16.37 -6.87,5.06 -14,9.31 -21.13,13.56"/>
   <path class="fil0 str0" d="M183.67 64.66c8.66,-0.13 15.17,-0.74 22.96,-1.65 7.79,-0.91 16.84,-2.11 25.9,-3.32 -0.75,-5.2 -1.49,-10.4 -2.37,-16.51 -0.88,-6.11 -1.88,-13.13 -2.89,-20.16 -10.51,0.99 -21.02,1.98 -31.34,3.07 -10.31,1.09 -20.43,2.28 -27.65,2.95 -7.23,0.67 -11.56,0.82 -15.9,0.96 0.33,11.37 0.67,22.73 1,34.1 10.81,0.34 21.63,0.68 30.29,0.54z"/>
   <path class="fil1 str0" d="M217.08 153.11c3.99,5.03 7.98,10.06 13.29,15.5 5.3,5.45 11.92,11.31 18.79,16.37 6.87,5.06 14,9.31 21.13,13.56"/>
   <path class="fil2 str0" d="M152.82 65.11c-0.32,17.46 -0.64,34.93 -0.95,52.39 8.48,0.04 16.96,0.07 25.66,0.11 8.7,0.04 17.63,0.07 26.47,-0.37 8.85,-0.45 17.62,-1.38 26.4,-2.31 1.15,-10.2 2.31,-20.4 2.66,-29.61 0.36,-9.2 -0.09,-17.41 -0.53,-25.62 -12.64,1.5 -25.29,3 -34.6,3.82 -9.3,0.81 -15.27,0.95 -22.23,1.1 -6.96,0.15 -14.92,0.32 -22.88,0.5z"/>
   <path class="fil2 str0" d="M105.29 116.72c6.6,0.24 14.5,0.64 22.48,0.79 7.98,0.16 16.03,0.07 24.34,0.05 8.3,-0.02 16.86,0.01 25.29,0.02 8.43,0.01 16.74,-0.02 25.55,-0.47 8.81,-0.45 18.13,-1.32 27.44,-2.18 -0.17,3.62 -0.33,7.25 -0.76,11.1 -0.43,3.84 -1.13,7.91 -1.98,12.5 -0.85,4.59 -1.85,9.71 -2.72,14.24 -0.87,4.53 -1.62,8.47 -4.25,14.34 -2.63,5.88 -7.14,13.69 -11.09,20.58 -3.95,6.89 -7.33,12.84 -12.09,21.12 -4.77,8.28 -10.92,18.88 -20.6,35.56 -9.68,16.68 -22.88,39.44 -36.09,62.2 -3.19,-6.64 -6.39,-13.28 -10.02,-20.84 -3.63,-7.56 -7.71,-16.04 -11.52,-24.1 -3.81,-8.07 -7.36,-15.72 -10.96,-23.74 -3.6,-8.02 -7.25,-16.4 -11.04,-24.52 -3.78,-8.12 -7.7,-15.99 -11.12,-24.13 -3.43,-8.14 -6.36,-16.55 -8.44,-25.25 -2.07,-8.7 -3.28,-17.7 -3.88,-25.63 -0.6,-7.93 -0.59,-14.78 -0.58,-21.63 4.95,-0.14 9.91,-0.27 15.02,-0.3 5.12,-0.03 10.4,0.05 16.99,0.29z"/>
   <path class="fil0 str0" d="M153.41 65.13c-11,0.01 -22,0.01 -30.76,-0.29 -8.76,-0.3 -15.27,-0.91 -23.05,-1.81 -7.78,-0.91 -16.84,-2.11 -25.9,-3.32 0.75,-5.2 1.49,-10.4 2.37,-16.51 0.88,-6.11 1.88,-13.13 2.89,-20.16 10.51,0.99 21.02,1.98 31.34,3.07 10.31,1.09 20.43,2.28 27.41,2.95 6.98,0.66 10.83,0.8 14.68,0.94 0.34,11.71 0.69,23.41 1.03,35.12z"/>
   <path class="fil2 str0" d="M153.18 65.17c0.32,17.46 0.64,34.93 0.95,52.39 -8.48,0.04 -16.96,0.07 -25.66,0.11 -8.7,0.04 -17.63,0.07 -26.86,-0.08 -9.24,-0.16 -18.79,-0.51 -28.34,-0.86 -0.38,-10.78 -0.75,-21.57 -0.68,-31.07 0.07,-9.5 0.59,-17.72 1.11,-25.94 12.57,1.51 25.13,3.02 34.4,3.84 9.27,0.82 15.23,0.95 22.19,1.1 6.96,0.15 14.92,0.32 22.88,0.5z"/>
   <path class="fil1 str1" d="M17.67 35.65c0.1,15.13 0.19,30.26 -0.16,43.88 -0.35,13.61 -1.14,25.71 -2.03,36.62 -0.89,10.91 -1.88,20.63 -2.88,28.66 -0.99,8.03 -1.98,14.38 -2.98,20.73 7.14,2.18 14.28,4.36 20.63,6.55 6.35,2.18 11.9,4.36 18.12,6.16 6.22,1.8 13.12,3.22 20.02,4.64 -13.24,9.09 -26.48,18.18 -39.73,27.27 8.13,8.92 16.26,17.85 24.29,27.57 8.03,9.72 15.97,20.23 24.49,30.64 8.53,10.41 17.65,20.72 26.04,31 8.38,10.28 16.03,20.51 23.67,30.75"/>
   <path class="fil1 str1" d="M281.02 32.54c1.36,15.97 2.72,31.94 3.99,47.96 1.28,16.02 2.47,32.08 3.76,46.26 1.29,14.18 2.68,26.48 4.06,38.77 -18.84,5.95 -37.68,11.9 -56.52,17.85 10.31,9.32 20.63,18.64 30.94,27.96 -16.66,18.25 -33.32,36.49 -52.26,56.92 -18.94,20.43 -40.16,43.04 -63.56,68.16 -23.4,25.12 -48.99,52.75 -74.57,80.38"/>
  </g>
 </g>
</svg>
