<?xml version="1.0" encoding="UTF-8"?>
<!DOCTYPE svg PUBLIC "-//W3C//DTD SVG 1.1//EN" "http://www.w3.org/Graphics/SVG/1.1/DTD/svg11.dtd">
<!-- Creator: CorelDRAW -->
<svg xmlns="http://www.w3.org/2000/svg" xml:space="preserve" width="35.5068mm" height="51.3653mm" version="1.1" style="shape-rendering:geometricPrecision; text-rendering:geometricPrecision; image-rendering:optimizeQuality; fill-rule:evenodd; clip-rule:evenodd"
viewBox="0 0 295.74 427.83"
 xmlns:xlink="http://www.w3.org/1999/xlink"
 xmlns:xodm="http://www.corel.com/coreldraw/odm/2003">
 <defs>
  <style type="text/css">
   <![CDATA[
    .str0 {stroke:#373435;stroke-width:1.67;stroke-miterlimit:22.9256}
    .str2 {stroke:#373435;stroke-width:1.67;stroke-miterlimit:22.9256;stroke-dasharray:16.658277 4.997483}
    .str1 {stroke:#373435;stroke-width:1.67;stroke-miterlimit:22.9256;stroke-dasharray:16.658277 8.329138}
    .fil1 {fill:none}
    .fil0 {fill:#6B809B}
    .fil2 {fill:#52658C}
   ]]>
  </style>
 </defs>
 <g id="Слой_x0020_1">
  <metadata id="CorelCorpID_0Corel-Layer"/>
  <g id="_1973737551408">
   <path class="fil0 str0" d="M130.36 423.27c49.79,-73.19 99.58,-146.38 149.38,-219.57 -11.39,-7.14 -22.78,-14.29 -34.17,-21.43 16.43,-4.46 32.86,-8.92 49.29,-13.38 -3.5,-43.03 -6.99,-86.06 -10.49,-129.09 -5.02,-3.77 -10.05,-7.55 -14.31,-10.75 -4.26,-3.2 -7.76,-5.83 -12.38,-9.06 -4.63,-3.22 -10.37,-7.04 -15.07,-9.8 -4.7,-2.76 -8.34,-4.47 -11.92,-5.81 -3.58,-1.34 -7.1,-2.31 -10.15,-2.58 -3.05,-0.26 -5.64,0.18 -8.38,0.83 -2.75,0.65 -5.65,1.51 -9.65,2.61 -4,1.1 -9.09,2.43 -14.31,3.39 -5.22,0.96 -10.56,1.55 -16.98,1.63 -6.42,0.09 -13.92,-0.33 -23.73,-0.22 -9.81,0.11 -21.94,0.74 -31.99,-0.25 -10.04,-1 -18,-3.63 -25.96,-6.26 -6.11,-1.67 -12.23,-3.35 -18.65,-2.47 -6.43,0.88 -13.17,4.31 -19.26,8.15 -6.09,3.84 -11.54,8.1 -18.13,13.14 -6.59,5.04 -14.32,10.87 -22.05,16.7 -0.13,15.36 -0.26,30.73 -0.64,42.82 -0.39,12.09 -1.04,20.91 -1.87,30.08 -0.83,9.17 -1.84,18.69 -3.2,28.12 -1.36,9.42 -3.07,18.75 -4.78,28.07 16.25,4.57 32.5,9.15 48.75,13.72 -11.21,7.03 -22.42,14.06 -33.63,21.09 41.18,60.91 82.36,121.81 123.53,182.72 2.51,-8.27 5.03,-16.53 7.54,-24.8 -7.83,-17.87 -15.67,-35.75 -24.07,-58.23 -8.41,-22.49 -17.39,-49.58 -23.91,-76.08 -6.53,-26.49 -10.6,-52.38 -14.01,-78.74 -3.41,-26.37 -6.16,-53.21 -7.81,-74.32 -1.65,-21.1 -2.22,-36.47 -2.78,-51.83 15.96,1.31 31.93,2.63 44.4,4.13 12.47,1.5 21.45,3.18 30.8,3.39 9.35,0.21 19.06,-1.06 27.64,-2.09 8.57,-1.03 16.01,-1.83 23.12,-2.57 7.11,-0.74 13.91,-1.43 20.71,-2.12 -0.77,21.88 -1.55,43.75 -3.12,64.38 -1.58,20.63 -3.97,40.01 -5.64,53.25 -1.67,13.24 -2.61,20.34 -3.68,29.48 -1.07,9.14 -2.25,20.33 -10.65,45.76 -8.4,25.43 -24.01,65.09 -33.61,91.4 -9.6,26.31 -13.2,39.26 -17.9,56.46 -4.7,17.2 -10.49,38.65 -16.29,60.1z"/>
   <path class="fil1 str0" d="M211.31 149.05c3.89,4.9 7.77,9.79 12.93,15.09 5.16,5.3 11.6,11.01 18.29,15.93 6.69,4.92 13.63,9.06 20.57,13.2"/>
   <path class="fil1 str0" d="M148.77 63.39c-11.28,-0.24 -22.56,-0.48 -31.38,-0.89 -8.81,-0.41 -15.15,-1 -21.68,-1.95 -6.53,-0.94 -13.26,-2.24 -19.98,-3.53 -0.39,-11.78 -0.77,-23.55 -1.16,-35.33 10.23,0.97 20.46,1.93 30.5,2.99 10.04,1.06 19.88,2.22 27.24,3.19 7.36,0.97 12.22,1.74 17.09,2.51 -0.21,11 -0.43,22.01 -0.64,33.01z"/>
   <path class="fil1 str0" d="M84.5 148.31c-3.89,4.89 -7.77,9.79 -12.93,15.09 -5.16,5.3 -11.6,11.01 -18.29,15.93 -6.69,4.92 -13.63,9.06 -20.57,13.2"/>
   <path class="fil1 str0" d="M211.31 149.05c3.89,4.9 7.77,9.79 12.93,15.09 5.16,5.3 11.6,11.01 18.29,15.93 6.69,4.92 13.63,9.06 20.57,13.2"/>
   <path class="fil1 str0" d="M211.31 149.05c3.89,4.9 7.77,9.79 12.93,15.09 5.16,5.3 11.6,11.01 18.29,15.93 6.69,4.92 13.63,9.06 20.57,13.2"/>
   <path class="fil2 str0" d="M147.84 114.38c-7.82,0.17 -15.63,0.34 -23.52,0.25 -7.88,-0.1 -15.83,-0.46 -23.09,-1.16 -7.26,-0.7 -13.84,-1.72 -20.41,-2.75 -1.69,-17.9 -3.39,-35.8 -5.08,-53.71 6.95,1.46 13.9,2.92 20.17,3.88 6.27,0.96 11.87,1.44 19.02,1.77 7.14,0.33 15.83,0.53 21.73,0.62 5.9,0.1 9.01,0.1 12.12,0.1 -0.31,17 -0.62,34 -0.93,51z"/>
   <path class="fil0 str0" d="M148.77 63.39c-11.28,-0.24 -22.56,-0.48 -31.38,-0.89 -8.81,-0.41 -15.15,-1 -21.68,-1.95 -6.53,-0.94 -13.26,-2.24 -19.98,-3.53 -0.39,-11.78 -0.77,-23.55 -1.16,-35.33 10.23,0.97 20.46,1.93 30.5,2.99 10.04,1.06 19.88,2.22 27.24,3.19 7.36,0.97 12.22,1.74 17.09,2.51 -0.21,11 -0.43,22.01 -0.64,33.01z"/>
   <path class="fil1 str0" d="M84.5 148.31c-3.89,4.89 -7.77,9.79 -12.93,15.09 -5.16,5.3 -11.6,11.01 -18.29,15.93 -6.69,4.92 -13.63,9.06 -20.57,13.2"/>
   <path class="fil0 str0" d="M148.77 63.39c10.71,0.01 21.42,0.01 29.94,-0.28 8.52,-0.29 14.86,-0.88 21.39,-1.82 6.53,-0.94 13.26,-2.24 19.98,-3.53 0.39,-11.78 0.77,-23.55 1.16,-35.33 -10.23,0.97 -20.46,1.93 -30.5,2.99 -10.04,1.06 -19.88,2.22 -26.74,3.11 -6.86,0.89 -10.72,1.52 -14.59,2.15 -0.21,10.9 -0.42,21.8 -0.64,32.71z"/>
   <path class="fil1 str0" d="M211.31 149.05c3.89,4.9 7.77,9.79 12.93,15.09 5.16,5.3 11.6,11.01 18.29,15.93 6.69,4.92 13.63,9.06 20.57,13.2"/>
   <path class="fil2 str0" d="M148.77 63.39c-0.31,17 -0.62,34 -0.93,51 8.25,0.03 16.5,0.07 24.97,0.11 8.47,0.04 17.16,0.07 24.27,-0.08 7.11,-0.15 12.64,-0.49 18.18,-0.83 1.61,-18.61 3.22,-37.21 4.82,-55.82 -10.22,1.58 -20.43,3.17 -28.44,4.02 -8.01,0.85 -13.82,0.98 -20.59,1.13 -6.78,0.15 -14.53,0.32 -22.27,0.48z"/>
   <path class="fil2 str0" d="M80.81 110.72c6.8,0.91 13.61,1.83 20.86,2.48 7.25,0.65 14.95,1.04 22.72,1.19 7.77,0.15 15.61,0.07 23.69,0.05 8.08,-0.02 16.41,0.01 24.61,0.02 8.21,0 16.3,-0.02 23.37,-0.17 7.07,-0.15 13.13,-0.43 19.19,-0.71 -0.93,8.83 -1.85,17.65 -2.51,23.57 -0.66,5.91 -1.05,8.91 -1.66,13.82 -0.61,4.91 -1.45,11.74 -2.21,17.5 -0.76,5.76 -1.44,10.45 -2.77,16.69 -1.33,6.24 -3.32,14.03 -5.94,22.72 -2.62,8.68 -5.88,18.25 -9.93,29.57 -4.06,11.32 -8.93,24.38 -13.86,37.65 -4.93,13.27 -9.93,26.74 -13.92,38.01 -3.99,11.27 -6.98,20.34 -9.36,27.93 -2.38,7.59 -4.16,13.71 -5.93,19.84 -1.83,-4.19 -3.66,-8.37 -7.04,-16.44 -3.39,-8.07 -8.33,-20.01 -12.1,-29.46 -3.77,-9.45 -6.36,-16.4 -9.44,-25.23 -3.08,-8.83 -6.65,-19.55 -9.72,-29.41 -3.07,-9.87 -5.63,-18.88 -7.88,-27.55 -2.25,-8.67 -4.19,-17.01 -6.01,-25.85 -1.83,-8.84 -3.54,-18.2 -4.91,-26.33 -1.37,-8.13 -2.4,-15.04 -3.25,-20.99 -0.84,-5.95 -1.5,-10.95 -2.23,-16.73 -0.72,-5.78 -1.51,-12.36 -2.15,-17.85 -0.64,-5.49 -1.12,-9.91 -1.61,-14.32z"/>
   <path class="fil1 str1" d="M270.06 29.05c1.95,16.98 3.89,33.97 6.12,56.55 2.23,22.58 4.74,50.77 7.25,78.96 -17.95,4.83 -35.91,9.65 -53.86,14.48 12.55,9.27 25.1,18.53 37.64,27.8 -18.92,28.19 -37.84,56.37 -59.75,89.11 -21.91,32.74 -46.81,70.04 -71.71,107.33"/>
   <path class="fil1 str2" d="M22.48 30.73c-1.24,24.34 -2.49,48.68 -4.27,70.7 -1.78,22.01 -4.1,41.7 -6.41,61.4 16.22,5.21 32.43,10.42 48.65,15.64 -9.46,9.07 -18.92,18.15 -28.38,27.22 36.53,57.74 73.07,115.47 109.6,173.21"/>
  </g>
 </g>
</svg>
