<?xml version="1.0" encoding="UTF-8"?>
<!DOCTYPE svg PUBLIC "-//W3C//DTD SVG 1.1//EN" "http://www.w3.org/Graphics/SVG/1.1/DTD/svg11.dtd">
<!-- Creator: CorelDRAW -->
<svg xmlns="http://www.w3.org/2000/svg" xml:space="preserve" width="37.2367mm" height="80.7946mm" version="1.1" style="shape-rendering:geometricPrecision; text-rendering:geometricPrecision; image-rendering:optimizeQuality; fill-rule:evenodd; clip-rule:evenodd"
viewBox="0 0 323.98 702.96"
 xmlns:xlink="http://www.w3.org/1999/xlink"
 xmlns:xodm="http://www.corel.com/coreldraw/odm/2003">
 <defs>
  <style type="text/css">
   <![CDATA[
    .str0 {stroke:#373435;stroke-width:1.74;stroke-miterlimit:22.9256}
    .str1 {stroke:#373435;stroke-width:1.74;stroke-miterlimit:22.9256;stroke-dasharray:17.401189 8.700595}
    .fil0 {fill:none}
    .fil2 {fill:#6B809B}
    .fil1 {fill:#52658C}
   ]]>
  </style>
 </defs>
 <g id="Слой_x0020_1">
  <metadata id="CorelCorpID_0Corel-Layer"/>
  <g id="_1937470217424">
   <path class="fil0 str0" d="M160.05 143.17c8.57,0.23 17.14,0.46 25.53,0.34 8.39,-0.12 16.6,-0.58 24.53,-1.66 7.93,-1.08 15.57,-2.79 23.22,-4.49 0.9,-22 1.79,-44 2.69,-65.99 -7.18,1.83 -14.36,3.66 -20.84,4.86 -6.48,1.21 -12.26,1.8 -19.64,2.21 -7.38,0.42 -16.35,0.66 -22.44,0.78 -6.09,0.12 -9.31,0.12 -12.52,0.12 -0.18,21.27 -0.35,42.55 -0.53,63.82z"/>
   <path class="fil0 str0" d="M160.58 79.35c11.65,-0.3 23.31,-0.6 32.41,-1.12 9.1,-0.52 15.65,-1.26 22.39,-2.44 6.75,-1.18 13.69,-2.8 20.64,-4.42 0.4,-14.75 0.8,-29.49 1.2,-44.24 -10.57,1.21 -21.14,2.42 -31.51,3.75 -10.37,1.33 -20.54,2.78 -28.14,3.99 -7.6,1.21 -12.63,2.18 -17.66,3.14 0.22,13.78 0.44,27.56 0.66,41.34z"/>
   <path class="fil0 str0" d="M228.02 187.31c3.66,5.59 7.32,11.18 13.04,17.85 5.72,6.66 13.5,14.4 21.28,22.14 5.96,4.92 11.93,9.84 17.89,14.76"/>
   <path class="fil1 str0" d="M160.05 143.17c-2.9,164.36 -5.81,328.73 -8.71,493.09 -8.22,-80.06 -16.43,-160.12 -25.12,-227.71 -8.69,-67.59 -17.87,-122.71 -24.05,-165.98 -6.18,-43.27 -9.37,-74.7 -12.56,-106.13 7.46,1.99 14.92,3.98 22.93,5.11 8.02,1.13 16.59,1.41 24.61,1.53 8.01,0.13 15.46,0.1 22.9,0.08z"/>
   <path class="fil1 str0" d="M160.05 143.17c-7.63,-0.08 -15.25,-0.16 -23.17,-0.43 -7.92,-0.27 -16.13,-0.73 -24.06,-1.81 -7.93,-1.08 -15.57,-2.78 -23.22,-4.49 -0.9,-22 -1.79,-44 -2.69,-65.99 7.18,1.83 14.36,3.66 20.84,4.86 6.48,1.21 12.26,1.8 19.64,2.21 7.38,0.42 16.35,0.66 22.15,0.93 5.8,0.27 8.41,0.58 11.03,0.89 -0.18,21.27 -0.35,42.55 -0.53,63.82z"/>
   <path class="fil2 str0" d="M159.92 38.01c-0.13,-8.7 -0.27,-17.41 -0.4,-26.11 -6.45,0.18 -12.9,0.35 -19.62,0.08 -6.72,-0.27 -13.69,-1 -20.17,-2.57 -6.48,-1.57 -12.46,-3.99 -18.54,-5.92 -6.08,-1.93 -12.26,-3.39 -18.94,-2.18 -6.68,1.21 -13.86,5.08 -24.23,13.3 -10.37,8.22 -23.93,20.79 -37.49,33.36 0,21.76 0,43.52 -0.66,61.65 -0.67,18.13 -2,32.64 -3.09,44.6 -1.1,11.97 -1.96,21.39 -3.1,30.21 -1.14,8.81 -2.56,17 -3.98,25.2 16.97,5.59 33.94,11.17 50.91,16.76 -19.84,12.78 -39.68,25.55 -59.53,38.33 16.75,41.47 33.5,82.95 57.66,150.88 24.16,67.93 55.75,162.31 87.33,256.69 1.76,-12 3.52,-24 5.28,-36.01 -8.7,-84.26 -17.41,-168.51 -24.67,-227.93 -7.26,-59.42 -13.09,-94 -18.08,-126.31 -4.99,-32.31 -9.14,-62.36 -12.62,-97.24 -3.47,-34.88 -6.26,-74.6 -7.86,-101.84 -1.6,-27.23 -1.99,-41.98 -2.39,-56.73 10.5,1.25 21,2.5 30.91,3.79 9.91,1.29 19.22,2.62 26.34,3.96 7.11,1.34 12.03,2.7 16.94,4.05z"/>
   <path class="fil0 str0" d="M95.98 184.78c-4.01,6.13 -8.03,12.26 -13.63,19.24 -5.61,6.98 -12.81,14.81 -20.01,22.64 -7.53,4.38 -15.06,8.76 -22.59,13.15"/>
   <path class="fil0 str0" d="M160.05 143.17c8.57,0.23 17.14,0.46 25.53,0.34 8.39,-0.12 16.6,-0.58 24.53,-1.66 7.93,-1.08 15.57,-2.79 23.22,-4.49 0.9,-22 1.79,-44 2.69,-65.99 -7.18,1.83 -14.36,3.66 -20.84,4.86 -6.48,1.21 -12.26,1.8 -19.64,2.21 -7.38,0.42 -16.35,0.66 -22.44,0.78 -6.09,0.12 -9.31,0.12 -12.52,0.12 -0.18,21.27 -0.35,42.55 -0.53,63.82z"/>
   <path class="fil0 str0" d="M160.58 79.35c11.65,-0.3 23.31,-0.6 32.41,-1.12 9.1,-0.52 15.65,-1.26 22.39,-2.44 6.75,-1.18 13.69,-2.8 20.64,-4.42 0.4,-14.75 0.8,-29.49 1.2,-44.24 -10.57,1.21 -21.14,2.42 -31.51,3.75 -10.37,1.33 -20.54,2.78 -28.14,3.99 -7.6,1.21 -12.63,2.18 -17.66,3.14 0.22,13.78 0.44,27.56 0.66,41.34z"/>
   <path class="fil2 str0" d="M159.92 38.01c-0.13,-8.7 -0.27,-17.41 -0.4,-26.11 7.75,0.48 15.51,0.97 22.88,0.85 7.37,-0.12 14.35,-0.85 20.83,-2.42 6.48,-1.57 12.46,-3.99 18.54,-5.92 6.08,-1.93 12.26,-3.39 18.94,-2.18 6.68,1.21 13.86,5.08 24.23,13.3 10.37,8.22 23.93,20.79 37.49,33.36 0,21.76 0,43.52 0.66,61.65 0.67,18.13 2,32.64 3.09,44.6 1.1,11.97 1.96,21.39 3.1,30.2 1.14,8.81 2.56,17 3.98,25.2 -16.97,5.59 -33.94,11.17 -50.91,16.76 20.19,16.06 40.38,32.12 60.56,48.17 -17.92,39.52 -35.85,79.04 -57.01,125.52 -21.16,46.49 -45.56,99.94 -66.71,149.97 -21.15,50.03 -39.05,96.63 -56.96,143.24 23.9,-135.2 47.8,-270.39 62.04,-354.33 14.24,-83.94 18.81,-116.64 22.49,-152.84 3.68,-36.21 6.47,-75.93 8.07,-103.16 1.6,-27.23 1.99,-41.98 2.39,-56.73 -10.5,1.25 -21,2.5 -30.91,3.79 -9.91,1.29 -19.22,2.62 -26.86,3.81 -7.63,1.19 -13.58,2.24 -19.53,3.28z"/>
   <path class="fil0 str0" d="M160.05 143.17c8.57,0.23 17.14,0.46 25.53,0.34 8.39,-0.12 16.6,-0.58 24.53,-1.66 7.93,-1.08 15.57,-2.79 23.22,-4.49 0.9,-22 1.79,-44 2.69,-65.99 -7.18,1.83 -14.36,3.66 -20.84,4.86 -6.48,1.21 -12.26,1.8 -19.64,2.21 -7.38,0.42 -16.35,0.66 -22.44,0.78 -6.09,0.12 -9.31,0.12 -12.52,0.12 -0.18,21.27 -0.35,42.55 -0.53,63.82z"/>
   <path class="fil0 str0" d="M160.58 79.35c11.65,-0.3 23.31,-0.6 32.41,-1.12 9.1,-0.52 15.65,-1.26 22.39,-2.44 6.75,-1.18 13.69,-2.8 20.64,-4.42 0.4,-14.75 0.8,-29.49 1.2,-44.24 -10.57,1.21 -21.14,2.42 -31.51,3.75 -10.37,1.33 -20.54,2.78 -28.14,3.99 -7.6,1.21 -12.63,2.18 -17.66,3.14 0.22,13.78 0.44,27.56 0.66,41.34z"/>
   <path class="fil2 str0" d="M160.57 78.43c-11.05,-0.3 -22.11,-0.6 -30.91,-1.12 -8.8,-0.52 -15.35,-1.26 -22.09,-2.44 -6.75,-1.18 -13.69,-2.8 -20.64,-4.42 -0.4,-14.75 -0.8,-29.49 -1.2,-44.24 10.57,1.21 21.14,2.42 31.51,3.75 10.37,1.33 20.54,2.78 27.62,4.14 7.08,1.36 11.07,2.64 15.07,3.91 0.22,13.47 0.43,26.94 0.65,40.41z"/>
   <path class="fil1 str0" d="M160.48 143.17c-3.05,164.36 -6.09,328.73 -9.13,493.09 14.97,-79.75 29.93,-159.5 42,-226.94 12.07,-67.44 21.24,-122.55 27.42,-165.83 6.18,-43.27 9.37,-74.7 12.56,-106.13 -7.46,1.99 -14.92,3.98 -22.93,5.11 -8.02,1.13 -16.59,1.41 -25.01,1.38 -8.41,-0.03 -16.66,-0.36 -24.91,-0.69z"/>
   <path class="fil1 str0" d="M160.48 143.17c8.43,0.23 16.86,0.46 25.17,0.34 8.32,-0.12 16.53,-0.58 24.46,-1.66 7.93,-1.08 15.57,-2.79 23.22,-4.49 0.9,-22 1.79,-44 2.69,-65.99 -7.18,1.83 -14.36,3.66 -20.84,4.86 -6.48,1.21 -12.26,1.8 -19.64,2.21 -7.38,0.42 -16.35,0.66 -22.44,0.78 -6.09,0.12 -9.31,0.12 -12.52,0.12 -0.03,21.27 -0.07,42.55 -0.1,63.82z"/>
   <path class="fil2 str0" d="M160.58 79.35c11.65,-0.3 23.31,-0.6 32.41,-1.12 9.1,-0.52 15.65,-1.26 22.39,-2.44 6.75,-1.18 13.69,-2.8 20.64,-4.42 0.4,-14.75 0.8,-29.49 1.2,-44.24 -10.57,1.21 -21.14,2.42 -31.51,3.75 -10.37,1.33 -20.54,2.78 -28.14,3.99 -7.6,1.21 -12.63,2.18 -17.66,3.14 0.22,13.78 0.44,27.56 0.66,41.34z"/>
   <path class="fil0 str0" d="M228.02 187.31c3.66,5.59 7.32,11.18 12.48,17.56 5.16,6.37 11.8,13.51 18.2,19.38 6.4,5.86 12.54,10.44 18.68,15.02"/>
   <path class="fil0 str0" d="M85.73 26.21c-0.13,-4.45 -0.25,-8.89 -0.38,-13.34"/>
   <path class="fil0 str0" d="M237.22 27.14c0.22,-3.96 0.45,-7.91 0.67,-11.87"/>
   <path class="fil0 str1" d="M28.25 40.81c0.21,9.71 0.42,19.41 0.27,28.85 -0.14,9.44 -0.64,18.61 -1.04,28.68 -0.4,10.07 -0.7,21.04 -1.49,32.2 -0.8,11.17 -2.09,22.53 -3.34,33.65 -1.25,11.12 -2.44,21.98 -3.24,28.76 -0.8,6.78 -1.2,9.47 -1.6,12.16 5.88,2.09 11.76,4.19 18.69,6.53 6.93,2.34 14.9,4.94 21.09,7.28 6.18,2.34 10.57,4.44 14.96,6.53 -4.89,3.49 -9.77,6.98 -15.01,10.61 -5.23,3.63 -10.82,7.39 -18.39,12.78 -7.58,5.38 -17.15,12.39 -26.72,19.39 9.87,27.32 19.74,54.63 29.61,81.3 9.87,26.67 19.74,52.69 29.91,81.65 10.17,28.96 20.64,60.87 29.26,87.19 8.62,26.32 15.4,47.06 22.81,70.48 7.4,23.43 15.43,49.54 23.46,75.65"/>
   <path class="fil0 str1" d="M294.15 41.23c-0.88,11.06 -1.77,22.12 -1.71,36.53 0.06,14.4 1.05,32.15 2.35,49.65 1.3,17.5 2.89,34.74 4.44,47.66 1.55,12.91 3.04,21.49 4.54,30.06 -18.15,6.78 -36.29,13.56 -54.44,20.34 21.34,17.85 42.67,35.69 64.01,53.54 -5.28,11.66 -10.57,23.33 -18.89,41.72 -8.32,18.39 -19.69,43.52 -36.84,80.61 -17.15,37.09 -40.08,86.14 -57.38,126.72 -17.3,40.58 -28.96,72.68 -36.84,93.91 -7.88,21.23 -11.98,31.59 -16.08,41.94"/>
  </g>
 </g>
</svg>
