<?xml version="1.0" encoding="UTF-8"?>
<!DOCTYPE svg PUBLIC "-//W3C//DTD SVG 1.0//EN" "http://www.w3.org/TR/2001/REC-SVG-20010904/DTD/svg10.dtd">
<!-- Creator: CorelDRAW -->
<svg xmlns="http://www.w3.org/2000/svg" xml:space="preserve" width="54.9226mm" height="55.479mm" version="1.0" style="shape-rendering:geometricPrecision; text-rendering:geometricPrecision; image-rendering:optimizeQuality; fill-rule:evenodd; clip-rule:evenodd"
viewBox="0 0 95798.15 96768.64"
 xmlns:xlink="http://www.w3.org/1999/xlink"
 xmlns:xodm="http://www.corel.com/coreldraw/odm/2003">
 <defs>
  <style type="text/css">
   <![CDATA[
    .str0 {stroke:#373435;stroke-width:348.85;stroke-miterlimit:22.9256}
    .str1 {stroke:#373435;stroke-width:348.85;stroke-miterlimit:22.9256;stroke-dasharray:3488.478150 1744.239075}
    .fil1 {fill:none}
    .fil0 {fill:#6B809B}
   ]]>
  </style>
 </defs>
 <g id="Слой_x0020_1">
  <metadata id="CorelCorpID_0Corel-Layer"/>
  <g id="_2007872152880">
   <g>
    <path class="fil0 str0" d="M60673.01 61203.08c11030.39,-1472.84 22060.61,-2945.5 33091.01,-4418.33 291.64,3534.18 583.45,7068.35 852.24,10342.99 268.96,3274.63 515.25,6289.73 699.79,9643.2 184.54,3353.65 307.68,7045.5 307.68,9522.15 0,2476.82 -123.14,3738.25 -492.4,4768.92 -369.08,1030.67 -984.45,1830.58 -1738.31,2430.42 -753.69,600.02 -1646.04,1000.15 -3076.66,1307.83 -1430.62,307.68 -3399.52,522.92 -7199.17,861.31 -3799.65,338.56 -9430.05,799.91 -12783.7,907.53 -3353.47,107.79 -4430.19,-138.32 -5353.24,-599.84 -923.05,-461.53 -1692.09,-1138.29 -2276.76,-1907.5 -584.49,-769.21 -984.45,-1630.51 -1199.86,-3153.58 -215.24,-1522.9 -246.11,-3707.21 -292.33,-6476.36 -46.05,-2768.98 -107.62,-6122.45 -199.89,-10091.47 -92.27,-3968.84 -215.41,-8553.05 -338.38,-13137.26z"/>
    <path class="fil1 str1" d="M62703.48 63049.18c-30.7,5661.1 -61.57,11322.03 -92.27,15860.02 -30.7,4538.16 -61.57,7953.21 246.11,10106.82 307.68,2153.61 953.92,3045.96 1615.34,3876.57 661.42,830.78 1338.35,1599.82 2107.39,1999.77 769.21,399.95 1630.69,430.83 3845.87,384.6 2215.18,-46.05 5784.07,-169.19 9168.42,-461.53 3384.35,-292.16 6583.98,-753.69 8783.81,-1261.43 2199.83,-507.57 3399.7,-1061.37 4199.6,-1969.07 799.91,-907.53 1199.86,-2168.96 1338.35,-3984.19 138.49,-1815.23 15.35,-4184.26 -153.84,-7061.03 -169.19,-2876.6 -384.43,-6260.77 -646.07,-9845.18 -261.46,-3584.24 -569.15,-7368.54 -738.34,-9260.69 -169.19,-1892.15 -200.06,-1892.15 -230.76,-1892.15"/>
    <path class="fil0 str0" d="M60673.01 61203.08c11030.39,-1472.84 22060.61,-2945.5 33091.01,-4418.33 291.64,3534.18 583.45,7068.35 852.24,10342.99 268.96,3274.63 515.25,6289.73 699.79,9643.2 184.54,3353.65 307.68,7045.5 307.68,9522.15 0,2476.82 -123.14,3738.25 -492.4,4768.92 -369.08,1030.67 -984.45,1830.58 -1738.31,2430.42 -753.69,600.02 -1646.04,1000.15 -3076.66,1307.83 -1430.62,307.68 -3399.52,522.92 -7199.17,861.31 -3799.65,338.56 -9430.05,799.91 -12783.7,907.53 -3353.47,107.79 -4430.19,-138.32 -5353.24,-599.84 -923.05,-461.53 -1692.09,-1138.29 -2276.76,-1907.5 -584.49,-769.21 -984.45,-1630.51 -1199.86,-3153.58 -215.24,-1522.9 -246.11,-3707.21 -292.33,-6476.36 -46.05,-2768.98 -107.62,-6122.45 -199.89,-10091.47 -92.27,-3968.84 -215.41,-8553.05 -338.38,-13137.26z"/>
    <path class="fil1 str1" d="M62703.48 63049.18c-30.7,5661.1 -61.57,11322.03 -92.27,15860.02 -30.7,4538.16 -61.57,7953.21 246.11,10106.82 307.68,2153.61 953.92,3045.96 1615.34,3876.57 661.42,830.78 1338.35,1599.82 2107.39,1999.77 769.21,399.95 1630.69,430.83 3845.87,384.6 2215.18,-46.05 5784.07,-169.19 9168.42,-461.53 3384.35,-292.16 6583.98,-753.69 8783.81,-1261.43 2199.83,-507.57 3399.7,-1061.37 4199.6,-1969.07 799.91,-907.53 1199.86,-2168.96 1338.35,-3984.19 138.49,-1815.23 15.35,-4184.26 -153.84,-7061.03 -169.19,-2876.6 -384.43,-6260.77 -646.07,-9845.18 -261.46,-3584.24 -569.15,-7368.54 -738.34,-9260.69 -169.19,-1892.15 -200.06,-1892.15 -230.76,-1892.15"/>
   </g>
   <g>
    <path class="fil0 str0" d="M62513.7 389.84c-58.96,5231.15 -118.08,10462.12 -9.24,13715.48 109.01,3253.7 386,4529.61 1239.81,5247.02 853.98,717.41 2285.13,876.13 4472.05,852.41 2187.28,-23.37 5130.33,-229.37 7076.73,-371.7 1946.4,-142.16 2896.31,-220.65 3621.91,-673.97 725.43,-453.33 1226.9,-1281.67 1494.81,-4507.99 268.09,-3226.14 302.97,-8850.27 337.68,-14474.57 -6077.98,71.16 -12155.78,142.33 -18233.75,213.32z"/>
    <path class="fil1 str1" d="M64390.85 1995.41c-104.83,3009.34 -210.01,6018.85 -279.78,8380.89 -70.12,2362.05 -105.18,4076.81 192.39,5301.44 297.39,1224.8 927.24,1959.83 2189.72,2277.45 1262.65,317.8 3157.77,218.73 5333.36,154.54 2175.41,-63.84 4631.3,-92.27 5880.53,-813.69 1249.05,-721.42 1291.96,-2135.47 1303.3,-3594 11.16,-1458.36 -8.9,-2960.67 -47.97,-5006.66 -39.07,-2045.99 -97.15,-4635.32 -155.24,-7224.99"/>
    <path class="fil0 str0" d="M62513.7 389.84c-58.96,5231.15 -118.08,10462.12 -9.24,13715.48 109.01,3253.7 386,4529.61 1239.81,5247.02 853.98,717.41 2285.13,876.13 4472.05,852.41 2187.28,-23.37 5130.33,-229.37 7076.73,-371.7 1946.4,-142.16 2896.31,-220.65 3621.91,-673.97 725.43,-453.33 1226.9,-1281.67 1494.81,-4507.99 268.09,-3226.14 302.97,-8850.27 337.68,-14474.57 -6077.98,71.16 -12155.78,142.33 -18233.75,213.32z"/>
    <path class="fil1 str1" d="M64390.85 1995.41c-104.83,3009.34 -210.01,6018.85 -279.78,8380.89 -70.12,2362.05 -105.18,4076.81 192.39,5301.44 297.39,1224.8 927.24,1959.83 2189.72,2277.45 1262.65,317.8 3157.77,218.73 5333.36,154.54 2175.41,-63.84 4631.3,-92.27 5880.53,-813.69 1249.05,-721.42 1291.96,-2135.47 1303.3,-3594 11.16,-1458.36 -8.9,-2960.67 -47.97,-5006.66 -39.07,-2045.99 -97.15,-4635.32 -155.24,-7224.99"/>
   </g>
   <g>
    <path class="fil0 str0" d="M35125.14 61138.89c-11030.39,-1472.84 -22060.61,-2945.5 -33091.01,-4418.33 -291.64,3534.18 -583.45,7068.35 -852.24,10342.99 -268.96,3274.63 -515.25,6289.73 -699.79,9643.2 -184.54,3353.65 -307.68,7045.5 -307.68,9522.15 0,2476.82 123.14,3738.25 492.4,4768.92 369.08,1030.67 984.45,1830.58 1738.31,2430.42 753.69,600.02 1646.04,1000.15 3076.66,1307.83 1430.62,307.68 3399.52,522.92 7199.17,861.31 3799.65,338.56 9430.05,799.91 12783.7,907.53 3353.47,107.79 4430.19,-138.32 5353.24,-599.84 923.05,-461.53 1692.09,-1138.29 2276.76,-1907.5 584.49,-769.21 984.45,-1630.51 1199.86,-3153.58 215.24,-1522.9 246.11,-3707.21 292.33,-6476.36 46.05,-2768.98 107.62,-6122.45 199.89,-10091.47 92.27,-3968.84 215.41,-8553.05 338.38,-13137.26z"/>
    <path class="fil1 str1" d="M33094.67 62985c30.7,5661.1 61.57,11322.03 92.27,15860.02 30.7,4538.16 61.57,7953.21 -246.11,10106.82 -307.68,2153.61 -953.92,3045.96 -1615.34,3876.57 -661.42,830.78 -1338.35,1599.82 -2107.39,1999.77 -769.21,399.95 -1630.69,430.83 -3845.87,384.6 -2215.18,-46.05 -5784.07,-169.19 -9168.42,-461.53 -3384.35,-292.16 -6583.98,-753.69 -8783.81,-1261.43 -2199.83,-507.57 -3399.7,-1061.37 -4199.6,-1969.07 -799.91,-907.53 -1199.86,-2168.96 -1338.35,-3984.19 -138.49,-1815.23 -15.35,-4184.26 153.84,-7061.03 169.19,-2876.6 384.43,-6260.77 646.07,-9845.18 261.46,-3584.24 569.15,-7368.54 738.34,-9260.69 169.19,-1892.15 200.06,-1892.15 230.76,-1892.15"/>
    <path class="fil0 str0" d="M35125.14 61138.89c-11030.39,-1472.84 -22060.61,-2945.5 -33091.01,-4418.33 -291.64,3534.18 -583.45,7068.35 -852.24,10342.99 -268.96,3274.63 -515.25,6289.73 -699.79,9643.2 -184.54,3353.65 -307.68,7045.5 -307.68,9522.15 0,2476.82 123.14,3738.25 492.4,4768.92 369.08,1030.67 984.45,1830.58 1738.31,2430.42 753.69,600.02 1646.04,1000.15 3076.66,1307.83 1430.62,307.68 3399.52,522.92 7199.17,861.31 3799.65,338.56 9430.05,799.91 12783.7,907.53 3353.47,107.79 4430.19,-138.32 5353.24,-599.84 923.05,-461.53 1692.09,-1138.29 2276.76,-1907.5 584.49,-769.21 984.45,-1630.51 1199.86,-3153.58 215.24,-1522.9 246.11,-3707.21 292.33,-6476.36 46.05,-2768.98 107.62,-6122.45 199.89,-10091.47 92.27,-3968.84 215.41,-8553.05 338.38,-13137.26z"/>
    <path class="fil1 str1" d="M33094.67 62985c30.7,5661.1 61.57,11322.03 92.27,15860.02 30.7,4538.16 61.57,7953.21 -246.11,10106.82 -307.68,2153.61 -953.92,3045.96 -1615.34,3876.57 -661.42,830.78 -1338.35,1599.82 -2107.39,1999.77 -769.21,399.95 -1630.69,430.83 -3845.87,384.6 -2215.18,-46.05 -5784.07,-169.19 -9168.42,-461.53 -3384.35,-292.16 -6583.98,-753.69 -8783.81,-1261.43 -2199.83,-507.57 -3399.7,-1061.37 -4199.6,-1969.07 -799.91,-907.53 -1199.86,-2168.96 -1338.35,-3984.19 -138.49,-1815.23 -15.35,-4184.26 153.84,-7061.03 169.19,-2876.6 384.43,-6260.77 646.07,-9845.18 261.46,-3584.24 569.15,-7368.54 738.34,-9260.69 169.19,-1892.15 200.06,-1892.15 230.76,-1892.15"/>
   </g>
  </g>
 </g>
</svg>
