<?xml version="1.0" encoding="UTF-8"?>
<!DOCTYPE svg PUBLIC "-//W3C//DTD SVG 1.1//EN" "http://www.w3.org/Graphics/SVG/1.1/DTD/svg11.dtd">
<!-- Creator: CorelDRAW -->
<svg xmlns="http://www.w3.org/2000/svg" xml:space="preserve" width="77.4594mm" height="114.741mm" version="1.1" style="shape-rendering:geometricPrecision; text-rendering:geometricPrecision; image-rendering:optimizeQuality; fill-rule:evenodd; clip-rule:evenodd"
viewBox="0 0 614.05 909.59"
 xmlns:xlink="http://www.w3.org/1999/xlink"
 xmlns:xodm="http://www.corel.com/coreldraw/odm/2003">
 <defs>
  <style type="text/css">
   <![CDATA[
    .str1 {stroke:#373435;stroke-width:1.59;stroke-miterlimit:22.9256}
    .str0 {stroke:#373435;stroke-width:1.59;stroke-miterlimit:22.9256;stroke-dasharray:15.854709 7.927354}
    .fil0 {fill:none}
    .fil1 {fill:#6B809B}
    .fil2 {fill:#52658C}
   ]]>
  </style>
 </defs>
 <g id="Слой_x0020_1">
  <metadata id="CorelCorpID_0Corel-Layer"/>
  <g id="_1937469868960">
   <path class="fil0 str0" d="M418.28 903.58c0,-10.08 0,-20.17 0,-30.25 13.63,0.93 27.26,1.87 44.81,1.03 17.55,-0.84 39.02,-3.45 59.56,-5.7 20.54,-2.24 40.14,-4.11 54.8,-5.71 14.66,-1.6 24.36,-2.94 34.07,-4.28"/>
   <path class="fil0 str1" d="M565.14 847.01c1.66,16.43 3.33,32.87 4.99,49.3"/>
   <path class="fil0 str1" d="M560.22 327.04c-3.06,9.75 -6.12,19.51 -8.67,30.92 -2.56,11.41 -4.61,24.48 -6.29,38.21 -1.68,13.72 -2.99,28.1 -3.73,42.67 -0.75,14.56 -0.93,29.32 -0.84,45.56 0.09,16.24 0.47,33.98 1.4,50.79 0.93,16.81 2.43,32.68 3.76,46.85 1.33,14.18 2.5,26.66 3.66,39.14"/>
   <path class="fil0 str0" d="M195.77 902.87c0,-10.08 0,-20.17 0,-30.25 -13.63,0.93 -27.26,1.87 -44.81,1.03 -17.55,-0.84 -39.02,-3.45 -59.56,-5.7 -20.54,-2.24 -40.15,-4.11 -54.8,-5.71 -14.66,-1.6 -24.36,-2.94 -34.07,-4.28"/>
   <path class="fil0 str1" d="M48.91 846.29c-1.66,16.43 -3.33,32.87 -4.99,49.3"/>
   <path class="fil0 str1" d="M169.44 367.91c1.31,25.95 2.61,51.91 3.45,79.45 0.84,27.54 1.21,56.67 0.39,117.06 -0.82,60.39 -2.84,152.05 -4.2,213.73 -1.36,61.68 -2.06,93.38 -2.76,125.07"/>
   <path class="fil0 str1" d="M53.83 326.32c3.06,9.75 6.12,19.51 8.67,30.92 2.56,11.41 4.61,24.48 6.29,38.21 1.68,13.72 2.99,28.1 3.74,42.67 0.75,14.56 0.93,29.32 0.84,45.56 -0.09,16.24 -0.47,33.98 -1.4,50.79 -0.93,16.81 -2.43,32.68 -6.36,84.49 -3.94,51.82 -10.32,139.58 -16.7,227.34"/>
   <path class="fil0 str0" d="M418.28 903.58c0,-10.08 0,-20.17 0,-30.25 13.63,0.93 27.26,1.87 44.81,1.03 17.55,-0.84 39.02,-3.45 59.56,-5.7 20.54,-2.24 40.14,-4.11 54.8,-5.71 14.66,-1.6 24.36,-2.94 34.07,-4.28"/>
   <path class="fil0 str1" d="M565.14 847.01c1.66,16.43 3.33,32.87 4.99,49.3"/>
   <path class="fil0 str1" d="M443.38 393.31c-0.9,17.72 -1.8,35.45 -2.43,58.88 -0.64,23.43 -1.01,52.56 -0.85,91.73 0.16,39.17 0.84,88.4 1.48,134.1 0.64,45.71 1.23,87.91 1.75,125.63 0.53,37.72 0.99,70.97 1.45,104.22"/>
   <path class="fil0 str1" d="M560.22 327.04c-3.06,9.75 -6.12,19.51 -8.67,30.92 -2.56,11.41 -4.61,24.48 -6.29,38.21 -1.68,13.72 -2.99,28.1 -3.73,42.67 -0.75,14.56 -0.93,29.32 -0.84,45.56 0.09,16.24 0.47,33.98 1.4,50.79 0.93,16.81 2.43,32.68 6.36,84.49 3.94,51.82 10.32,139.58 16.7,227.34"/>
   <path class="fil0 str0" d="M418.28 903.58c0,-10.08 0,-20.17 0,-30.25 13.63,0.93 27.26,1.87 44.81,1.03 17.55,-0.84 39.02,-3.45 59.56,-5.7 20.54,-2.24 40.14,-4.11 54.8,-5.71 14.66,-1.6 24.36,-2.94 34.07,-4.28"/>
   <path class="fil0 str1" d="M565.14 847.01c1.66,16.43 3.33,32.87 4.99,49.3"/>
   <path class="fil0 str1" d="M560.22 327.04c-3.06,9.75 -6.12,19.51 -8.67,30.92 -2.56,11.41 -4.61,24.48 -6.29,38.21 -1.68,13.72 -2.99,28.1 -3.73,42.67 -0.75,14.56 -0.93,29.32 -0.84,45.56 0.09,16.24 0.47,33.98 1.4,50.79 0.93,16.81 2.43,32.68 3.76,46.85 1.33,14.18 2.5,26.66 3.66,39.14"/>
   <path class="fil1 str1" d="M174.23 0.96c-15.39,4.72 -30.79,9.45 -56.51,17.31 -25.73,7.86 -61.79,18.86 -97.85,29.85 7.47,13.42 14.94,26.85 22.03,45.6 7.1,18.75 13.82,42.84 17.93,65.15 4.11,22.31 5.6,42.85 5.69,65.54 0.09,22.69 -1.21,47.52 -4.11,67.31 -2.89,19.79 -7.38,34.54 -11.76,47.99 -4.39,13.44 -8.68,25.58 -12.98,37.72 1.87,32.49 3.74,64.98 3.36,96.44 -0.37,31.46 -2.99,61.9 -6.25,92.24 -3.27,30.34 -7.19,60.59 -12.04,98.87 -4.85,38.28 -10.64,84.58 -14.28,123.89 -3.64,39.31 -5.14,71.61 -6.63,103.91 21.85,1.31 43.69,2.61 69.55,4.51 25.86,1.9 55.74,4.39 104.04,6.25 48.3,1.86 115.03,3.1 181.76,4.34 0.38,-175.35 0.77,-350.69 1.15,-526.04 -61.03,-126.96 -122.07,-253.93 -183.1,-380.89z"/>
   <path class="fil0 str0" d="M345.42 385.84c-0.79,169.25 -1.59,338.5 -2.38,507.75 -22.88,0.16 -45.76,0.33 -91.02,-1.05 -45.26,-1.37 -112.89,-4.29 -180.52,-7.2"/>
   <path class="fil0 str1" d="M48.91 846.29c-1.66,16.43 -3.33,32.87 -4.99,49.3"/>
   <path class="fil0 str1" d="M53.83 326.32c3.06,9.75 6.12,19.51 8.67,30.92 2.56,11.41 4.61,24.48 6.29,38.21 1.68,13.72 2.99,28.1 3.74,42.67 0.75,14.56 0.93,29.32 0.84,45.56 -0.09,16.24 -0.47,33.98 -1.4,50.79 -0.93,16.81 -2.43,32.68 -6.36,84.49 -3.94,51.82 -10.32,139.58 -16.7,227.34"/>
   <path class="fil1 str1" d="M439.01 2.04c51.72,15.95 103.44,31.9 155.16,47.85 -7.47,13.07 -14.94,26.14 -22.03,44.72 -7.1,18.58 -13.82,42.67 -17.93,64.98 -4.11,22.31 -5.6,42.85 -5.69,65.54 -0.09,22.69 1.21,47.52 4.11,67.31 2.89,19.79 7.38,34.54 11.76,47.99 4.39,13.44 8.68,25.58 12.98,37.72 -1.87,32.49 -3.73,64.98 -3.36,96.44 0.37,31.46 2.99,61.9 6.26,92.24 3.27,30.34 7.19,60.59 12.04,98.87 4.85,38.28 10.64,84.58 14.28,123.89 3.64,39.31 5.14,71.61 6.63,103.91 -21.85,1.31 -43.69,2.61 -69.55,5.04 -25.86,2.43 -55.74,5.98 -79.49,7.97 -23.75,1.99 -41.37,2.43 -61.41,2.26 -20.04,-0.18 -42.49,-0.97 -72.68,-1.27 -30.2,-0.3 -68.14,-0.12 -106.08,0.07 -1.68,-175.42 -3.36,-350.85 -5.04,-526.27 52.08,-89.77 104.17,-179.54 140.84,-242.74 36.67,-63.21 57.94,-99.86 79.2,-136.51z"/>
   <path class="fil0 str0" d="M229.47 389.27c0.98,61.01 1.95,122.02 2.97,205.99 1.02,83.97 2.08,190.91 3.14,297.84 31.1,0.84 62.2,1.67 93.84,1.78 31.65,0.11 63.84,-0.51 93.17,-2.33 29.33,-1.82 55.8,-4.84 82.27,-7.86"/>
   <path class="fil0 str1" d="M565.14 847.01c1.66,16.43 3.33,32.87 4.99,49.3"/>
   <path class="fil0 str1" d="M444.61 368.62c-1.31,25.95 -2.61,51.91 -3.45,79.45 -0.84,27.54 -1.21,56.67 -1.07,94.97 0.14,38.3 0.8,85.78 1.45,133.26"/>
   <path class="fil0 str1" d="M560.22 327.04c-3.06,9.75 -6.12,19.51 -8.67,30.92 -2.56,11.41 -4.61,24.48 -6.29,38.21 -1.68,13.72 -2.99,28.1 -3.73,42.67 -0.75,14.56 -0.93,29.32 -0.84,45.56 0.09,16.24 0.47,33.98 1.4,50.79 0.93,16.81 2.43,32.68 6.36,84.49 3.94,51.82 10.32,139.58 16.7,227.34"/>
   <ellipse class="fil2 str1" cx="336.38" cy="396.24" rx="13.86" ry="13.72"/>
   <ellipse class="fil2 str1" cx="256.68" cy="553.85" rx="13.86" ry="13.72"/>
   <ellipse class="fil2 str1" cx="255.65" cy="482.96" rx="13.86" ry="13.72"/>
   <ellipse class="fil2 str1" cx="254.26" cy="401.17" rx="13.86" ry="13.72"/>
   <ellipse class="fil2 str1" cx="254.94" cy="632.96" rx="13.86" ry="13.72"/>
   <ellipse class="fil2 str1" cx="334.92" cy="629.78" rx="13.86" ry="13.72"/>
   <ellipse class="fil2 str1" cx="328.15" cy="550.25" rx="13.86" ry="13.72"/>
   <ellipse class="fil2 str1" cx="332.68" cy="481.09" rx="13.86" ry="13.72"/>
   <path class="fil0 str1" d="M157.71 379.26c0.37,19.42 0.75,38.84 1.12,60.68 0.37,21.85 0.75,46.12 1.31,71.14 0.56,25.02 1.31,50.79 1.12,75.99 -0.19,25.21 -1.31,49.86 -2.43,74.5"/>
  </g>
 </g>
</svg>
