<?xml version="1.0" encoding="UTF-8"?>
<!DOCTYPE svg PUBLIC "-//W3C//DTD SVG 1.1//EN" "http://www.w3.org/Graphics/SVG/1.1/DTD/svg11.dtd">
<!-- Creator: CorelDRAW -->
<svg xmlns="http://www.w3.org/2000/svg" xml:space="preserve" width="77.4697mm" height="114.756mm" version="1.1" style="shape-rendering:geometricPrecision; text-rendering:geometricPrecision; image-rendering:optimizeQuality; fill-rule:evenodd; clip-rule:evenodd"
viewBox="0 0 1281.28 1897.96"
 xmlns:xlink="http://www.w3.org/1999/xlink"
 xmlns:xodm="http://www.corel.com/coreldraw/odm/2003">
 <defs>
  <style type="text/css">
   <![CDATA[
    .str1 {stroke:#373435;stroke-width:3.31;stroke-miterlimit:22.9256}
    .str0 {stroke:#373435;stroke-width:3.31;stroke-miterlimit:22.9256;stroke-dasharray:33.078155 16.539077}
    .fil0 {fill:none}
    .fil1 {fill:#6B809B}
    .fil2 {fill:#52658C}
   ]]>
  </style>
 </defs>
 <g id="Слой_x0020_1">
  <metadata id="CorelCorpID_0Corel-Layer"/>
  <g id="_1937538872064">
   <path class="fil0 str0" d="M872.79 1885.42c0,-21.04 0,-42.08 0,-63.12 28.44,1.95 56.88,3.89 93.51,2.14 36.62,-1.75 81.43,-7.21 124.29,-11.88 42.86,-4.68 83.77,-8.57 114.35,-11.91 30.58,-3.34 50.84,-6.13 71.09,-8.92"/>
   <path class="fil0 str1" d="M1179.22 1767.37c3.47,34.29 6.94,68.58 10.41,102.88"/>
   <path class="fil0 str1" d="M1168.95 682.4c-6.38,20.35 -12.77,40.7 -18.1,64.52 -5.34,23.81 -9.62,51.09 -13.13,79.72 -3.5,28.64 -6.23,58.64 -7.79,89.03 -1.56,30.39 -1.95,61.17 -1.75,95.07 0.2,33.9 0.98,70.91 2.93,105.97 1.95,35.07 5.06,68.19 7.84,97.77 2.78,29.58 5.21,55.63 7.65,81.67"/>
   <path class="fil0 str0" d="M408.49 1883.93c0,-21.04 0,-42.08 0,-63.12 -28.44,1.95 -56.88,3.9 -93.51,2.14 -36.62,-1.75 -81.43,-7.21 -124.29,-11.88 -42.86,-4.68 -83.77,-8.57 -114.35,-11.91 -30.58,-3.34 -50.84,-6.13 -71.09,-8.92"/>
   <path class="fil0 str1" d="M102.06 1765.88c-3.47,34.29 -6.94,68.58 -10.41,102.88"/>
   <path class="fil0 str1" d="M353.56 767.68c2.73,54.16 5.45,108.31 7.21,165.78 1.75,57.47 2.53,118.25 0.81,244.27 -1.72,126.02 -5.93,317.27 -8.77,445.97 -2.84,128.7 -4.3,194.84 -5.76,260.98"/>
   <path class="fil0 str1" d="M112.33 680.91c6.38,20.35 12.77,40.7 18.1,64.51 5.34,23.81 9.62,51.09 13.13,79.72 3.5,28.64 6.23,58.64 7.79,89.03 1.56,30.39 1.95,61.17 1.75,95.06 -0.2,33.9 -0.98,70.91 -2.92,105.98 -1.95,35.07 -5.07,68.18 -13.28,176.3 -8.21,108.12 -21.53,291.24 -34.84,474.36"/>
   <path class="fil0 str0" d="M872.79 1885.42c0,-21.04 0,-42.08 0,-63.12 28.44,1.95 56.88,3.89 93.51,2.14 36.62,-1.75 81.43,-7.21 124.29,-11.88 42.86,-4.68 83.77,-8.57 114.35,-11.91 30.58,-3.34 50.84,-6.13 71.09,-8.92"/>
   <path class="fil0 str1" d="M1179.22 1767.37c3.47,34.29 6.94,68.58 10.41,102.88"/>
   <path class="fil0 str1" d="M925.16 820.69c-1.88,36.98 -3.75,73.97 -5.08,122.85 -1.33,48.88 -2.1,109.66 -1.78,191.41 0.33,81.74 1.76,184.45 3.09,279.82 1.33,95.38 2.56,183.43 3.66,262.15 1.1,78.72 2.07,148.09 3.03,217.47"/>
   <path class="fil0 str1" d="M1168.95 682.4c-6.38,20.35 -12.77,40.7 -18.1,64.52 -5.34,23.81 -9.62,51.09 -13.13,79.72 -3.5,28.64 -6.23,58.64 -7.79,89.03 -1.56,30.39 -1.95,61.17 -1.75,95.07 0.2,33.9 0.98,70.91 2.93,105.97 1.95,35.07 5.06,68.19 13.28,176.3 8.21,108.12 21.53,291.24 34.84,474.36"/>
   <path class="fil0 str0" d="M872.79 1885.42c0,-21.04 0,-42.08 0,-63.12 28.44,1.95 56.88,3.89 93.51,2.14 36.62,-1.75 81.43,-7.21 124.29,-11.88 42.86,-4.68 83.77,-8.57 114.35,-11.91 30.58,-3.34 50.84,-6.13 71.09,-8.92"/>
   <path class="fil0 str1" d="M1179.22 1767.37c3.47,34.29 6.94,68.58 10.41,102.88"/>
   <path class="fil0 str1" d="M1168.95 682.4c-6.38,20.35 -12.77,40.7 -18.1,64.52 -5.34,23.81 -9.62,51.09 -13.13,79.72 -3.5,28.64 -6.23,58.64 -7.79,89.03 -1.56,30.39 -1.95,61.17 -1.75,95.07 0.2,33.9 0.98,70.91 2.93,105.97 1.95,35.07 5.06,68.19 7.84,97.77 2.78,29.58 5.21,55.63 7.65,81.67"/>
   <path class="fil1 str1" d="M363.56 2c-32.12,9.86 -64.24,19.71 -117.92,36.12 -53.68,16.4 -128.93,39.35 -204.17,62.29 15.58,28.01 31.17,56.02 45.97,95.15 14.81,39.13 28.83,89.4 37.4,135.95 8.57,46.56 11.69,89.42 11.88,136.75 0.19,47.34 -2.53,99.16 -8.57,140.45 -6.04,41.3 -15.39,72.08 -24.55,100.13 -9.15,28.05 -18.12,53.38 -27.08,78.7 3.9,67.79 7.79,135.59 7.01,201.24 -0.78,65.65 -6.23,129.16 -13.05,192.47 -6.82,63.31 -15,126.43 -25.13,206.3 -10.13,79.87 -22.21,176.5 -29.81,258.51 -7.6,82.01 -10.72,149.42 -13.83,216.82 45.59,2.73 91.17,5.45 145.13,9.41 53.96,3.96 116.3,9.15 217.09,13.04 100.79,3.89 240.03,6.47 379.26,9.05 0.8,-365.88 1.6,-731.76 2.4,-1097.63 -127.35,-264.92 -254.71,-529.84 -382.06,-794.77z"/>
   <path class="fil0 str0" d="M720.76 805.11c-1.66,353.16 -3.31,706.32 -4.97,1059.48 -47.75,0.34 -95.49,0.69 -189.92,-2.18 -94.43,-2.87 -235.56,-8.94 -376.68,-15.02"/>
   <path class="fil0 str1" d="M102.06 1765.88c-3.47,34.29 -6.94,68.58 -10.41,102.88"/>
   <path class="fil0 str1" d="M112.33 680.91c6.38,20.35 12.77,40.7 18.1,64.51 5.34,23.81 9.62,51.09 13.13,79.72 3.5,28.64 6.23,58.64 7.79,89.03 1.56,30.39 1.95,61.17 1.75,95.06 -0.2,33.9 -0.98,70.91 -2.92,105.98 -1.95,35.07 -5.07,68.18 -13.28,176.3 -8.21,108.12 -21.53,291.24 -34.84,474.36"/>
   <path class="fil1 str1" d="M916.05 4.25c107.92,33.28 215.84,66.57 323.76,99.85 -15.58,27.27 -31.17,54.55 -45.97,93.32 -14.81,38.76 -28.83,89.03 -37.4,135.58 -8.57,46.56 -11.69,89.42 -11.88,136.75 -0.19,47.34 2.53,99.16 8.57,140.45 6.04,41.3 15.39,72.08 24.55,100.13 9.15,28.05 18.12,53.38 27.08,78.7 -3.9,67.79 -7.79,135.59 -7.01,201.24 0.78,65.65 6.23,129.16 13.05,192.47 6.82,63.31 15,126.43 25.13,206.3 10.13,79.87 22.21,176.5 29.81,258.51 7.6,82.01 10.72,149.42 13.83,216.82 -45.59,2.73 -91.17,5.45 -145.13,10.52 -53.96,5.07 -116.3,12.47 -165.86,16.63 -49.56,4.16 -86.33,5.07 -128.13,4.71 -41.81,-0.37 -88.65,-2.01 -151.66,-2.65 -63.01,-0.63 -142.18,-0.25 -221.35,0.14 -3.5,-366.04 -7,-732.08 -10.51,-1098.13 108.68,-187.31 217.36,-374.62 293.88,-506.51 76.53,-131.89 120.89,-208.36 165.26,-284.83z"/>
   <path class="fil0 str0" d="M478.82 812.25c2.04,127.3 4.08,254.6 6.2,429.82 2.13,175.22 4.34,398.35 6.55,621.49 64.89,1.74 129.78,3.48 195.82,3.71 66.03,0.23 133.21,-1.06 194.41,-4.86 61.2,-3.8 116.44,-10.1 171.67,-16.4"/>
   <path class="fil0 str1" d="M1179.22 1767.37c3.47,34.29 6.94,68.58 10.41,102.88"/>
   <path class="fil0 str1" d="M927.72 769.17c-2.73,54.16 -5.45,108.31 -7.21,165.78 -1.75,57.47 -2.53,118.25 -2.24,198.17 0.29,79.93 1.66,178.99 3.03,278.06"/>
   <path class="fil0 str1" d="M1168.95 682.4c-6.38,20.35 -12.77,40.7 -18.1,64.52 -5.34,23.81 -9.62,51.09 -13.13,79.72 -3.5,28.64 -6.23,58.64 -7.79,89.03 -1.56,30.39 -1.95,61.17 -1.75,95.07 0.2,33.9 0.98,70.91 2.93,105.97 1.95,35.07 5.06,68.19 13.28,176.3 8.21,108.12 21.53,291.24 34.84,474.36"/>
   <ellipse class="fil2 str1" cx="535.59" cy="1155.66" rx="28.93" ry="28.64"/>
   <ellipse class="fil2 str1" cx="403.89" cy="1018.13" rx="28.93" ry="28.64"/>
   <ellipse class="fil2 str1" cx="531.97" cy="1320.74" rx="28.93" ry="28.64"/>
   <ellipse class="fil2 str1" cx="698.85" cy="1314.11" rx="28.93" ry="28.64"/>
   <ellipse class="fil2 str1" cx="684.72" cy="1148.15" rx="28.93" ry="28.64"/>
   <ellipse class="fil2 str1" cx="869.09" cy="1015.79" rx="28.93" ry="28.64"/>
   <path class="fil0 str1" d="M344.6 811.78c2.87,53.98 5.75,107.95 7.62,154.04 1.87,46.09 2.74,84.28 3.11,137.27 0.37,52.99 0.25,120.77 -0.75,178.23 -1,57.45 -2.88,104.58 -4.75,151.71"/>
  </g>
 </g>
</svg>
