<?xml version="1.0" encoding="UTF-8"?>
<!DOCTYPE svg PUBLIC "-//W3C//DTD SVG 1.0//EN" "http://www.w3.org/TR/2001/REC-SVG-20010904/DTD/svg10.dtd">
<!-- Creator: CorelDRAW -->
<svg xmlns="http://www.w3.org/2000/svg" xml:space="preserve" width="58.0595mm" height="86.0006mm" version="1.0" style="shape-rendering:geometricPrecision; text-rendering:geometricPrecision; image-rendering:optimizeQuality; fill-rule:evenodd; clip-rule:evenodd"
viewBox="0 0 744.35 1102.57"
 xmlns:xlink="http://www.w3.org/1999/xlink"
 xmlns:xodm="http://www.corel.com/coreldraw/odm/2003">
 <defs>
  <style type="text/css">
   <![CDATA[
    .str1 {stroke:#373435;stroke-width:2.56;stroke-miterlimit:22.9256}
    .str0 {stroke:#373435;stroke-width:2.56;stroke-miterlimit:22.9256;stroke-dasharray:25.640929 12.820465}
    .fil0 {fill:none}
    .fil2 {fill:#6B809B}
    .fil1 {fill:#6B809B}
    .fil3 {fill:#52658C}
   ]]>
  </style>
 </defs>
 <g id="Слой_x0020_1">
  <metadata id="CorelCorpID_0Corel-Layer"/>
  <g id="_1971832542112">
   <path class="fil0 str0" d="M363.77 592.07c-1.58,32.56 -3.17,65.13 -3.62,106.29 -0.45,41.16 0.23,90.91 1.13,122.23 0.91,31.32 2.04,44.21 4.07,58.8 2.04,14.59 4.98,30.87 8.93,47.6 3.96,16.73 8.93,33.92 13.91,49.98 4.98,16.06 9.95,30.98 17.19,45.45 7.24,14.47 16.74,28.49 25.67,38.1 8.93,9.61 17.3,14.81 27.59,17.75 10.29,2.94 22.5,3.62 34.71,4.3"/>
   <path class="fil0 str0" d="M506.92 1094.78c0,-12.21 0,-24.42 0,-36.63 16.51,1.13 33.02,2.26 54.27,1.24 21.26,-1.02 47.26,-4.18 72.14,-6.9 24.88,-2.71 48.62,-4.97 66.37,-6.92 17.75,-1.94 29.51,-3.56 41.26,-5.18"/>
   <path class="fil0 str1" d="M537.9 1039.26c0.8,20.22 1.61,40.44 2.41,60.66"/>
   <path class="fil0 str1" d="M684.78 1026.26c2.01,19.9 4.03,39.81 6.04,59.71"/>
   <path class="fil0 str1" d="M538.8 446.89c-1.58,31.43 -3.17,62.87 -4.18,96.22 -1.02,33.36 -1.47,68.63 -1.6,106.84 -0.13,38.21 0.07,79.35 0.26,120.5"/>
   <path class="fil0 str1" d="M678.82 396.52c-3.71,11.81 -7.41,23.63 -10.51,37.45 -3.1,13.82 -5.58,29.65 -7.62,46.27 -2.03,16.62 -3.62,34.03 -4.52,51.67 -0.9,17.64 -1.13,35.5 -1.02,55.18 0.11,19.67 0.57,41.16 1.7,61.51 1.13,20.35 2.94,39.58 4.55,56.74 1.61,17.17 3.02,32.29 4.44,47.4"/>
   <ellipse class="fil0 str1" cx="377.08" cy="616.82" rx="13.83" ry="13.92"/>
   <ellipse class="fil0 str1" cx="376.83" cy="757.26" rx="16.79" ry="16.62"/>
   <path class="fil1 str1" d="M294.24 284.02c-27.63,-94.14 -55.26,-188.28 -82.89,-282.42 -18.64,5.72 -37.29,11.44 -68.44,20.96 -31.16,9.52 -74.83,22.84 -118.5,36.16 9.05,16.26 18.09,32.51 26.68,55.23 8.59,22.71 16.73,51.89 21.71,78.91 4.97,27.02 6.78,51.9 6.9,79.37 0.11,27.48 -1.47,57.55 -4.97,81.52 -3.51,23.97 -8.93,41.84 -14.25,58.12 -5.31,16.28 -10.52,30.98 -15.72,45.68 2.26,39.35 4.52,78.7 4.07,116.8 -0.45,38.1 -3.62,74.97 -7.58,111.71 -3.96,36.75 -8.71,73.38 -14.59,119.74 -5.88,46.36 -12.89,102.44 -17.3,150.04 -4.41,47.6 -6.22,86.73 -8.03,125.85 26.46,1.58 52.92,3.17 84.24,6.11 31.32,2.94 67.5,7.24 99.16,9.84 31.66,2.6 58.79,3.51 78.58,2.15 19.79,-1.36 32.23,-4.97 43.19,-12.21 10.97,-7.24 20.47,-18.09 29.51,-31.55 9.04,-13.46 17.64,-29.51 24.08,-47.49 6.44,-17.98 10.74,-37.88 15.6,-56.99 4.86,-19.11 10.29,-37.43 13.91,-58.68 3.62,-21.26 5.43,-45.45 6.33,-70.67 0.9,-25.21 0.9,-51.45 1.13,-78.24 0.23,-26.8 0.68,-54.16 0.68,-77.11 -0,-22.95 -0.45,-41.5 -0.91,-60.04 -8.02,-17.59 -16.03,-35.18 -33.14,-88.98 -17.1,-53.8 -43.29,-143.8 -69.48,-233.81z"/>
   <path class="fil0 str0" d="M380.58 591.21c0.37,7.65 0.74,15.3 1.54,31.58 0.79,16.28 2,41.2 2.27,78.53 0.27,37.33 -0.41,87.08 -1.32,118.4 -0.91,31.32 -2.04,44.21 -4.07,58.8 -2.04,14.59 -4.98,30.87 -8.93,47.6 -3.96,16.73 -8.93,33.92 -13.91,49.98 -4.98,16.06 -9.95,30.98 -17.19,45.45 -7.24,14.47 -16.74,28.49 -25.67,38.1 -8.93,9.61 -17.3,14.81 -27.59,17.75 -10.29,2.94 -22.5,3.62 -34.71,4.3"/>
   <path class="fil0 str0" d="M237.43 1093.91c0,-12.21 0,-24.42 0,-36.63 -16.51,1.13 -33.02,2.26 -54.27,1.24 -21.26,-1.02 -47.26,-4.18 -72.14,-6.9 -24.88,-2.71 -48.62,-4.97 -66.37,-6.92 -17.75,-1.94 -29.51,-3.56 -41.26,-5.18"/>
   <path class="fil0 str1" d="M206.45 1038.4c-0.8,20.22 -1.61,40.44 -2.41,60.66"/>
   <path class="fil0 str1" d="M59.57 1025.4c-2.01,19.9 -4.03,39.81 -6.04,59.71"/>
   <path class="fil0 str1" d="M205.55 446.02c1.58,31.43 3.17,62.87 4.18,96.22 1.02,33.36 1.47,68.63 0.83,151.65 -0.64,83.01 -2.38,213.76 -4.11,344.51"/>
   <path class="fil0 str1" d="M65.53 395.66c3.71,11.81 7.41,23.63 10.51,37.45 3.1,13.82 5.58,29.65 7.62,46.27 2.03,16.62 3.62,34.03 4.52,51.67 0.9,17.64 1.13,35.5 1.02,55.18 -0.11,19.67 -0.57,41.16 -1.7,61.51 -1.13,20.35 -2.94,39.58 -7.71,102.33 -4.77,62.75 -12.5,169.04 -20.22,275.33"/>
   <path class="fil2 str1" d="M532.03 2.92c62.64,19.32 125.28,38.64 187.92,57.96 -9.05,15.83 -18.09,31.66 -26.68,54.16 -8.59,22.5 -16.73,51.67 -21.71,78.7 -4.97,27.02 -6.78,51.9 -6.9,79.37 -0.11,27.48 1.47,57.55 4.97,81.52 3.51,23.97 8.93,41.84 14.25,58.12 5.31,16.28 10.52,30.98 15.72,45.68 -2.26,39.35 -4.52,78.7 -4.07,116.8 0.45,38.1 3.62,74.97 7.58,111.71 3.96,36.75 8.71,73.38 14.59,119.74 5.88,46.36 12.89,102.44 17.3,150.04 4.41,47.6 6.22,86.73 8.03,125.85 -26.46,1.58 -52.92,3.17 -84.24,6.11 -31.32,2.94 -67.5,7.24 -99.16,9.84 -31.66,2.6 -58.79,3.51 -78.58,2.15 -19.79,-1.36 -32.23,-4.97 -43.19,-12.21 -10.97,-7.24 -20.47,-18.09 -29.51,-31.55 -9.04,-13.46 -17.64,-29.51 -24.08,-47.49 -6.44,-17.98 -10.74,-37.88 -15.6,-56.99 -4.86,-19.11 -10.29,-37.43 -13.91,-58.68 -3.62,-21.26 -5.43,-45.45 -6.33,-70.67 -0.9,-25.21 -0.9,-51.45 -1.13,-78.24 -0.23,-26.8 -0.68,-54.16 -0.68,-77.11 0,-22.95 0.45,-41.5 0.91,-60.04 8.09,-18.62 16.19,-37.25 24.29,-55.87 53.42,-182.96 106.83,-365.93 160.24,-548.89z"/>
   <path class="fil0 str0" d="M363.77 592.07c-1.58,32.56 -3.17,65.13 -3.62,106.29 -0.45,41.16 0.23,90.91 1.13,122.23 0.91,31.32 2.04,44.21 4.07,58.8 2.04,14.59 4.98,30.87 8.93,47.6 3.96,16.73 8.93,33.92 13.91,49.98 4.98,16.06 9.95,30.98 17.19,45.45 7.24,14.47 16.74,28.49 25.67,38.1 8.93,9.61 17.3,14.81 27.59,17.75 10.29,2.94 22.5,3.62 34.71,4.3"/>
   <path class="fil0 str0" d="M506.92 1094.78c0,-12.21 0,-24.42 0,-36.63 16.51,1.13 33.02,2.26 54.27,1.24 21.26,-1.02 47.26,-4.18 72.14,-6.9 24.88,-2.71 48.62,-4.97 66.37,-6.92 17.75,-1.94 29.51,-3.56 41.26,-5.18"/>
   <path class="fil0 str1" d="M537.9 1039.26c0.8,20.22 1.61,40.44 2.41,60.66"/>
   <path class="fil0 str1" d="M684.78 1026.26c2.01,19.9 4.03,39.81 6.04,59.71"/>
   <path class="fil0 str1" d="M537.32 476.79c-1.09,21.47 -2.18,42.93 -2.95,71.3 -0.77,28.37 -1.22,63.65 -0.58,146.66 0.64,83.01 2.38,213.76 4.11,344.51"/>
   <path class="fil0 str1" d="M678.82 396.52c-3.71,11.81 -7.41,23.63 -10.51,37.45 -3.1,13.82 -5.58,29.65 -7.62,46.27 -2.03,16.62 -3.62,34.03 -4.52,51.67 -0.9,17.64 -1.13,35.5 -1.02,55.18 0.11,19.67 0.57,41.16 1.7,61.51 1.13,20.35 2.94,39.58 7.71,102.33 4.77,62.75 12.5,169.04 20.22,275.33"/>
   <ellipse class="fil3 str1" cx="377.08" cy="616.82" rx="13.83" ry="13.92"/>
   <ellipse class="fil3 str1" cx="376.83" cy="757.26" rx="16.79" ry="16.62"/>
  </g>
 </g>
</svg>
