<?xml version="1.0" encoding="UTF-8"?>
<!DOCTYPE svg PUBLIC "-//W3C//DTD SVG 1.1//EN" "http://www.w3.org/Graphics/SVG/1.1/DTD/svg11.dtd">
<!-- Creator: CorelDRAW -->
<svg xmlns="http://www.w3.org/2000/svg" xml:space="preserve" width="77.2583mm" height="114.464mm" version="1.1" style="shape-rendering:geometricPrecision; text-rendering:geometricPrecision; image-rendering:optimizeQuality; fill-rule:evenodd; clip-rule:evenodd"
viewBox="0 0 1273.5 1886.78"
 xmlns:xlink="http://www.w3.org/1999/xlink"
 xmlns:xodm="http://www.corel.com/coreldraw/odm/2003">
 <defs>
  <style type="text/css">
   <![CDATA[
    .str0 {stroke:#373435;stroke-width:3.3;stroke-miterlimit:22.9256}
    .str1 {stroke:#373435;stroke-width:3.3;stroke-miterlimit:22.9256;stroke-dasharray:32.967283 16.483641}
    .fil0 {fill:none}
    .fil1 {fill:#6B809B}
    .fil2 {fill:#52658C}
   ]]>
  </style>
 </defs>
 <g id="Слой_x0020_1">
  <metadata id="CorelCorpID_0Corel-Layer"/>
  <g id="_1937541422688">
   <path class="fil0 str0" d="M798.95 1333.78c138.84,-18.54 277.67,-37.08 416.5,-55.61 3.67,44.48 7.34,88.97 10.73,130.18 3.39,41.22 6.49,79.17 8.81,121.38 2.32,42.21 3.87,88.68 3.87,119.85 0,31.18 -1.55,47.05 -6.2,60.03 -4.65,12.97 -12.39,23.04 -21.88,30.59 -9.49,7.55 -20.72,12.59 -38.73,16.46 -18.01,3.87 -42.79,6.58 -90.61,10.84 -47.83,4.26 -118.69,10.07 -160.91,11.42 -42.21,1.36 -55.76,-1.74 -67.38,-7.55 -11.62,-5.81 -21.3,-14.33 -28.66,-24.01 -7.36,-9.68 -12.39,-20.52 -15.1,-39.69 -2.71,-19.17 -3.1,-46.66 -3.68,-81.51 -0.58,-34.85 -1.35,-77.06 -2.52,-127.02 -1.16,-49.95 -2.71,-107.65 -4.26,-165.35z"/>
   <path class="fil0 str1" d="M824.51 1357.01c-0.39,71.25 -0.77,142.51 -1.16,199.62 -0.39,57.12 -0.77,100.11 3.1,127.21 3.87,27.11 12.01,38.34 20.33,48.79 8.33,10.46 16.85,20.14 26.53,25.17 9.68,5.03 20.53,5.42 48.41,4.84 27.88,-0.58 72.8,-2.13 115.4,-5.81 42.6,-3.68 82.87,-9.49 110.56,-15.88 27.69,-6.39 42.79,-13.36 52.86,-24.78 10.07,-11.42 15.1,-27.3 16.84,-50.15 1.74,-22.85 0.19,-52.67 -1.94,-88.87 -2.13,-36.21 -4.84,-78.8 -8.13,-123.92 -3.29,-45.11 -7.16,-92.75 -9.29,-116.56 -2.13,-23.82 -2.52,-23.82 -2.9,-23.82"/>
   <path class="fil0 str1" d="M622.36 1013.14c-2.71,55.76 -5.42,111.53 -6.19,182.01 -0.77,70.48 0.39,155.67 1.93,209.3 1.55,53.63 3.49,75.71 6.97,100.69 3.49,24.98 8.52,52.86 15.3,81.52 6.78,28.66 15.3,58.09 23.82,85.58 8.52,27.49 17.04,53.05 29.43,77.84 12.39,24.78 28.66,48.79 43.96,65.25 15.3,16.46 29.62,25.37 47.24,30.4 17.62,5.03 38.53,6.2 59.44,7.36"/>
   <path class="fil0 str1" d="M867.48 1873.98c0,-20.91 0,-41.82 0,-62.73 28.27,1.94 56.54,3.87 92.94,2.13 36.4,-1.74 80.93,-7.16 123.53,-11.81 42.6,-4.65 83.26,-8.52 113.65,-11.84 30.4,-3.32 50.53,-6.09 70.66,-8.87"/>
   <path class="fil0 str0" d="M920.54 1778.92c1.38,34.62 2.75,69.25 4.13,103.87"/>
   <path class="fil0 str0" d="M1172.06 1756.65c3.45,34.08 6.9,68.17 10.35,102.25"/>
   <path class="fil0 str0" d="M922.09 764.52c-2.71,53.83 -5.42,107.65 -7.16,164.77 -1.74,57.12 -2.52,117.53 -2.74,182.96 -0.22,65.44 0.11,135.89 0.44,206.34"/>
   <path class="fil0 str0" d="M1161.85 678.28c-6.34,20.23 -12.69,40.46 -17.99,64.12 -5.3,23.67 -9.56,50.78 -13.05,79.24 -3.48,28.46 -6.2,58.28 -7.75,88.49 -1.55,30.21 -1.94,60.8 -1.74,94.49 0.19,33.69 0.97,70.48 2.91,105.33 1.94,34.85 5.03,67.77 7.79,97.17 2.76,29.4 5.18,55.29 7.6,81.18"/>
   <ellipse class="fil0 str0" cx="645.14" cy="1055.52" rx="23.68" ry="23.84"/>
   <ellipse class="fil0 str0" cx="644.72" cy="1296.02" rx="28.75" ry="28.46"/>
   <path class="fil0 str1" d="M651.14 1011.66c0.64,13.1 1.27,26.2 2.63,54.08 1.35,27.88 3.43,70.55 3.88,134.48 0.46,63.93 -0.7,149.12 -2.25,202.76 -1.55,53.63 -3.49,75.71 -6.97,100.69 -3.49,24.98 -8.52,52.86 -15.3,81.51 -6.78,28.66 -15.3,58.09 -23.82,85.58 -8.52,27.49 -17.04,53.05 -29.43,77.84 -12.39,24.78 -28.66,48.79 -43.96,65.25 -15.3,16.46 -29.62,25.37 -47.24,30.4 -17.62,5.03 -38.53,6.2 -59.44,7.36"/>
   <path class="fil0 str1" d="M406.01 1872.5c0,-20.91 0,-41.82 0,-62.73 -28.27,1.94 -56.54,3.87 -92.94,2.13 -36.4,-1.74 -80.93,-7.16 -123.53,-11.81 -42.6,-4.65 -83.26,-8.52 -113.65,-11.84 -30.4,-3.32 -50.53,-6.1 -70.66,-8.87"/>
   <path class="fil0 str0" d="M101.44 1755.17c-3.45,34.08 -6.9,68.17 -10.35,102.25"/>
   <path class="fil0 str0" d="M351.41 763.04c2.71,53.83 5.42,107.65 7.16,164.77 1.74,57.12 2.52,117.53 1.42,259.68 -1.1,142.15 -4.07,366.04 -7.04,589.94"/>
   <path class="fil0 str0" d="M111.65 676.8c6.34,20.23 12.69,40.46 17.99,64.12 5.3,23.67 9.56,50.78 13.05,79.24 3.48,28.46 6.2,58.28 7.75,88.49 1.55,30.21 1.94,60.8 1.74,94.49 -0.19,33.69 -0.97,70.48 -2.91,105.33 -1.94,34.85 -5.03,67.77 -13.2,175.23 -8.16,107.46 -21.4,289.47 -34.63,471.48"/>
   <path class="fil1 str0" d="M910.48 4.25c107.27,33.08 214.53,66.16 321.79,99.24 -15.49,27.11 -30.98,54.22 -45.7,92.75 -14.71,38.53 -28.66,88.49 -37.18,134.76 -8.52,46.28 -11.62,88.87 -11.81,135.92 -0.19,47.05 2.52,98.55 8.52,139.6 6,41.05 15.3,71.64 24.4,99.52 9.1,27.88 18.01,53.05 26.91,78.22 -3.87,67.38 -7.74,134.76 -6.97,200.01 0.77,65.25 6.19,128.37 12.97,191.3 6.78,62.93 14.91,125.66 24.98,205.05 10.07,79.39 22.07,175.42 29.62,256.94 7.55,81.51 10.65,148.51 13.75,215.5 -45.31,2.71 -90.62,5.42 -144.25,10.46 -53.63,5.04 -115.59,12.39 -169.81,16.84 -54.21,4.46 -100.68,6 -134.57,3.68 -33.88,-2.32 -55.18,-8.52 -73.97,-20.91 -18.78,-12.39 -35.04,-30.98 -50.54,-54.02 -15.49,-23.04 -30.2,-50.53 -41.24,-81.32 -11.04,-30.79 -18.39,-64.87 -26.72,-97.59 -8.32,-32.72 -17.62,-64.09 -23.82,-100.49 -6.19,-36.4 -9.3,-77.84 -10.84,-121.01 -1.55,-43.18 -1.55,-88.1 -1.94,-133.99 -0.39,-45.89 -1.16,-92.75 -0.53,-154.47 0.63,-61.72 2.65,-138.31 4.68,-214.91 1.25,-44.84 2.5,-89.68 3.75,-134.51 102.83,-255.53 205.66,-511.05 308.49,-766.58z"/>
   <path class="fil0 str1" d="M625.58 802.54c-3.78,125.96 -7.57,251.92 -8.88,357.5 -1.31,105.58 -0.15,190.77 1.4,244.4 1.55,53.63 3.49,75.71 6.97,100.69 3.49,24.98 8.52,52.86 15.3,81.52 6.78,28.66 15.3,58.09 23.82,85.58 8.52,27.49 17.04,53.05 29.43,77.84 12.39,24.78 28.66,48.79 43.96,65.25 15.3,16.46 29.62,25.37 47.24,30.4 17.62,5.03 38.53,6.2 59.44,7.36"/>
   <path class="fil0 str1" d="M867.48 1873.98c0,-20.91 0,-41.82 0,-62.73 28.27,1.94 56.54,3.87 92.94,2.13 36.4,-1.74 80.93,-7.16 123.53,-11.81 42.6,-4.65 83.26,-8.52 113.65,-11.84 30.4,-3.32 50.53,-6.09 70.66,-8.87"/>
   <path class="fil0 str0" d="M920.54 1778.92c1.38,34.62 2.75,69.25 4.13,103.87"/>
   <path class="fil0 str0" d="M1172.06 1756.65c3.45,34.08 6.9,68.17 10.35,102.25"/>
   <path class="fil0 str0" d="M919.54 815.72c-1.86,36.76 -3.73,73.52 -5.04,122.1 -1.32,48.59 -2.09,109 -0.99,251.15 1.1,142.15 4.07,366.04 7.04,589.94"/>
   <path class="fil0 str0" d="M1161.85 678.28c-6.34,20.23 -12.69,40.46 -17.99,64.12 -5.3,23.67 -9.56,50.78 -13.05,79.24 -3.48,28.46 -6.2,58.28 -7.75,88.49 -1.55,30.21 -1.94,60.8 -1.74,94.49 0.19,33.69 0.97,70.48 2.91,105.33 1.94,34.85 5.03,67.77 13.2,175.23 8.16,107.46 21.4,289.47 34.63,471.48"/>
   <ellipse class="fil2 str0" cx="645.14" cy="1055.52" rx="23.68" ry="23.84"/>
   <ellipse class="fil2 str0" cx="644.72" cy="1296.02" rx="28.75" ry="28.46"/>
   <ellipse class="fil2 str0" cx="653.46" cy="837.4" rx="23.68" ry="23.84"/>
   <path class="fil0 str1" d="M824.51 1357.01c-0.39,71.25 -0.77,142.51 -1.16,199.62 -0.39,57.12 -0.77,100.11 3.1,127.21 3.87,27.11 12.01,38.34 20.33,48.79 8.33,10.46 16.85,20.14 26.53,25.17 9.68,5.03 20.53,5.42 48.41,4.84 27.88,-0.58 72.8,-2.13 115.4,-5.81 42.6,-3.68 82.87,-9.49 110.56,-15.88 27.69,-6.39 42.79,-13.36 52.86,-24.78 10.07,-11.42 15.1,-27.3 16.84,-50.15 1.74,-22.85 0.19,-52.67 -1.94,-88.87 -2.13,-36.21 -4.84,-78.8 -8.13,-123.92 -3.29,-45.11 -7.16,-92.75 -9.29,-116.56 -2.13,-23.82 -2.52,-23.82 -2.9,-23.82"/>
   <path class="fil0 str1" d="M622.36 1013.14c-2.71,55.76 -5.42,111.53 -6.19,182.01 -0.77,70.48 0.39,155.67 1.93,209.3 1.55,53.63 3.49,75.71 6.97,100.69 3.49,24.98 8.52,52.86 15.3,81.52 6.78,28.66 15.3,58.09 23.82,85.58 8.52,27.49 17.04,53.05 29.43,77.84 12.39,24.78 28.66,48.79 43.96,65.25 15.3,16.46 29.62,25.37 47.24,30.4 17.62,5.03 38.53,6.2 59.44,7.36"/>
   <path class="fil0 str1" d="M867.48 1873.98c0,-20.91 0,-41.82 0,-62.73 28.27,1.94 56.54,3.87 92.94,2.13 36.4,-1.74 80.93,-7.16 123.53,-11.81 42.6,-4.65 83.26,-8.52 113.65,-11.84 30.4,-3.32 50.53,-6.09 70.66,-8.87"/>
   <path class="fil0 str0" d="M920.54 1778.92c1.38,34.62 2.75,69.25 4.13,103.87"/>
   <path class="fil0 str0" d="M1172.06 1756.65c3.45,34.08 6.9,68.17 10.35,102.25"/>
   <path class="fil0 str0" d="M922.09 764.52c-2.71,53.83 -5.42,107.65 -7.16,164.77 -1.74,57.12 -2.52,117.53 -2.74,182.96 -0.22,65.44 0.11,135.89 0.44,206.34"/>
   <path class="fil0 str0" d="M1161.85 678.28c-6.34,20.23 -12.69,40.46 -17.99,64.12 -5.3,23.67 -9.56,50.78 -13.05,79.24 -3.48,28.46 -6.2,58.28 -7.75,88.49 -1.55,30.21 -1.94,60.8 -1.74,94.49 0.19,33.69 0.97,70.48 2.91,105.33 1.94,34.85 5.03,67.77 7.79,97.17 2.76,29.4 5.18,55.29 7.6,81.18"/>
   <ellipse class="fil0 str0" cx="645.14" cy="1055.52" rx="23.68" ry="23.84"/>
   <ellipse class="fil0 str0" cx="644.72" cy="1296.02" rx="28.75" ry="28.46"/>
   <path class="fil1 str0" d="M361.35 2.01c-31.93,9.8 -63.85,19.59 -117.2,35.9 -53.35,16.3 -128.14,39.11 -202.93,61.92 15.49,27.84 30.98,55.68 45.7,94.57 14.71,38.9 28.66,88.85 37.18,135.13 8.52,46.28 11.62,88.87 11.81,135.92 0.19,47.05 -2.52,98.55 -8.52,139.6 -6,41.05 -15.3,71.64 -24.4,99.52 -9.1,27.88 -18.01,53.05 -26.91,78.22 3.87,67.38 7.75,134.76 6.97,200.01 -0.77,65.25 -6.19,128.37 -12.97,191.3 -6.78,62.93 -14.91,125.66 -24.98,205.05 -10.07,79.39 -22.07,175.42 -29.62,256.94 -7.55,81.51 -10.65,148.51 -13.75,215.5 45.31,2.71 90.62,5.42 144.25,9.36 53.63,3.94 115.59,9.1 205.75,12.56 90.15,3.46 208.5,5.22 326.85,6.98 0.15,-157.17 0.3,-314.34 0.37,-415.39 0.07,-101.04 0.07,-145.97 0.46,-191.86 0.39,-45.89 1.16,-92.75 1.16,-132.05 -0,-39.31 -0.78,-71.06 -1.55,-102.81 -3.91,-103.4 -7.82,-206.79 -11.73,-310.19 -101.97,-242.06 -203.95,-484.12 -305.93,-726.18z"/>
   <path class="fil0 str1" d="M651.14 1011.66c0.64,13.1 1.27,26.2 2.63,54.08 1.35,27.88 3.43,70.55 3.88,134.48 0.46,63.93 -0.7,149.12 -2.25,202.76 -1.55,53.63 -3.49,75.71 -2.4,142.99 1.09,67.28 5.2,179.76 9.31,292.25 -49.06,5.89 -98.13,11.79 -158.3,13.66 -60.17,1.87 -131.44,-0.28 -201.5,-6.08 -70.06,-5.8 -138.9,-15.24 -207.75,-24.68"/>
   <path class="fil0 str0" d="M101.44 1755.17c-3.45,34.08 -6.9,68.17 -10.35,102.25"/>
   <path class="fil0 str0" d="M351.41 763.04c2.71,53.83 5.42,107.65 7.16,164.77 1.74,57.12 2.52,117.53 2.28,196.87 -0.23,79.34 -1.47,177.6 -2.7,275.86"/>
   <path class="fil0 str0" d="M111.65 676.8c6.34,20.23 12.69,40.46 17.99,64.12 5.3,23.67 9.56,50.78 13.05,79.24 3.48,28.46 6.2,58.28 7.75,88.49 1.55,30.21 1.94,60.8 1.74,94.49 -0.19,33.69 -0.97,70.48 -2.91,105.33 -1.94,34.85 -5.03,67.77 -13.2,175.23 -8.16,107.46 -21.4,289.47 -34.63,471.48"/>
   <path class="fil1 str0" d="M910.48 4.25c107.27,33.08 214.53,66.16 321.79,99.24 -15.49,27.11 -30.98,54.22 -45.7,92.75 -14.71,38.53 -28.66,88.49 -37.18,134.76 -8.52,46.28 -11.62,88.87 -11.81,135.92 -0.19,47.05 2.52,98.55 8.52,139.6 6,41.05 15.3,71.64 24.4,99.52 9.1,27.88 18.01,53.05 26.91,78.22 -3.87,67.38 -7.74,134.76 -6.97,200.01 0.77,65.25 6.19,128.37 12.97,191.3 6.78,62.93 14.91,125.66 24.98,205.05 10.07,79.39 22.07,175.42 29.62,256.94 7.55,81.51 10.65,148.51 13.75,215.5 -45.31,2.71 -90.62,5.42 -144.25,10.46 -53.63,5.04 -115.59,12.39 -164.85,16.52 -49.25,4.13 -85.8,5.04 -127.36,4.68 -41.55,-0.36 -88.11,-2 -127.27,-2.24 -39.16,-0.24 -70.91,0.93 -102.67,2.09 -3.63,-202.96 -7.27,-405.92 -9.47,-530.83 -2.21,-124.91 -2.98,-171.77 -2.35,-233.49 0.63,-61.72 2.65,-138.31 4.68,-214.91 1.25,-44.84 2.5,-89.68 3.75,-134.51 102.83,-255.53 205.66,-511.05 308.49,-766.58z"/>
   <path class="fil0 str1" d="M625.58 802.54c-3.78,125.96 -7.57,251.92 -8.88,357.5 -1.31,105.58 -0.15,190.77 1.4,244.4 1.55,53.63 3.49,75.71 5.51,100.69 2.02,24.98 4.13,52.86 6.14,108.84 2.01,55.98 3.93,140.06 5.85,224.14 59.58,4.28 119.15,8.56 182.32,10.06 63.17,1.5 129.94,0.22 190.77,-3.56 60.83,-3.77 115.73,-10.04 170.63,-16.3"/>
   <path class="fil0 str0" d="M1172.06 1756.65c3.45,34.08 6.9,68.17 10.35,102.25"/>
   <path class="fil0 str0" d="M922.09 764.52c-2.71,53.83 -5.42,107.65 -7.16,164.77 -1.74,57.12 -2.52,117.53 -2.22,196.97 0.29,79.44 1.65,177.9 3.01,276.37"/>
   <path class="fil0 str0" d="M1161.85 678.28c-6.34,20.23 -12.69,40.46 -17.99,64.12 -5.3,23.67 -9.56,50.78 -13.05,79.24 -3.48,28.46 -6.2,58.28 -7.75,88.49 -1.55,30.21 -1.94,60.8 -1.74,94.49 0.19,33.69 0.97,70.48 2.91,105.33 1.94,34.85 5.03,67.77 13.2,175.23 8.16,107.46 21.4,289.47 34.63,471.48"/>
   <ellipse class="fil2 str0" cx="645.14" cy="1055.52" rx="23.68" ry="23.84"/>
   <ellipse class="fil2 str0" cx="644.72" cy="1296.02" rx="28.75" ry="28.46"/>
   <ellipse class="fil2 str0" cx="653.46" cy="837.4" rx="23.68" ry="23.84"/>
  </g>
 </g>
</svg>
