<?xml version="1.0" encoding="UTF-8"?>
<!DOCTYPE svg PUBLIC "-//W3C//DTD SVG 1.1//EN" "http://www.w3.org/Graphics/SVG/1.1/DTD/svg11.dtd">
<!-- Creator: CorelDRAW -->
<svg xmlns="http://www.w3.org/2000/svg" xml:space="preserve" width="77.2399mm" height="114.436mm" version="1.1" style="shape-rendering:geometricPrecision; text-rendering:geometricPrecision; image-rendering:optimizeQuality; fill-rule:evenodd; clip-rule:evenodd"
viewBox="0 0 1272.09 1884.69"
 xmlns:xlink="http://www.w3.org/1999/xlink"
 xmlns:xodm="http://www.corel.com/coreldraw/odm/2003">
 <defs>
  <style type="text/css">
   <![CDATA[
    .str0 {stroke:#373435;stroke-width:3.29;stroke-miterlimit:22.9256}
    .str1 {stroke:#373435;stroke-width:3.29;stroke-miterlimit:22.9256;stroke-dasharray:32.938714 16.469357}
    .fil0 {fill:none}
    .fil1 {fill:#6B809B}
    .fil2 {fill:#52658C}
   ]]>
  </style>
 </defs>
 <g id="Слой_x0020_1">
  <metadata id="CorelCorpID_0Corel-Layer"/>
  <g id="_1937544669664">
   <path class="fil0 str0" d="M798.07 1332.31c138.68,-18.52 277.36,-37.03 416.04,-55.55 3.67,44.43 7.34,88.87 10.71,130.04 3.38,41.17 6.48,79.08 8.8,121.24 2.32,42.16 3.87,88.58 3.87,119.72 0,31.14 -1.55,47 -6.19,59.96 -4.64,12.96 -12.38,23.02 -21.85,30.56 -9.48,7.54 -20.7,12.57 -38.68,16.44 -17.99,3.87 -42.74,6.57 -90.51,10.83 -47.77,4.26 -118.56,10.06 -160.73,11.41 -42.16,1.36 -55.7,-1.74 -67.3,-7.54 -11.61,-5.8 -21.28,-14.31 -28.63,-23.98 -7.35,-9.67 -12.38,-20.5 -15.09,-39.65 -2.71,-19.15 -3.09,-46.61 -3.68,-81.43 -0.58,-34.81 -1.35,-76.97 -2.51,-126.88 -1.16,-49.9 -2.71,-107.54 -4.25,-165.17z"/>
   <path class="fil0 str1" d="M823.59 1355.52c-0.39,71.17 -0.77,142.35 -1.16,199.4 -0.39,57.06 -0.77,99.99 3.09,127.07 3.87,27.08 11.99,38.3 20.31,48.74 8.32,10.44 16.83,20.11 26.5,25.14 9.67,5.03 20.5,5.42 48.35,4.84 27.85,-0.58 72.72,-2.13 115.27,-5.8 42.55,-3.67 82.78,-9.48 110.44,-15.86 27.66,-6.38 42.74,-13.34 52.8,-24.76 10.06,-11.41 15.09,-27.27 16.83,-50.09 1.74,-22.82 0.19,-52.61 -1.93,-88.78 -2.13,-36.17 -4.83,-78.72 -8.12,-123.78 -3.29,-45.06 -7.16,-92.64 -9.28,-116.43 -2.13,-23.79 -2.51,-23.79 -2.9,-23.79"/>
   <path class="fil0 str1" d="M621.67 1012.02c-2.71,55.7 -5.41,111.4 -6.19,181.8 -0.77,70.4 0.39,155.5 1.93,209.08 1.55,53.57 3.48,75.62 6.96,100.57 3.48,24.95 8.51,52.8 15.28,81.43 6.77,28.63 15.28,58.02 23.79,85.49 8.51,27.47 17.02,52.99 29.4,77.75 12.38,24.76 28.63,48.74 43.91,65.18 15.28,16.44 29.59,25.34 47.19,30.37 17.6,5.03 38.49,6.19 59.38,7.35"/>
   <path class="fil0 str1" d="M866.53 1871.92c0,-20.89 0,-41.78 0,-62.66 28.24,1.93 56.48,3.87 92.83,2.13 36.36,-1.74 80.84,-7.16 123.4,-11.8 42.55,-4.64 83.17,-8.51 113.53,-11.83 30.36,-3.32 50.47,-6.09 70.58,-8.86"/>
   <path class="fil0 str0" d="M919.52 1776.95c1.38,34.59 2.75,69.17 4.13,103.76"/>
   <path class="fil0 str0" d="M1170.76 1754.71c3.44,34.05 6.89,68.09 10.33,102.14"/>
   <path class="fil0 str0" d="M921.07 763.68c-2.71,53.77 -5.41,107.54 -7.15,164.59 -1.74,57.06 -2.51,117.4 -2.74,182.76 -0.22,65.36 0.11,135.74 0.44,206.11"/>
   <path class="fil0 str0" d="M1160.57 677.53c-6.34,20.21 -12.67,40.41 -17.97,64.05 -5.3,23.64 -9.55,50.72 -13.04,79.15 -3.48,28.43 -6.19,58.22 -7.74,88.39 -1.55,30.17 -1.94,60.73 -1.74,94.38 0.2,33.65 0.97,70.4 2.9,105.21 1.94,34.81 5.03,67.7 7.78,97.06 2.76,29.37 5.17,55.23 7.59,81.09"/>
   <ellipse class="fil0 str0" cx="644.43" cy="1054.35" rx="23.66" ry="23.81"/>
   <ellipse class="fil0 str0" cx="644.01" cy="1294.59" rx="28.72" ry="28.43"/>
   <path class="fil1 str0" d="M360.95 2.01c-31.89,9.78 -63.78,19.57 -117.07,35.86 -53.3,16.28 -128,39.06 -202.7,61.85 15.47,27.81 30.94,55.62 45.64,94.47 14.7,38.85 28.62,88.75 37.14,134.98 8.51,46.22 11.6,88.77 11.8,135.77 0.19,47 -2.51,98.44 -8.51,139.45 -5.99,41.01 -15.28,71.56 -24.37,99.41 -9.09,27.85 -17.99,53 -26.88,78.14 3.87,67.31 7.74,134.61 6.96,199.79 -0.77,65.18 -6.19,128.23 -12.96,191.09 -6.77,62.86 -14.89,125.52 -24.95,204.82 -10.06,79.3 -22.05,175.23 -29.59,256.65 -7.54,81.43 -10.64,148.35 -13.73,215.27 45.26,2.71 90.51,5.41 144.09,10.44 53.57,5.03 115.47,12.38 169.62,16.83 54.15,4.45 100.57,6 134.42,3.68 33.85,-2.32 55.12,-8.51 73.88,-20.89 18.76,-12.38 35.01,-30.94 50.48,-53.96 15.47,-23.02 30.17,-50.48 41.19,-81.23 11.02,-30.75 18.37,-64.79 26.69,-97.48 8.32,-32.69 17.6,-64.02 23.79,-100.38 6.19,-36.36 9.29,-77.75 10.83,-120.88 1.55,-43.13 1.55,-88 1.94,-133.84 0.39,-45.84 1.16,-92.64 1.16,-131.9 -0,-39.26 -0.78,-70.98 -1.55,-102.7 -3.91,-103.28 -7.81,-206.57 -11.72,-309.85 -101.86,-241.79 -203.73,-483.58 -305.59,-725.38z"/>
   <path class="fil0 str1" d="M650.42 1010.54c0.64,13.08 1.27,26.17 2.63,54.02 1.35,27.85 3.42,70.47 3.88,134.33 0.46,63.86 -0.7,148.96 -2.25,202.53 -1.55,53.57 -3.48,75.63 -6.96,100.58 -3.48,24.95 -8.51,52.8 -15.28,81.42 -6.77,28.63 -15.28,58.02 -23.79,85.49 -8.51,27.46 -17.02,52.99 -29.4,77.75 -12.38,24.76 -28.63,48.74 -43.91,65.18 -15.28,16.44 -29.59,25.34 -47.19,30.37 -17.6,5.03 -38.49,6.19 -59.38,7.35"/>
   <path class="fil0 str1" d="M405.56 1870.44c0,-20.89 0,-41.78 0,-62.66 -28.24,1.94 -56.48,3.87 -92.84,2.13 -36.36,-1.74 -80.84,-7.16 -123.4,-11.8 -42.55,-4.64 -83.17,-8.51 -113.53,-11.83 -30.36,-3.32 -50.47,-6.09 -70.58,-8.86"/>
   <path class="fil0 str0" d="M352.57 1775.47c-1.38,34.59 -2.75,69.17 -4.12,103.75"/>
   <path class="fil0 str0" d="M101.33 1753.24c-3.45,34.05 -6.89,68.09 -10.34,102.14"/>
   <path class="fil0 str0" d="M351.02 762.2c2.71,53.77 5.42,107.54 7.16,164.59 1.74,57.06 2.51,117.4 1.42,259.4 -1.1,142 -4.06,365.64 -7.03,589.29"/>
   <path class="fil0 str0" d="M111.52 676.05c6.34,20.21 12.68,40.41 17.97,64.05 5.3,23.64 9.55,50.72 13.04,79.15 3.48,28.43 6.19,58.22 7.74,88.39 1.55,30.17 1.93,60.73 1.74,94.38 -0.19,33.65 -0.97,70.4 -2.9,105.22 -1.93,34.81 -5.03,67.69 -13.18,175.04 -8.16,107.34 -21.38,289.15 -34.59,470.96"/>
   <path class="fil1 str0" d="M909.48 4.25c107.15,33.05 214.29,66.09 321.44,99.14 -15.47,27.08 -30.95,54.15 -45.64,92.64 -14.7,38.49 -28.63,88.39 -37.14,134.61 -8.51,46.23 -11.6,88.77 -11.8,135.77 -0.19,47 2.51,98.45 8.51,139.45 6,41 15.28,71.56 24.37,99.41 9.09,27.85 17.99,53 26.88,78.14 -3.87,67.31 -7.74,134.61 -6.96,199.79 0.77,65.18 6.19,128.23 12.96,191.09 6.77,62.86 14.89,125.52 24.95,204.82 10.06,79.3 22.05,175.23 29.59,256.65 7.54,81.42 10.64,148.35 13.74,215.26 -45.26,2.71 -90.52,5.42 -144.09,10.44 -53.57,5.03 -115.47,12.38 -169.62,16.83 -54.15,4.45 -100.57,6 -134.42,3.68 -33.85,-2.32 -55.12,-8.51 -73.88,-20.89 -18.76,-12.38 -35.01,-30.94 -50.48,-53.96 -15.47,-23.01 -30.17,-50.48 -41.19,-81.23 -11.02,-30.75 -18.37,-64.79 -26.69,-97.48 -8.32,-32.69 -17.6,-64.02 -23.79,-100.38 -6.19,-36.36 -9.29,-77.75 -10.83,-120.88 -1.54,-43.13 -1.54,-88 -1.93,-133.84 -0.39,-45.84 -1.16,-92.64 -0.53,-154.3 0.63,-61.66 2.65,-138.16 4.68,-214.67 1.25,-44.79 2.5,-89.58 3.75,-134.37 102.72,-255.25 205.43,-510.49 308.15,-765.73z"/>
   <path class="fil0 str1" d="M624.89 801.66c-3.78,125.82 -7.56,251.64 -8.87,357.1 -1.31,105.46 -0.15,190.56 1.4,244.14 1.55,53.57 3.48,75.62 6.96,100.57 3.48,24.95 8.51,52.8 15.28,81.43 6.77,28.63 15.28,58.02 23.79,85.49 8.51,27.47 17.02,52.99 29.4,77.75 12.38,24.76 28.63,48.74 43.91,65.18 15.28,16.44 29.59,25.34 47.19,30.37 17.6,5.03 38.49,6.19 59.38,7.35"/>
   <path class="fil0 str1" d="M866.53 1871.92c0,-20.89 0,-41.78 0,-62.66 28.24,1.93 56.48,3.87 92.83,2.13 36.36,-1.74 80.84,-7.16 123.4,-11.8 42.55,-4.64 83.17,-8.51 113.53,-11.83 30.36,-3.32 50.47,-6.09 70.58,-8.86"/>
   <path class="fil0 str0" d="M919.52 1776.95c1.38,34.59 2.75,69.17 4.13,103.76"/>
   <path class="fil0 str0" d="M1170.76 1754.71c3.44,34.05 6.89,68.09 10.33,102.14"/>
   <path class="fil0 str0" d="M918.53 814.82c-1.86,36.72 -3.72,73.44 -5.04,121.97 -1.32,48.53 -2.09,108.88 -0.99,250.87 1.1,142 4.06,365.64 7.03,589.29"/>
   <path class="fil0 str0" d="M1160.57 677.53c-6.34,20.21 -12.67,40.41 -17.97,64.05 -5.3,23.64 -9.55,50.72 -13.04,79.15 -3.48,28.43 -6.19,58.22 -7.74,88.39 -1.55,30.17 -1.94,60.73 -1.74,94.38 0.2,33.65 0.97,70.4 2.9,105.21 1.94,34.81 5.03,67.7 13.19,175.04 8.16,107.35 21.37,289.15 34.59,470.96"/>
   <ellipse class="fil2 str0" cx="644.43" cy="1054.35" rx="23.66" ry="23.81"/>
   <ellipse class="fil2 str0" cx="644.01" cy="1294.59" rx="28.72" ry="28.43"/>
   <ellipse class="fil2 str0" cx="652.74" cy="836.47" rx="23.66" ry="23.81"/>
   <path class="fil0 str0" d="M1196.1 783.41c-3.87,67.31 -7.74,134.61 -6.96,199.79 0.77,65.18 6.19,128.23 12.96,191.09 3.59,33.37 7.57,66.69 12.01,102.47 3.92,31.62 8.22,65.16 12.94,102.36 10.06,79.3 22.05,175.23 29.59,256.65 4.86,52.43 7.87,98.85 10.23,143.13 1.3,24.48 2.41,48.31 3.51,72.14 -29.03,1.74 -58.05,3.47 -89.27,5.82 -17.46,1.31 -35.6,2.82 -54.82,4.62 -53.57,5.03 -115.47,12.38 -169.62,16.83 -11.36,0.93 -22.37,1.74 -33.01,2.41 -40.06,2.52 -74.66,3.1 -101.41,1.27 -33.85,-2.32 -55.12,-8.51 -73.88,-20.89 -18.76,-12.38 -35.01,-30.94 -50.48,-53.96 -15.47,-23.01 -30.17,-50.48 -41.19,-81.23 -8.39,-23.39 -14.64,-48.68 -20.82,-73.84 -6.06,24.66 -12.24,49.43 -20.46,72.36 -11.02,30.75 -25.72,58.21 -41.19,81.23 -15.47,23.02 -31.72,41.58 -50.48,53.96 -18.76,12.38 -40.04,18.57 -73.88,20.89 -26.75,1.84 -61.34,1.25 -101.41,-1.27 -10.63,-0.67 -21.65,-1.47 -33.01,-2.41 -54.16,-4.45 -116.05,-11.8 -169.62,-16.83 -19.21,-1.8 -37.36,-3.31 -54.82,-4.62 -31.22,-2.35 -60.24,-4.09 -89.27,-5.82 1.1,-23.83 2.2,-47.65 3.51,-72.14 2.36,-44.28 5.37,-90.7 10.23,-143.13 7.54,-81.42 19.53,-177.36 29.59,-256.65 10.06,-79.3 18.18,-141.96 24.95,-204.82 6.77,-62.86 12.18,-125.91 12.96,-191.09 0.77,-65.18 -3.09,-132.48 -6.96,-199.79 8.9,-25.14 17.79,-50.29 26.88,-78.14 2.9,-8.89 5.82,-18.05 8.65,-27.74 6.03,-20.68 11.64,-43.75 15.72,-71.67 6,-41 8.7,-92.45 8.51,-139.45 -0.19,-47 -3.29,-89.55 -11.8,-135.77 -8.51,-46.22 -22.44,-96.13 -37.14,-134.98 -14.7,-38.86 -30.17,-66.66 -45.64,-94.47 74.7,-22.78 149.41,-45.56 202.7,-61.85 53.3,-16.28 85.18,-26.07 117.07,-35.86 93.67,222.34 187.34,444.68 281,667.02 89.17,-221.59 178.35,-443.19 267.52,-664.78 107.15,33.05 214.29,66.09 321.44,99.14 -15.47,27.08 -30.95,54.15 -45.64,92.64 -14.7,38.49 -28.63,88.39 -37.14,134.61 -8.51,46.23 -11.6,88.77 -11.8,135.77 -0.19,47 2.51,98.45 8.51,139.45 4.08,27.92 9.69,50.99 15.72,71.67 2.83,9.69 5.75,18.86 8.65,27.74 9.09,27.85 17.99,53 26.88,78.14z"/>
   <path class="fil0 str1" d="M823.59 1355.52c-0.39,71.17 -0.77,142.35 -1.16,199.4 -0.39,57.06 -0.77,99.99 3.09,127.07 3.87,27.08 11.99,38.3 20.31,48.74 8.32,10.44 16.83,20.11 26.5,25.14 9.67,5.03 20.5,5.42 48.35,4.84 27.85,-0.58 72.72,-2.13 115.27,-5.8 42.55,-3.67 82.78,-9.48 110.44,-15.86 27.66,-6.38 42.74,-13.34 52.8,-24.76 10.06,-11.41 15.09,-27.27 16.83,-50.09 1.74,-22.82 0.19,-52.61 -1.93,-88.78 -2.13,-36.17 -4.83,-78.72 -8.12,-123.78 -3.29,-45.06 -7.16,-92.64 -9.28,-116.43 -2.13,-23.79 -2.51,-23.79 -2.9,-23.79"/>
   <path class="fil0 str1" d="M621.67 1012.02c-2.71,55.7 -5.41,111.4 -6.19,181.8 -0.77,70.4 0.39,155.5 1.93,209.08 1.55,53.57 3.48,75.62 6.96,100.57 3.48,24.95 8.51,52.8 15.28,81.43 6.77,28.63 15.28,58.02 23.79,85.49 8.51,27.47 17.02,52.99 29.4,77.75 12.38,24.76 28.63,48.74 43.91,65.18 15.28,16.44 29.59,25.34 47.19,30.37 17.6,5.03 38.49,6.19 59.38,7.35"/>
   <path class="fil0 str1" d="M866.53 1871.92c0,-20.89 0,-41.78 0,-62.66 28.24,1.93 56.48,3.87 92.83,2.13 36.36,-1.74 80.84,-7.16 123.4,-11.8 42.55,-4.64 83.17,-8.51 113.53,-11.83 30.36,-3.32 50.47,-6.09 70.58,-8.86"/>
   <path class="fil0 str0" d="M919.52 1776.95c1.38,34.59 2.75,69.17 4.13,103.76"/>
   <path class="fil0 str0" d="M1170.76 1754.71c3.44,34.05 6.89,68.09 10.33,102.14"/>
   <path class="fil0 str0" d="M921.07 763.68c-2.71,53.77 -5.41,107.54 -7.15,164.59 -1.74,57.06 -2.51,117.4 -2.74,182.76 -0.22,65.36 0.11,135.74 0.44,206.11"/>
   <path class="fil0 str0" d="M1160.57 677.53c-6.34,20.21 -12.67,40.41 -17.97,64.05 -5.3,23.64 -9.55,50.72 -13.04,79.15 -3.48,28.43 -6.19,58.22 -7.74,88.39 -1.55,30.17 -1.94,60.73 -1.74,94.38 0.2,33.65 0.97,70.4 2.9,105.21 1.94,34.81 5.03,67.7 7.78,97.06 2.76,29.37 5.17,55.23 7.59,81.09"/>
   <ellipse class="fil0 str0" cx="644.43" cy="1054.35" rx="23.66" ry="23.81"/>
   <ellipse class="fil0 str0" cx="644.01" cy="1294.59" rx="28.72" ry="28.43"/>
   <path class="fil1 str0" d="M360.95 2.01c-31.89,9.78 -63.78,19.57 -117.07,35.86 -53.3,16.28 -128,39.06 -202.7,61.85 15.47,27.81 30.94,55.62 45.64,94.47 14.7,38.85 28.62,88.75 37.14,134.98 8.51,46.22 11.6,88.77 11.8,135.77 0.19,47 -2.51,98.44 -8.51,139.45 -5.99,41.01 -15.28,71.56 -24.37,99.41 -9.09,27.85 -17.99,53 -26.88,78.14 3.87,67.31 7.74,134.61 6.96,199.79 -0.77,65.18 -6.19,128.23 -12.96,191.09 -6.77,62.86 -14.89,125.52 -24.95,204.82 -10.06,79.3 -22.05,175.23 -29.59,256.65 -7.54,81.43 -10.64,148.35 -13.73,215.27 45.26,2.71 90.51,5.41 144.09,10.44 53.57,5.03 115.47,12.38 169.62,16.83 54.15,4.45 100.57,6 134.42,3.68 33.85,-2.32 55.12,-8.51 73.88,-20.89 18.76,-12.38 35.01,-30.94 50.48,-53.96 15.47,-23.02 30.17,-50.48 41.19,-81.23 11.02,-30.75 18.37,-64.79 26.69,-97.48 8.32,-32.69 17.6,-64.02 23.79,-100.38 6.19,-36.36 9.29,-77.75 10.83,-120.88 1.55,-43.13 1.55,-88 1.94,-133.84 0.39,-45.84 1.16,-92.64 1.16,-131.9 -0,-39.26 -0.78,-70.98 -1.55,-102.7 -3.91,-103.28 -7.81,-206.57 -11.72,-309.85 -101.86,-241.79 -203.73,-483.58 -305.59,-725.38z"/>
   <path class="fil0 str1" d="M650.42 1010.54c0.64,13.08 1.27,26.17 2.63,54.02 1.35,27.85 3.42,70.47 3.88,134.33 0.46,63.86 -0.7,148.96 -2.25,202.53 -1.55,53.57 -3.48,75.63 -6.96,100.58 -3.48,24.95 -8.51,52.8 -15.28,81.42 -6.77,28.63 -15.28,58.02 -23.79,85.49 -8.51,27.46 -17.02,52.99 -29.4,77.75 -12.38,24.76 -28.63,48.74 -43.91,65.18 -15.28,16.44 -29.59,25.34 -47.19,30.37 -17.6,5.03 -38.49,6.19 -59.38,7.35"/>
   <path class="fil0 str0" d="M352.57 1775.47c-1.38,34.59 -2.75,69.17 -4.12,103.75"/>
   <path class="fil0 str0" d="M101.33 1753.24c-3.45,34.05 -6.89,68.09 -10.34,102.14"/>
   <path class="fil0 str0" d="M351.02 762.2c2.71,53.77 5.42,107.54 7.16,164.59 1.74,57.06 2.51,117.4 1.42,259.4 -1.1,142 -4.06,365.64 -7.03,589.29"/>
   <path class="fil0 str0" d="M111.52 676.05c6.34,20.21 12.68,40.41 17.97,64.05 5.3,23.64 9.55,50.72 13.04,79.15 3.48,28.43 6.19,58.22 7.74,88.39 1.55,30.17 1.93,60.73 1.74,94.38 -0.19,33.65 -0.97,70.4 -2.9,105.22 -1.93,34.81 -5.03,67.69 -13.18,175.04 -8.16,107.34 -21.38,289.15 -34.59,470.96"/>
   <path class="fil1 str0" d="M909.48 4.25c107.15,33.05 214.29,66.09 321.44,99.14 -15.47,27.08 -30.95,54.15 -45.64,92.64 -14.7,38.49 -28.63,88.39 -37.14,134.61 -8.51,46.23 -11.6,88.77 -11.8,135.77 -0.19,47 2.51,98.45 8.51,139.45 6,41 15.28,71.56 24.37,99.41 9.09,27.85 17.99,53 26.88,78.14 -3.87,67.31 -7.74,134.61 -6.96,199.79 0.77,65.18 6.19,128.23 12.96,191.09 6.77,62.86 14.89,125.52 24.95,204.82 10.06,79.3 22.05,175.23 29.59,256.65 7.54,81.42 10.64,148.35 13.74,215.26 -45.26,2.71 -90.52,5.42 -144.09,10.44 -53.57,5.03 -115.47,12.38 -169.62,16.83 -54.15,4.45 -100.57,6 -134.42,3.68 -33.85,-2.32 -55.12,-8.51 -73.88,-20.89 -18.76,-12.38 -35.01,-30.94 -50.48,-53.96 -15.47,-23.01 -30.17,-50.48 -41.19,-81.23 -11.02,-30.75 -18.37,-64.79 -26.69,-97.48 -8.32,-32.69 -17.6,-64.02 -23.79,-100.38 -6.19,-36.36 -9.29,-77.75 -10.83,-120.88 -1.54,-43.13 -1.54,-88 -1.93,-133.84 -0.39,-45.84 -1.16,-92.64 -0.53,-154.3 0.63,-61.66 2.65,-138.16 4.68,-214.67 1.25,-44.79 2.5,-89.58 3.75,-134.37 102.72,-255.25 205.43,-510.49 308.15,-765.73z"/>
   <path class="fil0 str1" d="M624.89 801.66c-3.78,125.82 -7.56,251.64 -8.87,357.1 -1.31,105.46 -0.15,190.56 1.4,244.14 1.55,53.57 3.48,75.62 6.96,100.57 3.48,24.95 8.51,52.8 15.28,81.43 6.77,28.63 15.28,58.02 23.79,85.49 8.51,27.47 17.02,52.99 29.4,77.75 12.38,24.76 28.63,48.74 43.91,65.18 15.28,16.44 29.59,25.34 47.19,30.37 17.6,5.03 38.49,6.19 59.38,7.35"/>
   <path class="fil0 str0" d="M919.52 1776.95c1.38,34.59 2.75,69.17 4.13,103.76"/>
   <path class="fil0 str0" d="M1170.76 1754.71c3.44,34.05 6.89,68.09 10.33,102.14"/>
   <path class="fil0 str0" d="M918.53 814.82c-1.86,36.72 -3.72,73.44 -5.04,121.97 -1.32,48.53 -2.09,108.88 -0.99,250.87 1.1,142 4.06,365.64 7.03,589.29"/>
   <path class="fil0 str0" d="M1160.57 677.53c-6.34,20.21 -12.67,40.41 -17.97,64.05 -5.3,23.64 -9.55,50.72 -13.04,79.15 -3.48,28.43 -6.19,58.22 -7.74,88.39 -1.55,30.17 -1.94,60.73 -1.74,94.38 0.2,33.65 0.97,70.4 2.9,105.21 1.94,34.81 5.03,67.7 13.19,175.04 8.16,107.35 21.37,289.15 34.59,470.96"/>
   <ellipse class="fil2 str0" cx="644.43" cy="1054.35" rx="23.66" ry="23.81"/>
   <ellipse class="fil2 str0" cx="644.01" cy="1294.59" rx="28.72" ry="28.43"/>
   <ellipse class="fil2 str0" cx="652.74" cy="836.47" rx="23.66" ry="23.81"/>
   <path class="fil0 str0" d="M1196.1 783.41c-3.87,67.31 -7.74,134.61 -6.96,199.79 0.77,65.18 6.19,128.23 12.96,191.09 3.59,33.37 7.57,66.69 12.01,102.47 3.92,31.62 8.22,65.16 12.94,102.36 10.06,79.3 22.05,175.23 29.59,256.65 4.86,52.43 7.87,98.85 10.23,143.13 1.3,24.48 2.41,48.31 3.51,72.14 -29.03,1.74 -58.05,3.47 -89.27,5.82 -17.46,1.31 -35.6,2.82 -54.82,4.62 -53.57,5.03 -115.47,12.38 -169.62,16.83 -11.36,0.93 -22.37,1.74 -33.01,2.41 -40.06,2.52 -74.66,3.1 -101.41,1.27 -33.85,-2.32 -55.12,-8.51 -73.88,-20.89 -18.76,-12.38 -35.01,-30.94 -50.48,-53.96 -15.47,-23.01 -30.17,-50.48 -41.19,-81.23 -8.39,-23.39 -14.64,-48.68 -20.82,-73.84 -6.06,24.66 -12.24,49.43 -20.46,72.36 -7.57,21.12 -19.2,46.18 -33.6,69.63 -16.38,26.66 -36.36,51.23 -58.08,65.56 -18.76,12.38 -40.04,18.57 -73.88,20.89 -26.75,1.84 -61.34,1.25 -101.41,-1.27 -10.63,-0.67 -21.65,-1.47 -33.01,-2.41 -54.16,-4.45 -116.05,-11.8 -169.62,-16.83 -19.21,-1.8 -37.36,-3.31 -54.82,-4.62 -31.22,-2.35 -60.24,-4.09 -89.27,-5.82 1.1,-23.83 2.2,-47.65 3.51,-72.14 2.36,-44.28 5.37,-90.7 10.23,-143.13 7.54,-81.42 19.53,-177.36 29.59,-256.65 10.06,-79.3 18.18,-141.96 24.95,-204.82 6.77,-62.86 12.18,-125.91 12.96,-191.09 0.77,-65.18 -3.09,-132.48 -6.96,-199.79 8.9,-25.14 17.79,-50.29 26.88,-78.14 2.9,-8.89 5.82,-18.05 8.65,-27.74 6.03,-20.68 11.64,-43.75 15.72,-71.67 6,-41 8.7,-92.45 8.51,-139.45 -0.19,-47 -3.29,-89.55 -11.8,-135.77 -8.51,-46.22 -22.44,-96.13 -37.14,-134.98 -14.7,-38.86 -30.17,-66.66 -45.64,-94.47 74.7,-22.78 149.41,-45.56 202.7,-61.85 53.3,-16.28 85.18,-26.07 117.07,-35.86 93.67,222.34 187.34,444.68 281,667.02 89.17,-221.59 178.35,-443.19 267.52,-664.78 107.15,33.05 214.29,66.09 321.44,99.14 -15.47,27.08 -30.95,54.15 -45.64,92.64 -14.7,38.49 -28.63,88.39 -37.14,134.61 -8.51,46.23 -11.6,88.77 -11.8,135.77 -0.19,47 2.51,98.45 8.51,139.45 4.08,27.92 9.69,50.99 15.72,71.67 2.83,9.69 5.75,18.86 8.65,27.74 9.09,27.85 17.99,53 26.88,78.14z"/>
  </g>
 </g>
</svg>
