<?xml version="1.0" encoding="UTF-8"?>
<!DOCTYPE svg PUBLIC "-//W3C//DTD SVG 1.1//EN" "http://www.w3.org/Graphics/SVG/1.1/DTD/svg11.dtd">
<!-- Creator: CorelDRAW -->
<svg xmlns="http://www.w3.org/2000/svg" xml:space="preserve" width="125.198mm" height="102.123mm" version="1.1" style="shape-rendering:geometricPrecision; text-rendering:geometricPrecision; image-rendering:optimizeQuality; fill-rule:evenodd; clip-rule:evenodd"
viewBox="0 0 3165.95 2582.43"
 xmlns:xlink="http://www.w3.org/1999/xlink"
 xmlns:xodm="http://www.corel.com/coreldraw/odm/2003">
 <defs>
  <style type="text/css">
   <![CDATA[
    .str0 {stroke:#373435;stroke-width:5.06;stroke-miterlimit:22.9256}
    .str1 {stroke:#373435;stroke-width:5.06;stroke-miterlimit:22.9256;stroke-dasharray:25.287446 25.287446}
    .fil1 {fill:none}
    .fil5 {fill:#FEFEFE}
    .fil3 {fill:#A7C4D2}
    .fil4 {fill:#A7C4D2}
    .fil2 {fill:#889FAC}
    .fil0 {fill:#6B809B}
   ]]>
  </style>
 </defs>
 <g id="Слой_x0020_1">
  <metadata id="CorelCorpID_0Corel-Layer"/>
  <g id="_1973747159904">
   <path class="fil0 str0" d="M2218.21 4.68c-25.71,60.36 -51.42,120.72 -71.42,178.71 -20,57.98 -34.3,113.59 -44.46,176.04 -10.16,62.45 -16.17,131.73 -17.85,195.23 -1.67,63.49 1,121.18 8.19,178.37 7.19,57.19 18.89,113.89 32.81,165.92 13.91,52.04 30.03,99.42 48.75,154.78 18.72,55.37 40.02,118.73 62.71,190.68 22.69,71.95 46.76,152.49 102.42,286.91 55.67,134.43 142.93,322.74 226.83,506.32 83.9,183.58 164.44,362.42 244.98,541.26 117.25,-63.95 234.51,-127.91 351.76,-191.87 -75.6,-251.09 -151.21,-502.17 -212.7,-689.31 -61.49,-187.13 -108.86,-310.3 -155.09,-436.44 -46.22,-126.14 -91.29,-255.23 -172.33,-448.29 -81.04,-193.05 -198.05,-450.06 -271.47,-595.44 -73.43,-145.38 -103.28,-179.13 -133.13,-212.88z"/>
   <g>
    <path class="fil0 str0" d="M399.07 4.71c5.87,9.32 11.74,18.65 18.54,31.23 6.8,12.58 14.53,28.42 22.54,45.18 8.01,16.76 16.29,34.44 24.45,54.57 8.16,20.13 16.19,42.71 25.74,76.86 9.55,34.16 20.62,79.9 28.83,121.97 8.21,42.08 13.55,80.48 16.62,131.82 3.08,51.34 3.88,115.6 1.48,174.18 -2.41,58.59 -8.03,111.49 -18.29,164.2 -10.25,52.7 -25.15,105.21 -37.28,144.86 -12.13,39.66 -21.49,66.47 -30.85,93.28 -14.45,39.04 -28.89,78.09 -47.36,124.24 -18.47,46.16 -40.96,99.44 -63.46,152.72 193.28,322.64 386.56,645.27 579.84,967.91 -79.62,63.34 -159.24,126.68 -238.85,190.02 -7.7,-13.61 -15.39,-27.23 -23.09,-40.85 -51.51,37.3 -103.01,74.59 -154.51,111.89 -85.84,-137.34 -171.68,-274.68 -233.84,-372.96 -62.16,-98.27 -100.64,-157.47 -139.12,-216.67 -14.8,-142.67 -29.6,-285.34 -41.44,-395.45 -11.84,-110.11 -20.72,-187.66 -34.63,-312.87 -13.91,-125.21 -32.86,-298.06 -51.8,-470.93 34.93,-85.25 69.85,-170.49 108.63,-256.04 38.78,-85.54 81.4,-171.38 115.74,-239.76 34.34,-68.37 60.38,-119.29 80.51,-156.66 20.13,-37.37 34.34,-61.2 48.62,-79.41 14.28,-18.2 28.64,-30.79 42.99,-43.37z"/>
    <path class="fil1 str0" d="M83.9 1516.52c191.34,306.79 382.67,613.59 574.01,920.39"/>
    <path class="fil1 str0" d="M2.58 779.93c112.48,179.96 224.96,359.93 337.44,539.89"/>
    <path class="fil1 str0" d="M507.24 857.67c-65.41,138.59 -130.81,277.18 -196.21,415.78"/>
    <path class="fil2 str0" d="M48.23 1207.71c32.58,5.19 65.16,10.38 89,18.2 23.84,7.82 38.96,18.29 56.06,30.14 17.11,11.84 36.2,25.06 61.62,50.75 25.41,25.69 57.14,63.86 72.93,100.04 15.79,36.18 15.65,70.39 14.04,102.63 -1.6,32.23 -4.67,62.5 -20.46,92.76 -15.78,30.26 -44.3,60.53 -75.67,74.35 -31.36,13.81 -65.57,11.19 -90.26,6.07 -24.69,-5.13 -39.85,-12.74 -55.01,-20.35 -17.42,-151.53 -34.83,-303.06 -52.25,-454.6z"/>
    <path class="fil1 str0" d="M83.9 1516.52c191.34,306.79 382.67,613.59 574.01,920.39"/>
    <path class="fil1 str0" d="M2.58 779.93c112.48,179.96 224.96,359.93 337.44,539.89"/>
    <path class="fil1 str0" d="M507.24 857.67c-65.41,138.59 -130.81,277.18 -196.21,415.78"/>
    <path class="fil2 str0" d="M51.3 1210.37c31.46,5.19 62.92,10.38 86.2,18.2 23.28,7.83 38.4,18.29 55.5,30.14 17.1,11.84 36.2,25.06 61.62,50.75 25.42,25.69 57.14,63.86 72.93,100.04 15.79,36.18 15.65,70.39 14.04,102.63 -1.6,32.23 -4.67,62.5 -20.46,92.76 -15.78,30.27 -44.3,60.53 -75.67,74.35 -31.36,13.82 -65.57,11.19 -90.26,6.07 -24.69,-5.13 -39.85,-12.74 -55.01,-20.35 -16.3,-151.53 -32.59,-303.06 -48.89,-454.6z"/>
    <path class="fil1 str1" d="M51.69 1242.98c25.12,3.26 50.24,6.52 75.08,15.11 24.85,8.59 49.41,22.5 74.28,42.48 24.87,19.98 50.02,46.03 67.34,70 17.32,23.98 26.79,45.88 33.15,66.75 6.36,20.87 9.62,40.7 10.5,61.27 0.89,20.57 -0.59,41.88 -7.1,64.08 -6.51,22.2 -18.06,45.29 -34.04,60.24 -15.98,14.94 -36.4,21.75 -56.39,25.45 -19.98,3.7 -39.51,4.29 -58.16,0.89 -18.65,-3.41 -36.4,-10.8 -54.16,-18.2"/>
    <path class="fil1 str1" d="M51.69 1242.98c25.12,3.26 50.24,6.52 75.08,15.11 24.85,8.59 49.41,22.5 74.28,42.48 24.87,19.98 50.02,46.03 67.34,70 17.32,23.98 26.79,45.88 33.15,66.75 6.36,20.87 9.62,40.7 10.5,61.27 0.89,20.57 -0.59,41.88 -7.1,64.08 -6.51,22.2 -18.06,45.29 -34.04,60.24 -15.98,14.94 -36.4,21.75 -56.39,25.45 -19.98,3.7 -39.51,4.29 -58.16,0.89 -18.65,-3.41 -36.4,-10.8 -54.16,-18.2"/>
    <ellipse class="fil1 str0" transform="matrix(-0.104578 0.0652153 -0.0652153 -0.104578 725.28 2425.4)" rx="18.73" ry="19.4"/>
    <ellipse class="fil1 str0" transform="matrix(-0.104578 0.0652153 -0.0652153 -0.104578 727.239 2424.18)" rx="18.73" ry="19.4"/>
    <ellipse class="fil1 str0" transform="matrix(-0.107115 0.0667973 -0.0667973 -0.107115 662.406 2399.08)" rx="0.33" ry="1"/>
    <path class="fil1 str0" d="M694.52 2395.23c0.62,-0.79 1.24,-1.57 1.64,-2.42 0.39,-0.84 0.56,-1.74 -0.82,-4.7 -1.38,-2.95 -4.3,-7.97 -9.24,-15.94 -4.94,-7.97 -11.89,-18.9 -15.72,-24.83 -3.83,-5.94 -4.55,-6.88 -5.34,-7.51 -0.79,-0.63 -1.64,-0.94 -2.39,-1.03 -0.76,-0.09 -1.41,0.03 -6.11,2.88 -4.7,2.85 -13.43,8.43 -17.97,11.46 -4.54,3.03 -4.9,3.52 -5.21,4.21 -0.3,0.69 -0.55,1.57 -0.19,2.84 0.36,1.27 1.33,2.92 3.52,6.5 2.2,3.58 5.62,9.07 9.3,14.91 3.67,5.84 7.6,12.02 10.5,16.84 2.91,4.82 4.8,8.28 6.24,10.38 1.44,2.09 2.41,2.81 3.37,3.11 0.95,0.3 1.88,0.19 2.55,0 0.68,-0.19 1.09,-0.45 1.52,-0.71 -3.98,-6.28 -7.97,-12.55 -10.99,-17.5 -3.02,-4.95 -5.08,-8.58 -6.17,-10.88 -1.08,-2.3 -1.18,-3.27 -1.26,-4.37 -0.08,-1.09 -0.15,-2.29 0.4,-3.43 0.55,-1.13 1.72,-2.19 3.68,-3.68 1.96,-1.48 4.71,-3.39 6.76,-4.79 2.06,-1.4 3.42,-2.29 4.75,-2.76 1.34,-0.48 2.65,-0.53 4.12,-0.09 1.48,0.44 3.12,1.38 4.54,2.81 1.42,1.43 2.61,3.34 4.14,5.8 1.53,2.46 3.4,5.47 5.26,8.53 1.86,3.05 3.71,6.14 5.23,8.55 1.52,2.4 2.7,4.12 3.88,5.84z"/>
    <ellipse class="fil1 str0" transform="matrix(-0.107115 0.0667973 -0.0667973 -0.107115 662.406 2399.08)" rx="0.33" ry="1"/>
    <path class="fil1 str0" d="M694.52 2395.23c0.62,-0.79 1.24,-1.57 1.64,-2.42 0.39,-0.84 0.56,-1.74 -0.82,-4.7 -1.38,-2.95 -4.3,-7.97 -9.24,-15.94 -4.94,-7.97 -11.89,-18.9 -15.72,-24.83 -3.83,-5.94 -4.55,-6.88 -5.34,-7.51 -0.79,-0.63 -1.64,-0.94 -2.39,-1.03 -0.76,-0.09 -1.41,0.03 -6.11,2.88 -4.7,2.85 -13.43,8.43 -17.97,11.46 -4.54,3.03 -4.9,3.52 -5.21,4.21 -0.3,0.69 -0.55,1.57 -0.19,2.84 0.36,1.27 1.33,2.92 3.52,6.5 2.2,3.58 5.62,9.07 9.3,14.91 3.67,5.84 7.6,12.02 10.5,16.84 2.91,4.82 4.8,8.28 6.24,10.38 1.44,2.09 2.41,2.81 3.37,3.11 0.95,0.3 1.88,0.19 2.55,0 0.68,-0.19 1.09,-0.45 1.52,-0.71 -3.98,-6.28 -7.97,-12.55 -10.99,-17.5 -3.02,-4.95 -5.08,-8.58 -6.17,-10.88 -1.08,-2.3 -1.18,-3.27 -1.26,-4.37 -0.08,-1.09 -0.15,-2.29 0.4,-3.43 0.55,-1.13 1.72,-2.19 3.68,-3.68 1.96,-1.48 4.71,-3.39 6.76,-4.79 2.06,-1.4 3.42,-2.29 4.75,-2.76 1.34,-0.48 2.65,-0.53 4.12,-0.09 1.48,0.44 3.12,1.38 4.54,2.81 1.42,1.43 2.61,3.34 4.14,5.8 1.53,2.46 3.4,5.47 5.26,8.53 1.86,3.05 3.71,6.14 5.23,8.55 1.52,2.4 2.7,4.12 3.88,5.84z"/>
    <ellipse class="fil1 str0" transform="matrix(-0.107115 0.0667973 -0.0667973 -0.107115 662.406 2399.08)" rx="0.33" ry="1"/>
    <path class="fil1 str0" d="M694.52 2395.23c0.62,-0.79 1.24,-1.57 1.64,-2.42 0.39,-0.84 0.56,-1.74 -0.82,-4.7 -1.38,-2.95 -4.3,-7.97 -9.24,-15.94 -4.94,-7.97 -11.89,-18.9 -15.72,-24.83 -3.83,-5.94 -4.55,-6.88 -5.34,-7.51 -0.79,-0.63 -1.64,-0.94 -2.39,-1.03 -0.76,-0.09 -1.41,0.03 -6.11,2.88 -4.7,2.85 -13.43,8.43 -17.97,11.46 -4.54,3.03 -4.9,3.52 -5.21,4.21 -0.3,0.69 -0.55,1.57 -0.19,2.84 0.36,1.27 1.33,2.92 3.52,6.5 2.2,3.58 5.62,9.07 9.3,14.91 3.67,5.84 7.6,12.02 10.5,16.84 2.91,4.82 4.8,8.28 6.24,10.38 1.44,2.09 2.41,2.81 3.37,3.11 0.95,0.3 1.88,0.19 2.55,0 0.68,-0.19 1.09,-0.45 1.52,-0.71 -3.98,-6.28 -7.97,-12.55 -10.99,-17.5 -3.02,-4.95 -5.08,-8.58 -6.17,-10.88 -1.08,-2.3 -1.18,-3.27 -1.26,-4.37 -0.08,-1.09 -0.15,-2.29 0.4,-3.43 0.55,-1.13 1.72,-2.19 3.68,-3.68 1.96,-1.48 4.71,-3.39 6.76,-4.79 2.06,-1.4 3.42,-2.29 4.75,-2.76 1.34,-0.48 2.65,-0.53 4.12,-0.09 1.48,0.44 3.12,1.38 4.54,2.81 1.42,1.43 2.61,3.34 4.14,5.8 1.53,2.46 3.4,5.47 5.26,8.53 1.86,3.05 3.71,6.14 5.23,8.55 1.52,2.4 2.7,4.12 3.88,5.84z"/>
    <ellipse class="fil1 str0" transform="matrix(-0.107115 0.0667973 -0.0667973 -0.107115 727.03 2425.57)" rx="19.07" ry="20.07"/>
    <ellipse class="fil1 str0" transform="matrix(-0.107115 0.0667973 -0.0667973 -0.107115 662.406 2399.08)" rx="0.33" ry="1"/>
    <path class="fil1 str0" d="M694.52 2395.23c0.62,-0.79 1.24,-1.57 1.64,-2.42 0.39,-0.84 0.56,-1.74 -0.82,-4.7 -1.38,-2.95 -4.3,-7.97 -9.24,-15.94 -4.94,-7.97 -11.89,-18.9 -15.72,-24.83 -3.83,-5.94 -4.55,-6.88 -5.34,-7.51 -0.79,-0.63 -1.64,-0.94 -2.39,-1.03 -0.76,-0.09 -1.41,0.03 -6.11,2.88 -4.7,2.85 -13.43,8.43 -17.97,11.46 -4.54,3.03 -4.9,3.52 -5.21,4.21 -0.3,0.69 -0.55,1.57 -0.19,2.84 0.36,1.27 1.33,2.92 3.52,6.5 2.2,3.58 5.62,9.07 9.3,14.91 3.67,5.84 7.6,12.02 10.5,16.84 2.91,4.82 4.8,8.28 6.24,10.38 1.44,2.09 2.41,2.81 3.37,3.11 0.95,0.3 1.88,0.19 2.55,0 0.68,-0.19 1.09,-0.45 1.52,-0.71 -3.98,-6.28 -7.97,-12.55 -10.99,-17.5 -3.02,-4.95 -5.08,-8.58 -6.44,-11.15 -1.36,-2.57 -2,-4.09 -2.09,-5.18 -0.08,-1.09 0.4,-1.75 1.23,-2.61 0.82,-0.86 1.99,-1.92 3.95,-3.41 1.96,-1.48 4.71,-3.39 6.79,-4.75 2.08,-1.36 3.5,-2.15 5.06,-2.82 1.56,-0.67 3.26,-1.2 4.71,-0.81 1.45,0.4 2.64,1.72 3.83,3.34 1.19,1.62 2.39,3.53 3.92,5.99 1.53,2.46 3.4,5.47 5.26,8.53 1.86,3.05 3.71,6.14 5.23,8.55 1.52,2.4 2.7,4.12 3.88,5.84z"/>
    <path class="fil2 str0" d="M678.86 2338.93c-5.51,-9.05 -11.02,-18.1 -16.53,-27.15 -2.79,1.52 -5.59,3.04 -7.91,4.38 -2.33,1.34 -4.18,2.5 -5.7,3.58 -1.52,1.08 -2.71,2.07 -3.18,3.08 -0.47,1 -0.23,2.01 -0,3.03 0.23,1.02 0.43,2.05 0.46,3.08 0.03,1.03 -0.12,2.06 -0.72,3.12 -0.6,1.07 -1.65,2.17 -2.89,2.67 -1.24,0.49 -2.68,0.37 -3.76,0.4 -1.08,0.03 -1.81,0.21 -2.69,0.83 -0.88,0.62 -1.91,1.67 -1.96,2.94 -0.05,1.27 0.88,2.76 1.82,4.37 0.95,1.6 1.91,3.32 3.19,5.04 1.28,1.72 2.86,3.44 4.1,4.05 1.24,0.61 2.12,0.13 2.83,-0.42 0.71,-0.55 1.23,-1.15 1.73,-1.87 0.5,-0.72 0.97,-1.57 1.55,-2.28 0.57,-0.71 1.25,-1.28 1.96,-1.72 0.71,-0.44 1.45,-0.75 2.23,-0.85 0.78,-0.09 1.6,0.03 2.47,0.31 0.87,0.29 1.8,0.74 2.52,1.39 0.72,0.64 1.24,1.48 1.9,1.91 0.65,0.43 1.44,0.46 2.99,-0.06 1.55,-0.51 3.86,-1.57 6.58,-3.3 2.73,-1.73 5.87,-4.13 9.01,-6.54z"/>
    <path class="fil2 str0" d="M643.12 2280.02c-5.53,-9.08 -11.06,-18.16 -16.59,-27.24 -2.8,1.53 -5.61,3.05 -7.94,4.4 -2.33,1.34 -4.2,2.51 -5.72,3.59 -1.52,1.08 -2.71,2.08 -3.18,3.09 -0.47,1.01 -0.23,2.02 -0.01,3.04 0.23,1.02 0.43,2.06 0.47,3.09 0.03,1.03 -0.12,2.06 -0.72,3.14 -0.6,1.07 -1.66,2.18 -2.9,2.67 -1.25,0.5 -2.69,0.37 -3.77,0.4 -1.08,0.03 -1.81,0.21 -2.7,0.83 -0.88,0.62 -1.92,1.68 -1.97,2.95 -0.05,1.28 0.88,2.77 1.83,4.38 0.95,1.61 1.92,3.34 3.2,5.06 1.28,1.72 2.87,3.45 4.11,4.06 1.24,0.62 2.13,0.13 2.84,-0.42 0.71,-0.55 1.24,-1.15 1.74,-1.88 0.5,-0.73 0.98,-1.57 1.55,-2.28 0.58,-0.71 1.25,-1.28 1.96,-1.73 0.71,-0.44 1.45,-0.75 2.24,-0.85 0.78,-0.1 1.6,0.03 2.48,0.31 0.87,0.29 1.81,0.74 2.53,1.39 0.73,0.65 1.25,1.48 1.91,1.92 0.66,0.43 1.45,0.46 3,-0.06 1.55,-0.52 3.87,-1.57 6.61,-3.31 2.73,-1.73 5.89,-4.15 9.04,-6.56z"/>
    <path class="fil2 str0" d="M599.52 2327.35c-5.72,-8.96 -11.45,-17.92 -17.17,-26.88 2.6,-1.85 5.21,-3.69 7.44,-5.2 2.23,-1.5 4.1,-2.67 5.74,-3.56 1.64,-0.9 3.06,-1.52 4.17,-1.5 1.11,0.02 1.91,0.68 2.73,1.34 0.82,0.65 1.66,1.29 2.57,1.78 0.92,0.48 1.91,0.8 3.13,0.73 1.23,-0.07 2.69,-0.53 3.68,-1.43 0.99,-0.9 1.52,-2.25 2.02,-3.21 0.5,-0.96 0.99,-1.53 1.93,-2.05 0.95,-0.52 2.35,-0.99 3.52,-0.47 1.17,0.51 2.1,2.01 3.13,3.57 1.03,1.56 2.15,3.19 3.14,5.1 0.99,1.91 1.83,4.1 1.84,5.48 0.01,1.39 -0.83,1.97 -1.63,2.37 -0.8,0.39 -1.58,0.6 -2.45,0.73 -0.87,0.13 -1.84,0.18 -2.73,0.39 -0.89,0.2 -1.7,0.56 -2.41,1 -0.71,0.45 -1.32,0.98 -1.75,1.64 -0.43,0.66 -0.68,1.45 -0.81,2.36 -0.13,0.91 -0.13,1.95 0.13,2.89 0.26,0.94 0.78,1.78 0.88,2.55 0.1,0.78 -0.23,1.5 -1.38,2.67 -1.15,1.17 -3.12,2.78 -5.88,4.48 -2.76,1.69 -6.32,3.46 -9.87,5.23z"/>
    <path class="fil2 str0" d="M734.88 2426.8c-5.51,-9.05 -11.02,-18.1 -16.53,-27.15 -2.79,1.52 -5.59,3.04 -7.91,4.38 -2.33,1.34 -4.18,2.5 -5.7,3.57 -1.52,1.08 -2.71,2.07 -3.18,3.08 -0.47,1 -0.23,2.01 -0,3.03 0.23,1.02 0.43,2.05 0.46,3.08 0.03,1.03 -0.12,2.06 -0.72,3.13 -0.6,1.07 -1.65,2.17 -2.89,2.67 -1.24,0.49 -2.68,0.37 -3.76,0.4 -1.08,0.03 -1.81,0.21 -2.69,0.83 -0.88,0.62 -1.91,1.67 -1.96,2.94 -0.05,1.27 0.88,2.76 1.82,4.37 0.95,1.61 1.91,3.33 3.19,5.04 1.28,1.72 2.86,3.44 4.1,4.05 1.24,0.61 2.12,0.12 2.83,-0.42 0.71,-0.55 1.23,-1.15 1.73,-1.87 0.5,-0.72 0.97,-1.57 1.55,-2.27 0.57,-0.71 1.25,-1.28 1.96,-1.72 0.71,-0.44 1.45,-0.75 2.23,-0.85 0.78,-0.1 1.6,0.03 2.47,0.31 0.87,0.29 1.8,0.74 2.52,1.38 0.72,0.64 1.24,1.48 1.9,1.91 0.65,0.43 1.44,0.46 2.99,-0.06 1.55,-0.51 3.86,-1.57 6.58,-3.29 2.73,-1.73 5.87,-4.13 9.01,-6.54z"/>
    <path class="fil2 str0" d="M716.72 2397.77c-5.51,-9.05 -11.02,-18.1 -16.53,-27.15 -2.8,1.52 -5.59,3.04 -7.92,4.38 -2.32,1.34 -4.18,2.5 -5.7,3.58 -1.52,1.08 -2.71,2.07 -3.18,3.08 -0.47,1 -0.23,2.01 -0,3.03 0.23,1.02 0.43,2.05 0.46,3.08 0.03,1.03 -0.12,2.06 -0.72,3.13 -0.6,1.07 -1.65,2.17 -2.9,2.67 -1.24,0.49 -2.68,0.37 -3.76,0.4 -1.08,0.03 -1.81,0.21 -2.69,0.83 -0.88,0.62 -1.91,1.67 -1.97,2.94 -0.05,1.27 0.88,2.76 1.83,4.37 0.95,1.61 1.91,3.33 3.19,5.04 1.27,1.72 2.86,3.44 4.1,4.05 1.24,0.61 2.13,0.12 2.83,-0.42 0.71,-0.55 1.23,-1.15 1.73,-1.87 0.5,-0.72 0.97,-1.57 1.55,-2.27 0.57,-0.71 1.25,-1.28 1.96,-1.72 0.71,-0.44 1.45,-0.75 2.23,-0.85 0.78,-0.1 1.6,0.02 2.47,0.31 0.87,0.29 1.8,0.74 2.52,1.38 0.73,0.64 1.25,1.48 1.9,1.91 0.65,0.43 1.44,0.46 2.99,-0.06 1.55,-0.51 3.86,-1.57 6.58,-3.29 2.72,-1.73 5.87,-4.13 9.01,-6.54z"/>
    <path class="fil2 str0" d="M698.19 2368.75c-5.51,-9.05 -11.02,-18.1 -16.53,-27.15 -2.8,1.52 -5.59,3.04 -7.92,4.38 -2.32,1.34 -4.18,2.5 -5.7,3.58 -1.52,1.08 -2.7,2.07 -3.18,3.08 -0.47,1 -0.23,2.01 -0,3.03 0.23,1.02 0.43,2.05 0.46,3.08 0.03,1.03 -0.12,2.06 -0.72,3.12 -0.6,1.07 -1.65,2.17 -2.9,2.67 -1.24,0.49 -2.68,0.37 -3.76,0.4 -1.08,0.03 -1.81,0.21 -2.69,0.83 -0.88,0.62 -1.91,1.67 -1.96,2.94 -0.05,1.27 0.87,2.76 1.82,4.37 0.95,1.61 1.91,3.33 3.19,5.04 1.27,1.72 2.86,3.44 4.1,4.05 1.24,0.61 2.13,0.13 2.83,-0.42 0.71,-0.55 1.23,-1.15 1.73,-1.87 0.5,-0.72 0.97,-1.57 1.55,-2.27 0.57,-0.71 1.25,-1.28 1.96,-1.72 0.71,-0.44 1.45,-0.75 2.23,-0.84 0.78,-0.1 1.6,0.02 2.47,0.31 0.87,0.29 1.8,0.74 2.52,1.38 0.73,0.64 1.25,1.48 1.9,1.91 0.65,0.43 1.44,0.46 2.99,-0.06 1.55,-0.51 3.86,-1.57 6.58,-3.29 2.72,-1.73 5.87,-4.13 9.01,-6.54z"/>
    <path class="fil2 str0" d="M654.74 2415.92c-5.7,-8.93 -11.4,-17.86 -17.11,-26.79 2.6,-1.84 5.19,-3.68 7.42,-5.18 2.23,-1.5 4.08,-2.66 5.72,-3.55 1.64,-0.89 3.05,-1.52 4.16,-1.5 1.11,0.02 1.91,0.68 2.72,1.33 0.82,0.65 1.65,1.29 2.56,1.77 0.91,0.48 1.9,0.8 3.12,0.73 1.22,-0.07 2.68,-0.53 3.67,-1.43 0.99,-0.9 1.51,-2.24 2.02,-3.2 0.5,-0.96 0.99,-1.53 1.93,-2.05 0.94,-0.52 2.34,-0.98 3.51,-0.47 1.17,0.51 2.1,2.01 3.12,3.56 1.02,1.56 2.14,3.18 3.13,5.08 0.98,1.9 1.83,4.08 1.83,5.46 0.01,1.38 -0.82,1.96 -1.62,2.36 -0.8,0.39 -1.58,0.6 -2.45,0.73 -0.87,0.13 -1.84,0.18 -2.72,0.39 -0.89,0.2 -1.7,0.56 -2.4,1 -0.71,0.44 -1.31,0.97 -1.74,1.63 -0.43,0.66 -0.68,1.44 -0.8,2.35 -0.13,0.91 -0.13,1.94 0.13,2.88 0.26,0.93 0.78,1.77 0.88,2.55 0.1,0.78 -0.23,1.49 -1.37,2.66 -1.14,1.16 -3.11,2.77 -5.86,4.46 -2.75,1.69 -6.29,3.45 -9.84,5.21z"/>
    <path class="fil2 str0" d="M673.08 2444.71c-5.7,-8.93 -11.4,-17.86 -17.11,-26.79 2.6,-1.84 5.19,-3.68 7.42,-5.18 2.23,-1.5 4.08,-2.66 5.72,-3.55 1.64,-0.89 3.05,-1.52 4.16,-1.5 1.11,0.02 1.91,0.68 2.73,1.33 0.82,0.65 1.65,1.29 2.56,1.77 0.91,0.48 1.9,0.8 3.12,0.73 1.22,-0.07 2.68,-0.53 3.67,-1.42 0.99,-0.9 1.51,-2.24 2.02,-3.2 0.5,-0.96 0.99,-1.53 1.93,-2.05 0.94,-0.52 2.34,-0.98 3.51,-0.47 1.17,0.51 2.09,2 3.12,3.56 1.02,1.56 2.14,3.18 3.13,5.08 0.98,1.9 1.83,4.08 1.83,5.47 0.01,1.38 -0.82,1.96 -1.62,2.36 -0.8,0.39 -1.58,0.6 -2.45,0.73 -0.87,0.13 -1.84,0.18 -2.72,0.39 -0.89,0.2 -1.7,0.56 -2.41,1 -0.71,0.44 -1.31,0.97 -1.74,1.63 -0.43,0.66 -0.68,1.44 -0.81,2.35 -0.13,0.91 -0.13,1.94 0.13,2.88 0.26,0.94 0.78,1.77 0.88,2.55 0.1,0.78 -0.23,1.5 -1.37,2.66 -1.14,1.17 -3.11,2.78 -5.86,4.46 -2.75,1.69 -6.29,3.45 -9.84,5.21z"/>
    <path class="fil2 str0" d="M624.24 2250.67c-5.53,-9.08 -11.06,-18.16 -16.59,-27.24 -2.8,1.53 -5.61,3.05 -7.94,4.4 -2.33,1.34 -4.2,2.51 -5.72,3.59 -1.52,1.08 -2.71,2.08 -3.18,3.09 -0.47,1.01 -0.23,2.02 -0.01,3.04 0.23,1.02 0.43,2.06 0.47,3.09 0.03,1.03 -0.12,2.06 -0.72,3.14 -0.6,1.07 -1.66,2.18 -2.9,2.67 -1.25,0.5 -2.69,0.37 -3.77,0.4 -1.08,0.03 -1.81,0.21 -2.7,0.83 -0.88,0.62 -1.92,1.68 -1.97,2.95 -0.05,1.28 0.88,2.77 1.83,4.38 0.95,1.61 1.92,3.34 3.2,5.06 1.28,1.72 2.87,3.45 4.11,4.07 1.24,0.61 2.13,0.12 2.84,-0.42 0.71,-0.55 1.24,-1.15 1.74,-1.88 0.5,-0.73 0.97,-1.57 1.55,-2.28 0.58,-0.71 1.25,-1.28 1.96,-1.73 0.71,-0.44 1.46,-0.75 2.24,-0.85 0.78,-0.09 1.6,0.03 2.47,0.31 0.87,0.29 1.81,0.74 2.53,1.39 0.73,0.65 1.25,1.48 1.91,1.92 0.66,0.43 1.45,0.46 3,-0.06 1.55,-0.52 3.87,-1.57 6.61,-3.31 2.73,-1.73 5.89,-4.15 9.04,-6.56z"/>
    <path class="fil2 str0" d="M606.78 2220.81c-5.53,-9.08 -11.06,-18.16 -16.59,-27.24 -2.8,1.53 -5.61,3.05 -7.94,4.4 -2.33,1.34 -4.2,2.51 -5.72,3.59 -1.53,1.08 -2.72,2.08 -3.19,3.09 -0.47,1.01 -0.23,2.02 -0,3.04 0.23,1.02 0.43,2.06 0.46,3.09 0.03,1.03 -0.12,2.06 -0.72,3.14 -0.6,1.07 -1.66,2.18 -2.9,2.68 -1.25,0.49 -2.69,0.37 -3.77,0.4 -1.08,0.03 -1.81,0.21 -2.69,0.83 -0.89,0.62 -1.92,1.68 -1.97,2.95 -0.05,1.28 0.88,2.77 1.83,4.38 0.95,1.61 1.92,3.34 3.2,5.06 1.28,1.72 2.87,3.45 4.11,4.07 1.24,0.61 2.13,0.12 2.84,-0.42 0.71,-0.55 1.24,-1.16 1.74,-1.88 0.5,-0.73 0.98,-1.57 1.55,-2.28 0.57,-0.71 1.25,-1.28 1.96,-1.73 0.71,-0.44 1.45,-0.75 2.24,-0.85 0.78,-0.09 1.6,0.03 2.47,0.31 0.87,0.29 1.81,0.74 2.53,1.39 0.73,0.65 1.25,1.48 1.91,1.92 0.65,0.43 1.45,0.46 3,-0.06 1.55,-0.52 3.87,-1.57 6.61,-3.31 2.74,-1.73 5.89,-4.15 9.04,-6.56z"/>
    <path class="fil2 str0" d="M588.19 2191.69c-5.53,-9.08 -11.06,-18.16 -16.59,-27.24 -2.8,1.53 -5.61,3.05 -7.94,4.4 -2.33,1.35 -4.2,2.51 -5.72,3.59 -1.52,1.08 -2.71,2.08 -3.19,3.09 -0.47,1.01 -0.23,2.02 -0,3.04 0.23,1.02 0.43,2.06 0.47,3.09 0.03,1.03 -0.12,2.06 -0.72,3.13 -0.6,1.07 -1.66,2.18 -2.9,2.68 -1.25,0.49 -2.69,0.37 -3.77,0.4 -1.08,0.03 -1.81,0.22 -2.7,0.84 -0.88,0.62 -1.92,1.68 -1.97,2.95 -0.05,1.27 0.88,2.77 1.83,4.38 0.95,1.61 1.92,3.34 3.2,5.06 1.28,1.72 2.87,3.45 4.11,4.06 1.24,0.62 2.13,0.13 2.84,-0.42 0.71,-0.55 1.24,-1.15 1.74,-1.88 0.5,-0.73 0.98,-1.57 1.55,-2.28 0.58,-0.71 1.25,-1.28 1.96,-1.72 0.71,-0.44 1.45,-0.75 2.24,-0.85 0.78,-0.1 1.6,0.03 2.48,0.31 0.87,0.29 1.81,0.74 2.53,1.39 0.73,0.64 1.25,1.48 1.91,1.91 0.66,0.43 1.45,0.46 3,-0.06 1.56,-0.52 3.87,-1.57 6.61,-3.31 2.73,-1.73 5.89,-4.15 9.04,-6.56z"/>
    <path class="fil2 str0" d="M544.6 2239.02c-5.72,-8.96 -11.45,-17.92 -17.17,-26.88 2.6,-1.85 5.21,-3.69 7.44,-5.2 2.23,-1.5 4.1,-2.67 5.74,-3.56 1.64,-0.89 3.06,-1.52 4.17,-1.5 1.11,0.02 1.91,0.68 2.73,1.34 0.82,0.65 1.66,1.3 2.57,1.78 0.92,0.48 1.91,0.8 3.13,0.73 1.23,-0.07 2.69,-0.53 3.68,-1.43 0.99,-0.9 1.52,-2.25 2.02,-3.21 0.51,-0.96 0.99,-1.53 1.94,-2.05 0.95,-0.52 2.35,-0.99 3.52,-0.47 1.17,0.52 2.1,2.01 3.13,3.57 1.03,1.56 2.15,3.19 3.14,5.1 0.99,1.91 1.83,4.1 1.84,5.48 0.01,1.39 -0.83,1.97 -1.63,2.36 -0.8,0.4 -1.58,0.6 -2.45,0.74 -0.87,0.13 -1.84,0.18 -2.73,0.39 -0.89,0.2 -1.7,0.56 -2.41,1 -0.71,0.45 -1.32,0.98 -1.75,1.63 -0.43,0.66 -0.68,1.45 -0.81,2.36 -0.13,0.91 -0.13,1.95 0.13,2.88 0.26,0.94 0.78,1.78 0.88,2.56 0.1,0.78 -0.23,1.5 -1.38,2.67 -1.15,1.17 -3.12,2.78 -5.88,4.48 -2.76,1.69 -6.32,3.46 -9.87,5.23z"/>
    <path class="fil2 str0" d="M563 2267.9c-5.72,-8.96 -11.45,-17.92 -17.17,-26.88 2.61,-1.85 5.21,-3.69 7.45,-5.2 2.23,-1.5 4.1,-2.67 5.74,-3.56 1.64,-0.9 3.06,-1.52 4.17,-1.5 1.11,0.02 1.91,0.68 2.73,1.34 0.82,0.65 1.66,1.29 2.57,1.78 0.92,0.48 1.91,0.8 3.13,0.73 1.23,-0.07 2.69,-0.53 3.68,-1.43 0.99,-0.9 1.52,-2.25 2.02,-3.21 0.51,-0.96 0.99,-1.53 1.94,-2.05 0.95,-0.52 2.35,-0.99 3.52,-0.47 1.17,0.51 2.1,2.01 3.13,3.57 1.03,1.56 2.15,3.19 3.14,5.1 0.99,1.91 1.83,4.1 1.84,5.48 0.01,1.39 -0.83,1.97 -1.63,2.37 -0.8,0.39 -1.58,0.6 -2.45,0.73 -0.87,0.13 -1.84,0.18 -2.73,0.39 -0.89,0.2 -1.7,0.56 -2.41,1.01 -0.71,0.44 -1.32,0.97 -1.75,1.63 -0.43,0.66 -0.68,1.45 -0.81,2.36 -0.13,0.91 -0.13,1.95 0.13,2.89 0.26,0.94 0.78,1.78 0.88,2.56 0.1,0.78 -0.23,1.5 -1.38,2.67 -1.15,1.17 -3.12,2.78 -5.88,4.48 -2.76,1.69 -6.32,3.46 -9.87,5.23z"/>
    <path class="fil2 str0" d="M636.01 2388.23c-5.7,-8.93 -11.4,-17.86 -17.11,-26.79 2.6,-1.84 5.19,-3.68 7.42,-5.18 2.23,-1.5 4.08,-2.66 5.72,-3.55 1.64,-0.89 3.05,-1.51 4.16,-1.5 1.11,0.02 1.91,0.68 2.72,1.33 0.82,0.65 1.65,1.29 2.56,1.77 0.91,0.48 1.9,0.8 3.12,0.73 1.22,-0.07 2.68,-0.53 3.67,-1.43 0.99,-0.9 1.51,-2.24 2.02,-3.2 0.5,-0.96 0.99,-1.53 1.93,-2.05 0.94,-0.52 2.34,-0.98 3.51,-0.47 1.17,0.51 2.1,2 3.12,3.56 1.02,1.56 2.14,3.18 3.13,5.08 0.98,1.9 1.83,4.08 1.83,5.46 0.01,1.38 -0.82,1.96 -1.62,2.36 -0.8,0.39 -1.58,0.6 -2.45,0.73 -0.87,0.13 -1.84,0.18 -2.72,0.39 -0.89,0.2 -1.7,0.56 -2.4,1 -0.71,0.44 -1.31,0.97 -1.74,1.63 -0.43,0.66 -0.68,1.44 -0.8,2.35 -0.13,0.91 -0.13,1.94 0.13,2.88 0.26,0.93 0.78,1.77 0.88,2.55 0.1,0.78 -0.23,1.5 -1.37,2.66 -1.14,1.17 -3.11,2.77 -5.86,4.46 -2.75,1.69 -6.29,3.45 -9.84,5.21z"/>
    <path class="fil2 str0" d="M580.63 2298.15c-5.72,-8.96 -11.45,-17.92 -17.17,-26.88 2.6,-1.85 5.21,-3.69 7.44,-5.2 2.23,-1.5 4.1,-2.67 5.74,-3.56 1.64,-0.9 3.06,-1.52 4.17,-1.5 1.11,0.02 1.91,0.68 2.73,1.34 0.82,0.65 1.66,1.29 2.57,1.78 0.92,0.48 1.91,0.8 3.13,0.73 1.23,-0.07 2.69,-0.53 3.68,-1.43 0.99,-0.9 1.52,-2.25 2.02,-3.21 0.51,-0.96 0.99,-1.53 1.94,-2.05 0.95,-0.52 2.35,-0.99 3.52,-0.47 1.17,0.51 2.1,2.01 3.13,3.57 1.03,1.56 2.15,3.19 3.14,5.1 0.99,1.91 1.83,4.1 1.84,5.48 0.01,1.39 -0.83,1.97 -1.63,2.37 -0.8,0.39 -1.58,0.6 -2.45,0.73 -0.87,0.13 -1.84,0.18 -2.73,0.39 -0.89,0.2 -1.7,0.56 -2.41,1.01 -0.71,0.44 -1.32,0.97 -1.75,1.63 -0.43,0.66 -0.68,1.45 -0.81,2.36 -0.13,0.91 -0.13,1.95 0.13,2.89 0.26,0.94 0.78,1.78 0.88,2.55 0.1,0.78 -0.23,1.5 -1.38,2.67 -1.15,1.17 -3.12,2.78 -5.88,4.48 -2.76,1.69 -6.32,3.46 -9.87,5.23z"/>
    <path class="fil2 str0" d="M616.52 2357.64c-5.72,-8.96 -11.45,-17.92 -17.17,-26.88 2.6,-1.85 5.21,-3.69 7.44,-5.2 2.23,-1.5 4.1,-2.67 5.74,-3.56 1.64,-0.9 3.06,-1.52 4.17,-1.5 1.11,0.02 1.91,0.68 2.73,1.34 0.82,0.65 1.66,1.29 2.57,1.78 0.92,0.48 1.91,0.8 3.13,0.73 1.23,-0.07 2.69,-0.53 3.68,-1.43 0.99,-0.9 1.52,-2.25 2.02,-3.21 0.51,-0.96 0.99,-1.53 1.94,-2.05 0.95,-0.52 2.35,-0.99 3.52,-0.47 1.17,0.51 2.1,2.01 3.13,3.57 1.03,1.56 2.15,3.19 3.14,5.1 0.99,1.91 1.83,4.1 1.84,5.48 0.01,1.39 -0.83,1.97 -1.63,2.37 -0.8,0.39 -1.58,0.6 -2.45,0.73 -0.87,0.13 -1.84,0.18 -2.73,0.39 -0.89,0.2 -1.7,0.56 -2.41,1.01 -0.71,0.44 -1.32,0.97 -1.75,1.63 -0.43,0.66 -0.68,1.45 -0.81,2.36 -0.13,0.91 -0.13,1.95 0.13,2.89 0.26,0.94 0.78,1.78 0.88,2.55 0.1,0.78 -0.23,1.5 -1.38,2.67 -1.15,1.17 -3.12,2.78 -5.88,4.48 -2.76,1.69 -6.32,3.46 -9.87,5.23z"/>
    <path class="fil2 str0" d="M599.52 2327.35c-5.72,-8.96 -11.45,-17.92 -17.17,-26.88 2.6,-1.85 5.21,-3.69 7.44,-5.2 2.23,-1.5 4.1,-2.67 5.74,-3.56 1.64,-0.9 3.06,-1.52 4.17,-1.5 1.11,0.02 1.91,0.68 2.73,1.34 0.82,0.65 1.66,1.29 2.57,1.78 0.92,0.48 1.91,0.8 3.13,0.73 1.23,-0.07 2.69,-0.53 3.68,-1.43 0.99,-0.9 1.52,-2.25 2.02,-3.21 0.5,-0.96 0.99,-1.53 1.93,-2.05 0.95,-0.52 2.35,-0.99 3.52,-0.47 1.17,0.51 2.1,2.01 3.13,3.57 1.03,1.56 2.15,3.19 3.14,5.1 0.99,1.91 1.83,4.1 1.84,5.48 0.01,1.39 -0.83,1.97 -1.63,2.37 -0.8,0.39 -1.58,0.6 -2.45,0.73 -0.87,0.13 -1.84,0.18 -2.73,0.39 -0.89,0.2 -1.7,0.56 -2.41,1 -0.71,0.45 -1.32,0.98 -1.75,1.64 -0.43,0.66 -0.68,1.45 -0.81,2.36 -0.13,0.91 -0.13,1.95 0.13,2.89 0.26,0.94 0.78,1.78 0.88,2.55 0.1,0.78 -0.23,1.5 -1.38,2.67 -1.15,1.17 -3.12,2.78 -5.88,4.48 -2.76,1.69 -6.32,3.46 -9.87,5.23z"/>
    <ellipse class="fil1 str0" transform="matrix(-0.104578 0.0652153 -0.0652153 -0.104578 725.28 2425.4)" rx="18.73" ry="19.4"/>
    <ellipse class="fil1 str0" transform="matrix(-0.104578 0.0652153 -0.0652153 -0.104578 727.239 2424.18)" rx="18.73" ry="19.4"/>
    <ellipse class="fil1 str0" transform="matrix(-0.108395 0.0675954 -0.0675954 -0.108395 496.669 2133.93)" rx="0.33" ry="1"/>
    <path class="fil1 str0" d="M529.16 2130.03c0.63,-0.8 1.26,-1.59 1.66,-2.45 0.4,-0.85 0.57,-1.77 -0.82,-4.76 -1.4,-2.99 -4.36,-8.06 -9.35,-16.13 -5,-8.07 -12.03,-19.12 -15.91,-25.13 -3.88,-6.01 -4.61,-6.96 -5.41,-7.6 -0.8,-0.63 -1.66,-0.95 -2.42,-1.04 -0.76,-0.1 -1.43,0.03 -6.18,2.92 -4.75,2.88 -13.59,8.53 -18.19,11.6 -4.6,3.07 -4.96,3.57 -5.27,4.26 -0.31,0.7 -0.55,1.59 -0.19,2.87 0.36,1.28 1.34,2.96 3.56,6.57 2.22,3.62 5.69,9.18 9.41,15.09 3.72,5.91 7.68,12.16 10.63,17.04 2.94,4.88 4.86,8.39 6.31,10.5 1.45,2.11 2.44,2.84 3.41,3.15 0.96,0.31 1.9,0.19 2.58,0 0.68,-0.19 1.11,-0.46 1.53,-0.72 -4.03,-6.35 -8.06,-12.7 -11.12,-17.71 -3.06,-5.01 -5.14,-8.68 -6.24,-11.01 -1.09,-2.33 -1.2,-3.32 -1.28,-4.42 -0.08,-1.11 -0.15,-2.32 0.41,-3.47 0.56,-1.15 1.74,-2.22 3.72,-3.72 1.98,-1.5 4.77,-3.43 6.85,-4.85 2.08,-1.42 3.46,-2.32 4.81,-2.8 1.35,-0.48 2.68,-0.54 4.17,-0.09 1.49,0.45 3.15,1.4 4.59,2.84 1.43,1.44 2.64,3.38 4.19,5.87 1.55,2.49 3.44,5.54 5.33,8.63 1.88,3.09 3.75,6.22 5.29,8.65 1.53,2.43 2.73,4.17 3.93,5.91z"/>
    <ellipse class="fil1 str0" transform="matrix(-0.108395 0.0675954 -0.0675954 -0.108395 496.669 2133.93)" rx="0.33" ry="1"/>
    <path class="fil1 str0" d="M529.16 2130.03c0.63,-0.8 1.26,-1.59 1.66,-2.45 0.4,-0.85 0.57,-1.77 -0.82,-4.76 -1.4,-2.99 -4.36,-8.06 -9.35,-16.13 -5,-8.07 -12.03,-19.12 -15.91,-25.13 -3.88,-6.01 -4.61,-6.96 -5.41,-7.6 -0.8,-0.63 -1.66,-0.95 -2.42,-1.04 -0.76,-0.1 -1.43,0.03 -6.18,2.92 -4.75,2.88 -13.59,8.53 -18.19,11.6 -4.6,3.07 -4.96,3.57 -5.27,4.26 -0.31,0.7 -0.55,1.59 -0.19,2.87 0.36,1.28 1.34,2.96 3.56,6.57 2.22,3.62 5.69,9.18 9.41,15.09 3.72,5.91 7.68,12.16 10.63,17.04 2.94,4.88 4.86,8.39 6.31,10.5 1.45,2.11 2.44,2.84 3.41,3.15 0.96,0.31 1.9,0.19 2.58,0 0.68,-0.19 1.11,-0.46 1.53,-0.72 -4.03,-6.35 -8.06,-12.7 -11.12,-17.71 -3.06,-5.01 -5.14,-8.68 -6.24,-11.01 -1.09,-2.33 -1.2,-3.32 -1.28,-4.42 -0.08,-1.11 -0.15,-2.32 0.41,-3.47 0.56,-1.15 1.74,-2.22 3.72,-3.72 1.98,-1.5 4.77,-3.43 6.85,-4.85 2.08,-1.42 3.46,-2.32 4.81,-2.8 1.35,-0.48 2.68,-0.54 4.17,-0.09 1.49,0.45 3.15,1.4 4.59,2.84 1.43,1.44 2.64,3.38 4.19,5.87 1.55,2.49 3.44,5.54 5.33,8.63 1.88,3.09 3.75,6.22 5.29,8.65 1.53,2.43 2.73,4.17 3.93,5.91z"/>
    <ellipse class="fil1 str0" transform="matrix(-0.108395 0.0675954 -0.0675954 -0.108395 496.669 2133.93)" rx="0.33" ry="1"/>
    <path class="fil1 str0" d="M529.16 2130.03c0.63,-0.8 1.26,-1.59 1.66,-2.45 0.4,-0.85 0.57,-1.77 -0.82,-4.76 -1.4,-2.99 -4.36,-8.06 -9.35,-16.13 -5,-8.07 -12.03,-19.12 -15.91,-25.13 -3.88,-6.01 -4.61,-6.96 -5.41,-7.6 -0.8,-0.63 -1.66,-0.95 -2.42,-1.04 -0.76,-0.1 -1.43,0.03 -6.18,2.92 -4.75,2.88 -13.59,8.53 -18.19,11.6 -4.6,3.07 -4.96,3.57 -5.27,4.26 -0.31,0.7 -0.55,1.59 -0.19,2.87 0.36,1.28 1.34,2.96 3.56,6.57 2.22,3.62 5.69,9.18 9.41,15.09 3.72,5.91 7.68,12.16 10.63,17.04 2.94,4.88 4.86,8.39 6.31,10.5 1.45,2.11 2.44,2.84 3.41,3.15 0.96,0.31 1.9,0.19 2.58,0 0.68,-0.19 1.11,-0.46 1.53,-0.72 -4.03,-6.35 -8.06,-12.7 -11.12,-17.71 -3.06,-5.01 -5.14,-8.68 -6.24,-11.01 -1.09,-2.33 -1.2,-3.32 -1.28,-4.42 -0.08,-1.11 -0.15,-2.32 0.41,-3.47 0.56,-1.15 1.74,-2.22 3.72,-3.72 1.98,-1.5 4.77,-3.43 6.85,-4.85 2.08,-1.42 3.46,-2.32 4.81,-2.8 1.35,-0.48 2.68,-0.54 4.17,-0.09 1.49,0.45 3.15,1.4 4.59,2.84 1.43,1.44 2.64,3.38 4.19,5.87 1.55,2.49 3.44,5.54 5.33,8.63 1.88,3.09 3.75,6.22 5.29,8.65 1.53,2.43 2.73,4.17 3.93,5.91z"/>
    <ellipse class="fil1 str0" transform="matrix(-0.108395 0.0675954 -0.0675954 -0.108395 562.066 2160.73)" rx="19.07" ry="20.07"/>
    <ellipse class="fil1 str0" transform="matrix(-0.108395 0.0675954 -0.0675954 -0.108395 496.669 2133.93)" rx="0.33" ry="1"/>
    <path class="fil1 str0" d="M529.16 2130.03c0.63,-0.8 1.26,-1.59 1.66,-2.45 0.4,-0.85 0.57,-1.77 -0.82,-4.76 -1.4,-2.99 -4.36,-8.06 -9.35,-16.13 -5,-8.07 -12.03,-19.12 -15.91,-25.13 -3.88,-6.01 -4.61,-6.96 -5.41,-7.6 -0.8,-0.63 -1.66,-0.95 -2.42,-1.04 -0.76,-0.1 -1.43,0.03 -6.18,2.92 -4.75,2.88 -13.59,8.53 -18.19,11.6 -4.6,3.07 -4.96,3.57 -5.27,4.26 -0.31,0.7 -0.55,1.59 -0.19,2.87 0.36,1.28 1.34,2.96 3.56,6.57 2.22,3.62 5.69,9.18 9.41,15.09 3.72,5.91 7.68,12.16 10.63,17.04 2.94,4.88 4.86,8.39 6.31,10.5 1.45,2.11 2.44,2.84 3.41,3.15 0.96,0.31 1.9,0.19 2.58,0 0.68,-0.19 1.11,-0.46 1.53,-0.72 -4.03,-6.35 -8.06,-12.7 -11.12,-17.71 -3.06,-5.01 -5.14,-8.68 -6.51,-11.28 -1.37,-2.6 -2.03,-4.14 -2.11,-5.24 -0.08,-1.11 0.41,-1.78 1.24,-2.65 0.84,-0.87 2.02,-1.94 4,-3.45 1.98,-1.5 4.77,-3.43 6.87,-4.81 2.11,-1.37 3.54,-2.18 5.12,-2.86 1.58,-0.68 3.3,-1.22 4.76,-0.82 1.46,0.4 2.67,1.74 3.88,3.38 1.21,1.64 2.41,3.57 3.97,6.06 1.55,2.49 3.44,5.54 5.33,8.63 1.88,3.09 3.75,6.22 5.29,8.65 1.53,2.43 2.73,4.17 3.93,5.91z"/>
    <path class="fil2 str0" d="M513.33 2073.06c-5.58,-9.16 -11.15,-18.32 -16.73,-27.47 -2.83,1.54 -5.66,3.08 -8.01,4.44 -2.35,1.36 -4.23,2.53 -5.77,3.62 -1.54,1.09 -2.74,2.1 -3.21,3.11 -0.48,1.01 -0.23,2.04 -0,3.07 0.23,1.03 0.44,2.08 0.47,3.12 0.03,1.04 -0.12,2.08 -0.73,3.16 -0.61,1.08 -1.67,2.2 -2.93,2.7 -1.26,0.5 -2.71,0.37 -3.8,0.41 -1.09,0.03 -1.83,0.22 -2.72,0.84 -0.89,0.63 -1.94,1.69 -1.99,2.98 -0.05,1.29 0.89,2.79 1.85,4.42 0.96,1.62 1.93,3.36 3.22,5.1 1.29,1.74 2.9,3.48 4.15,4.1 1.25,0.62 2.15,0.13 2.87,-0.42 0.72,-0.55 1.25,-1.17 1.75,-1.9 0.51,-0.73 0.99,-1.59 1.57,-2.3 0.58,-0.72 1.26,-1.29 1.98,-1.74 0.72,-0.45 1.47,-0.76 2.26,-0.85 0.79,-0.1 1.61,0.02 2.5,0.31 0.88,0.29 1.82,0.75 2.55,1.4 0.73,0.65 1.26,1.5 1.92,1.93 0.66,0.43 1.46,0.46 3.03,-0.06 1.57,-0.52 3.9,-1.59 6.66,-3.34 2.76,-1.75 5.94,-4.18 9.12,-6.62z"/>
    <path class="fil2 str0" d="M495.71 2042.94c-5.58,-9.16 -11.15,-18.32 -16.73,-27.47 -2.83,1.54 -5.66,3.08 -8.01,4.44 -2.35,1.36 -4.23,2.53 -5.77,3.62 -1.54,1.09 -2.74,2.1 -3.21,3.11 -0.48,1.01 -0.23,2.04 -0,3.07 0.23,1.03 0.44,2.08 0.47,3.12 0.03,1.04 -0.12,2.08 -0.73,3.16 -0.61,1.08 -1.67,2.2 -2.93,2.7 -1.26,0.5 -2.71,0.37 -3.8,0.41 -1.09,0.03 -1.83,0.22 -2.72,0.84 -0.89,0.62 -1.94,1.69 -1.99,2.98 -0.05,1.29 0.89,2.79 1.85,4.42 0.96,1.62 1.93,3.36 3.22,5.1 1.29,1.74 2.9,3.48 4.15,4.1 1.25,0.62 2.15,0.13 2.87,-0.42 0.72,-0.55 1.25,-1.17 1.75,-1.9 0.51,-0.73 0.99,-1.59 1.57,-2.3 0.58,-0.72 1.27,-1.29 1.98,-1.74 0.72,-0.45 1.47,-0.76 2.26,-0.85 0.79,-0.1 1.61,0.02 2.5,0.31 0.88,0.29 1.82,0.75 2.55,1.4 0.73,0.65 1.26,1.5 1.92,1.93 0.66,0.43 1.46,0.46 3.03,-0.06 1.57,-0.52 3.9,-1.59 6.66,-3.34 2.76,-1.75 5.94,-4.19 9.12,-6.62z"/>
    <path class="fil2 str0" d="M477.15 2013.44c-5.6,-9.19 -11.19,-18.38 -16.79,-27.57 -2.84,1.55 -5.67,3.09 -8.04,4.45 -2.36,1.36 -4.25,2.54 -5.79,3.63 -1.54,1.09 -2.75,2.11 -3.22,3.12 -0.48,1.02 -0.23,2.04 -0,3.08 0.23,1.03 0.44,2.08 0.47,3.13 0.03,1.04 -0.12,2.09 -0.73,3.17 -0.61,1.08 -1.68,2.21 -2.94,2.71 -1.26,0.5 -2.72,0.37 -3.82,0.41 -1.1,0.03 -1.83,0.22 -2.73,0.84 -0.9,0.63 -1.94,1.7 -2,2.99 -0.05,1.29 0.89,2.8 1.85,4.44 0.96,1.63 1.94,3.37 3.24,5.12 1.29,1.74 2.91,3.49 4.16,4.11 1.26,0.62 2.16,0.13 2.88,-0.43 0.72,-0.55 1.25,-1.17 1.76,-1.9 0.51,-0.74 0.99,-1.59 1.57,-2.31 0.58,-0.72 1.27,-1.3 1.99,-1.75 0.72,-0.45 1.47,-0.76 2.26,-0.86 0.79,-0.1 1.62,0.03 2.51,0.32 0.89,0.29 1.83,0.75 2.56,1.41 0.74,0.65 1.26,1.5 1.93,1.94 0.67,0.43 1.46,0.46 3.04,-0.06 1.57,-0.52 3.92,-1.59 6.69,-3.35 2.77,-1.75 5.96,-4.2 9.15,-6.64z"/>
    <path class="fil2 str0" d="M433.04 2061.34c-5.79,-9.07 -11.58,-18.14 -17.37,-27.2 2.64,-1.87 5.27,-3.73 7.54,-5.26 2.26,-1.52 4.14,-2.7 5.81,-3.6 1.66,-0.91 3.1,-1.54 4.22,-1.52 1.13,0.02 1.94,0.69 2.77,1.35 0.83,0.66 1.68,1.31 2.6,1.8 0.93,0.49 1.93,0.81 3.17,0.74 1.24,-0.07 2.72,-0.53 3.72,-1.45 1,-0.92 1.53,-2.28 2.05,-3.25 0.51,-0.97 1,-1.55 1.96,-2.08 0.96,-0.53 2.38,-1 3.56,-0.48 1.18,0.52 2.13,2.04 3.17,3.62 1.04,1.58 2.18,3.23 3.17,5.16 1,1.93 1.86,4.15 1.86,5.55 0.01,1.4 -0.83,2 -1.65,2.39 -0.81,0.4 -1.6,0.61 -2.48,0.74 -0.88,0.13 -1.86,0.19 -2.76,0.39 -0.9,0.21 -1.72,0.57 -2.44,1.02 -0.72,0.45 -1.33,0.99 -1.77,1.65 -0.43,0.67 -0.69,1.46 -0.82,2.39 -0.13,0.92 -0.13,1.97 0.14,2.92 0.26,0.95 0.79,1.8 0.89,2.58 0.1,0.79 -0.23,1.52 -1.39,2.7 -1.16,1.18 -3.15,2.82 -5.95,4.53 -2.79,1.71 -6.39,3.5 -9.99,5.3z"/>
    <path class="fil2 str0" d="M570.01 2161.98c-5.58,-9.16 -11.15,-18.32 -16.73,-27.48 -2.83,1.54 -5.66,3.08 -8.01,4.44 -2.35,1.36 -4.23,2.53 -5.77,3.62 -1.54,1.09 -2.74,2.1 -3.21,3.11 -0.48,1.02 -0.23,2.04 -0,3.07 0.23,1.03 0.44,2.08 0.47,3.12 0.03,1.04 -0.12,2.08 -0.73,3.16 -0.61,1.08 -1.67,2.2 -2.93,2.7 -1.26,0.5 -2.71,0.37 -3.8,0.4 -1.09,0.03 -1.83,0.22 -2.72,0.84 -0.89,0.62 -1.94,1.69 -1.99,2.98 -0.05,1.29 0.89,2.8 1.85,4.42 0.96,1.62 1.93,3.37 3.23,5.1 1.29,1.74 2.9,3.48 4.15,4.1 1.25,0.62 2.15,0.13 2.87,-0.43 0.72,-0.55 1.25,-1.16 1.75,-1.9 0.51,-0.73 0.98,-1.59 1.57,-2.3 0.58,-0.72 1.26,-1.29 1.98,-1.74 0.72,-0.45 1.47,-0.76 2.25,-0.86 0.79,-0.1 1.62,0.03 2.5,0.32 0.88,0.29 1.82,0.75 2.55,1.4 0.73,0.65 1.26,1.5 1.92,1.93 0.66,0.43 1.46,0.46 3.03,-0.06 1.57,-0.52 3.9,-1.59 6.66,-3.34 2.76,-1.75 5.94,-4.18 9.12,-6.62z"/>
    <path class="fil2 str0" d="M551.63 2132.6c-5.58,-9.16 -11.15,-18.32 -16.73,-27.48 -2.83,1.54 -5.66,3.08 -8.01,4.44 -2.35,1.36 -4.23,2.53 -5.77,3.62 -1.54,1.09 -2.74,2.1 -3.21,3.11 -0.48,1.01 -0.23,2.04 -0,3.07 0.23,1.03 0.44,2.07 0.47,3.12 0.03,1.04 -0.12,2.08 -0.73,3.16 -0.61,1.08 -1.67,2.2 -2.93,2.7 -1.26,0.5 -2.71,0.38 -3.8,0.41 -1.09,0.03 -1.83,0.22 -2.72,0.84 -0.89,0.63 -1.94,1.69 -1.99,2.98 -0.05,1.29 0.89,2.8 1.85,4.42 0.96,1.62 1.93,3.36 3.23,5.1 1.29,1.74 2.9,3.48 4.15,4.1 1.25,0.62 2.15,0.13 2.87,-0.42 0.72,-0.55 1.25,-1.16 1.75,-1.9 0.51,-0.73 0.98,-1.59 1.57,-2.3 0.58,-0.72 1.26,-1.29 1.98,-1.74 0.72,-0.45 1.47,-0.76 2.26,-0.86 0.79,-0.1 1.61,0.03 2.5,0.31 0.88,0.29 1.82,0.75 2.55,1.4 0.73,0.65 1.26,1.5 1.92,1.93 0.66,0.43 1.46,0.46 3.03,-0.06 1.57,-0.52 3.9,-1.59 6.66,-3.34 2.76,-1.75 5.94,-4.18 9.12,-6.62z"/>
    <path class="fil2 str0" d="M532.88 2103.23c-5.58,-9.16 -11.15,-18.32 -16.73,-27.47 -2.83,1.54 -5.66,3.08 -8.01,4.44 -2.35,1.36 -4.23,2.53 -5.77,3.62 -1.54,1.09 -2.74,2.1 -3.21,3.11 -0.48,1.01 -0.23,2.04 -0,3.07 0.23,1.03 0.44,2.08 0.47,3.12 0.03,1.04 -0.12,2.08 -0.73,3.16 -0.61,1.08 -1.67,2.2 -2.93,2.7 -1.26,0.5 -2.71,0.37 -3.8,0.41 -1.09,0.03 -1.83,0.22 -2.72,0.84 -0.89,0.63 -1.94,1.69 -1.99,2.98 -0.05,1.29 0.89,2.79 1.85,4.42 0.96,1.62 1.94,3.36 3.23,5.1 1.29,1.74 2.9,3.48 4.15,4.1 1.25,0.62 2.15,0.13 2.87,-0.42 0.72,-0.55 1.25,-1.17 1.75,-1.9 0.51,-0.73 0.98,-1.59 1.57,-2.3 0.58,-0.72 1.26,-1.29 1.98,-1.74 0.72,-0.45 1.47,-0.76 2.26,-0.86 0.79,-0.1 1.61,0.03 2.5,0.31 0.88,0.29 1.82,0.75 2.55,1.4 0.73,0.65 1.26,1.5 1.92,1.93 0.66,0.43 1.46,0.46 3.03,-0.06 1.57,-0.52 3.9,-1.59 6.66,-3.34 2.76,-1.75 5.94,-4.18 9.12,-6.62z"/>
    <path class="fil2 str0" d="M488.91 2150.96c-5.77,-9.04 -11.54,-18.07 -17.31,-27.11 2.63,-1.86 5.25,-3.72 7.51,-5.24 2.25,-1.52 4.13,-2.69 5.79,-3.59 1.66,-0.9 3.09,-1.53 4.21,-1.51 1.12,0.02 1.93,0.69 2.76,1.35 0.83,0.66 1.67,1.3 2.59,1.79 0.92,0.49 1.92,0.81 3.16,0.74 1.24,-0.07 2.71,-0.53 3.71,-1.44 1,-0.91 1.53,-2.27 2.04,-3.24 0.51,-0.97 1,-1.55 1.95,-2.07 0.96,-0.52 2.37,-0.99 3.55,-0.48 1.18,0.52 2.12,2.03 3.16,3.6 1.04,1.58 2.17,3.22 3.17,5.14 0.99,1.92 1.85,4.13 1.85,5.53 0.01,1.4 -0.83,1.99 -1.64,2.39 -0.81,0.4 -1.59,0.61 -2.47,0.74 -0.88,0.13 -1.86,0.18 -2.76,0.39 -0.9,0.21 -1.72,0.57 -2.44,1.01 -0.72,0.45 -1.33,0.98 -1.76,1.65 -0.43,0.67 -0.69,1.46 -0.82,2.38 -0.13,0.92 -0.13,1.96 0.13,2.91 0.26,0.94 0.79,1.79 0.89,2.58 0.1,0.79 -0.23,1.51 -1.39,2.69 -1.16,1.18 -3.14,2.81 -5.93,4.52 -2.78,1.71 -6.37,3.49 -9.95,5.27z"/>
    <path class="fil2 str0" d="M507.47 2180.1c-5.77,-9.04 -11.54,-18.08 -17.31,-27.11 2.63,-1.86 5.25,-3.72 7.51,-5.24 2.25,-1.52 4.13,-2.69 5.79,-3.59 1.66,-0.9 3.09,-1.53 4.21,-1.51 1.12,0.02 1.93,0.69 2.76,1.35 0.83,0.66 1.67,1.31 2.59,1.79 0.92,0.49 1.92,0.81 3.16,0.74 1.24,-0.07 2.71,-0.53 3.71,-1.44 1,-0.91 1.53,-2.27 2.04,-3.24 0.51,-0.97 1,-1.55 1.95,-2.07 0.95,-0.52 2.37,-1 3.55,-0.48 1.18,0.52 2.12,2.03 3.16,3.6 1.04,1.58 2.17,3.22 3.16,5.14 0.99,1.92 1.85,4.13 1.86,5.53 0.01,1.4 -0.83,1.99 -1.64,2.39 -0.81,0.4 -1.6,0.61 -2.48,0.74 -0.88,0.13 -1.86,0.19 -2.76,0.39 -0.9,0.21 -1.72,0.57 -2.43,1.01 -0.72,0.45 -1.33,0.98 -1.76,1.65 -0.43,0.67 -0.69,1.46 -0.82,2.38 -0.13,0.92 -0.13,1.96 0.14,2.91 0.26,0.95 0.79,1.79 0.89,2.58 0.1,0.79 -0.23,1.51 -1.39,2.69 -1.16,1.18 -3.14,2.81 -5.93,4.51 -2.79,1.71 -6.37,3.49 -9.96,5.28z"/>
    <path class="fil2 str0" d="M458.05 1983.75c-5.6,-9.19 -11.19,-18.38 -16.79,-27.57 -2.84,1.55 -5.67,3.09 -8.04,4.45 -2.36,1.36 -4.25,2.54 -5.79,3.63 -1.54,1.09 -2.75,2.1 -3.22,3.12 -0.48,1.02 -0.23,2.04 -0,3.08 0.23,1.04 0.44,2.08 0.47,3.13 0.03,1.04 -0.12,2.09 -0.73,3.17 -0.61,1.08 -1.68,2.21 -2.94,2.71 -1.26,0.5 -2.72,0.38 -3.82,0.41 -1.1,0.03 -1.83,0.22 -2.73,0.85 -0.89,0.63 -1.94,1.7 -2,2.99 -0.05,1.29 0.89,2.8 1.85,4.44 0.96,1.63 1.94,3.38 3.24,5.12 1.29,1.74 2.91,3.49 4.16,4.11 1.26,0.62 2.16,0.13 2.88,-0.43 0.72,-0.56 1.25,-1.17 1.76,-1.9 0.51,-0.73 0.99,-1.59 1.57,-2.31 0.58,-0.72 1.27,-1.3 1.99,-1.75 0.72,-0.45 1.47,-0.76 2.26,-0.86 0.79,-0.1 1.62,0.02 2.51,0.32 0.89,0.29 1.83,0.75 2.56,1.4 0.74,0.65 1.26,1.5 1.93,1.94 0.67,0.44 1.46,0.46 3.04,-0.06 1.57,-0.52 3.92,-1.59 6.69,-3.35 2.77,-1.75 5.96,-4.2 9.15,-6.64z"/>
    <path class="fil2 str0" d="M440.38 1953.52c-5.59,-9.19 -11.19,-18.38 -16.78,-27.57 -2.84,1.55 -5.67,3.09 -8.04,4.45 -2.36,1.36 -4.25,2.54 -5.79,3.63 -1.55,1.09 -2.75,2.1 -3.22,3.12 -0.48,1.02 -0.23,2.04 -0,3.08 0.23,1.04 0.44,2.08 0.47,3.13 0.03,1.04 -0.12,2.09 -0.73,3.17 -0.61,1.08 -1.67,2.21 -2.94,2.71 -1.26,0.5 -2.72,0.38 -3.82,0.41 -1.1,0.03 -1.84,0.22 -2.73,0.85 -0.89,0.63 -1.94,1.7 -2,2.99 -0.05,1.29 0.89,2.81 1.85,4.44 0.96,1.63 1.94,3.38 3.24,5.12 1.3,1.74 2.91,3.49 4.16,4.11 1.26,0.62 2.16,0.13 2.88,-0.43 0.72,-0.56 1.25,-1.17 1.76,-1.9 0.51,-0.73 0.99,-1.59 1.57,-2.31 0.58,-0.72 1.27,-1.3 1.99,-1.74 0.72,-0.45 1.47,-0.76 2.26,-0.86 0.79,-0.1 1.62,0.02 2.5,0.32 0.89,0.29 1.83,0.75 2.56,1.4 0.73,0.65 1.26,1.5 1.93,1.94 0.67,0.44 1.46,0.46 3.04,-0.06 1.57,-0.52 3.92,-1.59 6.69,-3.35 2.77,-1.75 5.96,-4.2 9.15,-6.64z"/>
    <path class="fil2 str0" d="M421.57 1924.05c-3.5,-5.06 -6.99,-10.11 -10.49,-15.17 -10.51,7.34 -21.02,14.69 -31.53,22.03 0.41,0.89 0.81,1.78 1.82,3.09 1.01,1.31 2.62,3.06 3.88,3.68 1.25,0.62 2.16,0.13 2.87,-0.43 0.72,-0.55 1.25,-1.17 1.76,-1.9 0.51,-0.73 0.99,-1.59 1.57,-2.31 0.58,-0.72 1.27,-1.3 1.99,-1.75 0.72,-0.45 1.47,-0.76 2.26,-0.86 0.79,-0.1 1.62,0.03 2.51,0.32 0.89,0.29 1.83,0.75 2.56,1.41 0.74,0.65 1.26,1.5 1.93,1.94 0.66,0.44 1.46,0.46 3.03,-0.06 1.57,-0.52 3.92,-1.59 6.69,-3.35 2.77,-1.75 5.96,-4.2 9.15,-6.64z"/>
    <path class="fil2 str0" d="M377.45 1971.95c-5.79,-9.07 -11.58,-18.14 -17.37,-27.2 2.63,-1.87 5.27,-3.74 7.53,-5.26 2.26,-1.52 4.15,-2.7 5.81,-3.6 1.66,-0.91 3.1,-1.54 4.22,-1.52 1.13,0.02 1.94,0.69 2.77,1.35 0.83,0.66 1.68,1.31 2.6,1.8 0.93,0.49 1.93,0.81 3.17,0.74 1.24,-0.07 2.72,-0.53 3.72,-1.45 1,-0.91 1.53,-2.28 2.04,-3.25 0.51,-0.97 1,-1.55 1.96,-2.08 0.96,-0.53 2.38,-1 3.56,-0.48 1.18,0.52 2.13,2.03 3.17,3.61 1.04,1.58 2.18,3.23 3.17,5.16 1,1.93 1.86,4.15 1.86,5.55 0.01,1.4 -0.84,1.99 -1.65,2.39 -0.81,0.4 -1.6,0.61 -2.48,0.74 -0.88,0.13 -1.86,0.19 -2.77,0.39 -0.9,0.21 -1.72,0.57 -2.44,1.02 -0.72,0.45 -1.33,0.99 -1.77,1.65 -0.43,0.67 -0.69,1.47 -0.82,2.39 -0.13,0.92 -0.13,1.97 0.13,2.92 0.26,0.95 0.79,1.8 0.89,2.59 0.1,0.79 -0.23,1.52 -1.39,2.7 -1.16,1.18 -3.15,2.82 -5.95,4.53 -2.79,1.71 -6.39,3.5 -9.99,5.3z"/>
    <path class="fil2 str0" d="M396.07 2001.18c-5.79,-9.07 -11.58,-18.13 -17.37,-27.2 2.63,-1.87 5.27,-3.74 7.53,-5.26 2.26,-1.52 4.15,-2.7 5.81,-3.6 1.66,-0.91 3.1,-1.54 4.22,-1.52 1.12,0.02 1.94,0.69 2.77,1.35 0.83,0.66 1.68,1.31 2.6,1.8 0.93,0.49 1.93,0.81 3.17,0.74 1.24,-0.07 2.72,-0.53 3.72,-1.45 1.01,-0.91 1.53,-2.28 2.05,-3.25 0.51,-0.97 1,-1.55 1.96,-2.08 0.96,-0.53 2.38,-1 3.56,-0.48 1.18,0.52 2.13,2.03 3.17,3.61 1.04,1.58 2.18,3.23 3.17,5.16 1,1.93 1.86,4.14 1.86,5.55 0.01,1.4 -0.84,1.99 -1.65,2.39 -0.81,0.4 -1.6,0.61 -2.48,0.74 -0.89,0.13 -1.86,0.18 -2.77,0.39 -0.9,0.21 -1.72,0.57 -2.44,1.02 -0.72,0.45 -1.33,0.99 -1.77,1.65 -0.43,0.67 -0.69,1.46 -0.82,2.39 -0.13,0.92 -0.13,1.97 0.13,2.92 0.26,0.95 0.79,1.8 0.89,2.59 0.1,0.79 -0.23,1.52 -1.39,2.7 -1.16,1.18 -3.15,2.82 -5.95,4.53 -2.79,1.71 -6.39,3.5 -9.99,5.29z"/>
    <path class="fil2 str0" d="M469.96 2122.94c-5.77,-9.04 -11.54,-18.08 -17.31,-27.11 2.63,-1.86 5.25,-3.72 7.51,-5.24 2.26,-1.52 4.13,-2.69 5.79,-3.59 1.66,-0.9 3.09,-1.53 4.21,-1.51 1.12,0.02 1.93,0.69 2.76,1.35 0.83,0.66 1.67,1.31 2.59,1.79 0.92,0.49 1.92,0.81 3.16,0.74 1.24,-0.07 2.71,-0.53 3.71,-1.44 1,-0.91 1.53,-2.27 2.04,-3.24 0.51,-0.97 1,-1.55 1.95,-2.07 0.95,-0.52 2.37,-1 3.55,-0.48 1.18,0.52 2.12,2.03 3.16,3.6 1.04,1.58 2.17,3.22 3.16,5.14 0.99,1.92 1.85,4.13 1.86,5.53 0.01,1.4 -0.83,1.99 -1.64,2.39 -0.81,0.4 -1.6,0.61 -2.48,0.74 -0.88,0.13 -1.86,0.19 -2.75,0.39 -0.9,0.21 -1.72,0.57 -2.44,1.01 -0.72,0.45 -1.33,0.98 -1.76,1.65 -0.43,0.67 -0.69,1.46 -0.81,2.38 -0.13,0.92 -0.13,1.96 0.13,2.91 0.26,0.95 0.79,1.79 0.89,2.58 0.1,0.79 -0.23,1.51 -1.39,2.69 -1.16,1.18 -3.14,2.81 -5.93,4.51 -2.78,1.71 -6.37,3.49 -9.95,5.28z"/>
    <path class="fil2 str0" d="M413.91 2031.79c-5.79,-9.07 -11.58,-18.14 -17.37,-27.2 2.64,-1.87 5.27,-3.74 7.53,-5.26 2.26,-1.52 4.15,-2.7 5.81,-3.6 1.66,-0.91 3.1,-1.54 4.22,-1.52 1.13,0.02 1.94,0.69 2.77,1.35 0.83,0.66 1.68,1.31 2.6,1.8 0.93,0.49 1.93,0.81 3.17,0.74 1.24,-0.07 2.72,-0.53 3.72,-1.45 1,-0.91 1.53,-2.28 2.05,-3.25 0.51,-0.97 1,-1.55 1.96,-2.08 0.96,-0.53 2.38,-1 3.56,-0.48 1.18,0.52 2.13,2.04 3.17,3.62 1.04,1.58 2.18,3.23 3.18,5.16 1,1.93 1.85,4.15 1.86,5.55 0.01,1.4 -0.83,1.99 -1.65,2.39 -0.81,0.4 -1.6,0.61 -2.48,0.74 -0.88,0.13 -1.86,0.19 -2.76,0.39 -0.9,0.21 -1.72,0.57 -2.44,1.02 -0.72,0.45 -1.33,0.99 -1.77,1.65 -0.43,0.67 -0.69,1.47 -0.82,2.39 -0.13,0.92 -0.13,1.97 0.13,2.92 0.27,0.95 0.79,1.8 0.89,2.59 0.1,0.79 -0.23,1.52 -1.39,2.7 -1.16,1.18 -3.15,2.82 -5.95,4.53 -2.79,1.71 -6.39,3.5 -9.99,5.3z"/>
    <path class="fil2 str0" d="M450.23 2092c-5.79,-9.07 -11.58,-18.14 -17.37,-27.2 2.63,-1.87 5.27,-3.74 7.53,-5.26 2.26,-1.52 4.14,-2.7 5.81,-3.6 1.66,-0.91 3.1,-1.54 4.23,-1.52 1.12,0.02 1.93,0.69 2.76,1.35 0.83,0.66 1.68,1.31 2.6,1.8 0.93,0.49 1.93,0.81 3.17,0.74 1.24,-0.07 2.72,-0.53 3.72,-1.45 1,-0.91 1.53,-2.28 2.05,-3.25 0.51,-0.97 1,-1.55 1.96,-2.08 0.96,-0.53 2.38,-1 3.56,-0.48 1.18,0.52 2.13,2.03 3.17,3.61 1.04,1.58 2.18,3.23 3.17,5.16 1,1.93 1.86,4.15 1.86,5.55 0.01,1.4 -0.83,1.99 -1.65,2.39 -0.81,0.4 -1.6,0.61 -2.48,0.74 -0.88,0.13 -1.86,0.19 -2.76,0.39 -0.9,0.21 -1.72,0.57 -2.44,1.02 -0.72,0.45 -1.33,0.99 -1.77,1.65 -0.43,0.67 -0.69,1.47 -0.82,2.39 -0.13,0.92 -0.13,1.97 0.13,2.92 0.26,0.95 0.79,1.8 0.89,2.59 0.1,0.79 -0.23,1.52 -1.39,2.7 -1.16,1.18 -3.15,2.82 -5.95,4.53 -2.79,1.71 -6.39,3.5 -9.99,5.3z"/>
    <path class="fil2 str0" d="M433.04 2061.34c-5.79,-9.07 -11.58,-18.14 -17.37,-27.2 2.64,-1.87 5.27,-3.73 7.54,-5.26 2.26,-1.52 4.14,-2.7 5.81,-3.6 1.66,-0.91 3.1,-1.54 4.22,-1.52 1.13,0.02 1.94,0.69 2.77,1.35 0.83,0.66 1.68,1.31 2.6,1.8 0.93,0.49 1.93,0.81 3.17,0.74 1.24,-0.07 2.72,-0.53 3.72,-1.45 1,-0.92 1.53,-2.28 2.05,-3.25 0.51,-0.97 1,-1.55 1.96,-2.08 0.96,-0.53 2.38,-1 3.56,-0.48 1.18,0.52 2.13,2.04 3.17,3.62 1.04,1.58 2.18,3.23 3.17,5.16 1,1.93 1.86,4.15 1.86,5.55 0.01,1.4 -0.83,2 -1.65,2.39 -0.81,0.4 -1.6,0.61 -2.48,0.74 -0.88,0.13 -1.86,0.19 -2.76,0.39 -0.9,0.21 -1.72,0.57 -2.44,1.02 -0.72,0.45 -1.33,0.99 -1.77,1.65 -0.43,0.67 -0.69,1.46 -0.82,2.39 -0.13,0.92 -0.13,1.97 0.14,2.92 0.26,0.95 0.79,1.8 0.89,2.58 0.1,0.79 -0.23,1.52 -1.39,2.7 -1.16,1.18 -3.15,2.82 -5.95,4.53 -2.79,1.71 -6.39,3.5 -9.99,5.3z"/>
    <path class="fil2 str0" d="M525.56 2210.24c-5.77,-9.04 -11.54,-18.07 -17.31,-27.11 2.63,-1.86 5.25,-3.72 7.51,-5.24 2.25,-1.51 4.13,-2.69 5.79,-3.59 1.66,-0.9 3.09,-1.53 4.21,-1.52 1.12,0.02 1.93,0.69 2.76,1.35 0.83,0.66 1.67,1.31 2.59,1.79 0.92,0.49 1.92,0.81 3.16,0.74 1.24,-0.07 2.71,-0.53 3.71,-1.44 1,-0.91 1.53,-2.27 2.04,-3.24 0.51,-0.97 1,-1.55 1.95,-2.07 0.95,-0.52 2.37,-0.99 3.55,-0.48 1.18,0.52 2.12,2.03 3.16,3.6 1.04,1.58 2.17,3.22 3.16,5.14 0.99,1.92 1.85,4.13 1.85,5.53 0.01,1.4 -0.83,1.99 -1.64,2.39 -0.81,0.4 -1.59,0.61 -2.47,0.74 -0.88,0.13 -1.86,0.18 -2.76,0.39 -0.9,0.21 -1.72,0.57 -2.44,1.01 -0.72,0.45 -1.33,0.98 -1.76,1.65 -0.43,0.67 -0.69,1.46 -0.82,2.38 -0.13,0.92 -0.13,1.96 0.13,2.91 0.26,0.94 0.79,1.79 0.89,2.58 0.1,0.79 -0.23,1.51 -1.39,2.69 -1.16,1.18 -3.14,2.81 -5.93,4.52 -2.78,1.71 -6.37,3.49 -9.95,5.27z"/>
    <path class="fil1 str0" d="M663.23 2442.93c-5.02,-1.23 -10.05,-2.45 -13.96,-5.3 -3.91,-2.85 -6.72,-7.32 -8.87,-11.16 -2.15,-3.84 -3.65,-7.06 -4.46,-9.79 -0.81,-2.74 -0.93,-5 -0.49,-7.29 0.45,-2.29 1.45,-4.61 3.37,-7.76 1.92,-3.15 4.74,-7.13 7.63,-11.21 2.89,-4.08 5.84,-8.27 8.49,-11.3 2.65,-3.02 4.98,-4.88 7.55,-6.17 2.57,-1.29 5.36,-2 9.14,-2.81 3.77,-0.81 8.53,-1.72 12.83,-2.41 4.31,-0.69 8.16,-1.16 11.3,-1.12 3.14,0.04 5.57,0.59 7.67,1.67 2.11,1.08 3.89,2.69 6.17,5.28 2.28,2.59 5.04,6.18 7.41,9.43 2.37,3.25 4.33,6.18 4.81,10.15 0.49,3.98 -0.51,9.01 -1.5,14.05 -0.87,-1.79 -1.73,-3.59 -2.6,-4.86 -0.86,-1.27 -1.73,-2.03 -3.16,-1.72 -1.43,0.31 -3.42,1.69 -6.08,3.44 -2.67,1.75 -6.02,3.86 -9.36,5.98 -4.34,-7.54 -8.69,-15.08 -11.9,-20.61 -3.21,-5.52 -5.28,-9.03 -7.06,-11.35 -1.78,-2.32 -3.28,-3.46 -5.01,-4.06 -1.74,-0.6 -3.72,-0.65 -5.76,0.24 -2.04,0.89 -4.13,2.72 -6.37,4.12 -2.24,1.4 -4.61,2.37 -6.46,3.67 -1.85,1.29 -3.18,2.9 -3.69,4.78 -0.51,1.88 -0.2,4.02 1.28,7.11 1.49,3.09 4.15,7.13 7.74,12.54 3.59,5.41 8.11,12.2 12.63,18.98 -3.42,2 -6.84,4 -9.16,5.26 -2.32,1.26 -3.56,1.78 -4.58,2.74 -1.02,0.96 -1.82,2.37 -1.38,4.03 0.44,1.66 2.12,3.55 3.8,5.45z"/>
    <path class="fil1 str0" d="M658.25 2381.2c2.6,-1.76 6.88,-4.36 9.49,-5.77 2.61,-1.41 3.57,-1.64 4.52,-1.83 0.96,-0.2 1.92,-0.38 2.82,-0.07 0.9,0.31 1.75,1.1 2.78,2.2 1.03,1.11 2.25,2.52 5.82,8.29 3.57,5.77 9.51,15.89 15.32,25.48 5.81,9.59 11.51,18.66 15.46,24.89 3.95,6.22 6.17,9.6 7.35,11.69 1.18,2.08 1.31,2.87 1.28,3.72 -0.04,0.85 -0.24,1.76 -0.78,2.66 -0.54,0.91 -1.4,1.81 -2.9,2.93 -1.5,1.12 -3.64,2.47 -5.96,4.07 -2.31,1.6 -4.79,3.47 -6.57,4.36 -1.78,0.89 -2.85,0.8 -3.85,0.69 -0.99,-0.12 -1.89,-0.27 -2.82,-0.97 -0.92,-0.7 -1.87,-1.95 -3.9,-5.24 -2.03,-3.29 -5.15,-8.6 -10.73,-17.6 -5.58,-8.99 -13.63,-21.66 -19.3,-30.74 -5.67,-9.08 -8.96,-14.58 -10.8,-17.84 -1.84,-3.26 -2.23,-4.28 -2.28,-5.12 -0.05,-0.84 0.25,-1.51 0.87,-2.3 0.61,-0.8 1.54,-1.72 4.14,-3.49z"/>
    <path class="fil3 str0" d="M675.6 2424.79c-4.93,2.89 -9.86,5.77 -12.54,7.52 -2.68,1.75 -3.1,2.36 -3.33,3.03 -0.23,0.67 -0.27,1.41 -0.02,2.26 0.25,0.85 0.8,1.82 1.43,2.72 0.63,0.91 1.36,1.76 5.65,8.37 4.29,6.61 12.15,18.97 18.78,29.4 6.63,10.43 12.02,18.92 15.57,25.19 3.55,6.28 5.25,10.33 6.56,14.44 1.31,4.11 2.24,8.27 3.04,12.92 0.81,4.65 1.51,9.8 2.71,14.91 1.2,5.12 2.91,10.22 5.6,14.56 2.69,4.34 6.38,7.94 11.23,10.54 4.85,2.6 10.86,4.22 16.52,4.92 5.66,0.7 10.98,0.48 15.54,-0.31 4.57,-0.79 8.39,-2.15 12.99,-4.58 4.6,-2.44 10,-5.95 14.35,-9.82 4.35,-3.87 7.67,-8.09 10.18,-12.68 2.51,-4.59 4.2,-9.55 5.23,-14.42 1.03,-4.87 1.41,-9.65 0.89,-13.83 -0.52,-4.19 -1.93,-7.78 -4.91,-11.55 -2.98,-3.77 -7.54,-7.73 -12.18,-11.5 -4.64,-3.77 -9.36,-7.36 -13.03,-10.52 -3.67,-3.15 -6.28,-5.86 -9.11,-9.08 -2.83,-3.22 -5.89,-6.95 -9.4,-12.08 -3.51,-5.13 -7.48,-11.66 -12.09,-18.8 -4.61,-7.13 -9.85,-14.87 -14.12,-21.51 -4.27,-6.64 -7.55,-12.17 -9.26,-15.87 -1.7,-3.7 -1.83,-5.57 -2.35,-6.87 -0.52,-1.3 -1.42,-2.03 -2.37,-2.28 -0.95,-0.25 -1.95,-0.02 -3.3,0.62 -1.35,0.64 -3.05,1.7 -4.55,2.65 -1.5,0.95 -2.79,1.79 -4.46,2.85 -1.67,1.07 -3.72,2.37 -5.77,3.67 1.64,2.48 3.28,4.97 4.93,7.45 1.49,-0.48 2.97,-0.96 4.24,-0.49 1.26,0.47 2.31,1.88 3.67,3.98 1.36,2.1 3.03,4.89 5.77,9.31 2.73,4.42 6.53,10.48 10.27,16.47 3.74,5.99 7.43,11.93 9.48,15.32 2.05,3.4 2.44,4.26 2.76,5.2 0.32,0.94 0.55,1.96 -0.66,3.33 -1.21,1.37 -3.87,3.1 -6.09,4.54 -2.22,1.44 -3.99,2.6 -6.77,4.37 -2.79,1.77 -6.58,4.16 -9.04,5.66 -2.46,1.5 -3.57,2.11 -4.57,2.4 -1,0.29 -1.87,0.27 -2.7,-0.08 -0.83,-0.35 -1.61,-1.03 -2.96,-2.8 -1.34,-1.77 -3.24,-4.64 -5.2,-7.63 -1.96,-3 -3.97,-6.14 -6.53,-10.18 -2.56,-4.04 -5.67,-8.98 -8.07,-12.87 -2.4,-3.89 -4.1,-6.72 -5.7,-9.52 -1.6,-2.79 -3.1,-5.55 -3.35,-7.43 -0.25,-1.88 0.74,-2.89 1.73,-3.9 -1.57,-2.67 -3.14,-5.34 -4.7,-8.01z"/>
    <ellipse class="fil1 str0" transform="matrix(0.104388 -0.0655196 0.0655196 0.104388 758.655 2534.91)" rx="283.68" ry="170.61"/>
    <path class="fil1 str0" d="M663.23 2442.93c-5.02,-1.23 -10.05,-2.45 -13.96,-5.3 -3.91,-2.85 -6.72,-7.32 -8.87,-11.16 -2.15,-3.84 -3.65,-7.06 -4.46,-9.79 -0.81,-2.74 -0.93,-5 -0.49,-7.29 0.45,-2.29 1.45,-4.61 3.37,-7.76 1.92,-3.15 4.74,-7.13 7.63,-11.21 2.89,-4.08 5.84,-8.27 8.49,-11.3 2.65,-3.02 4.98,-4.88 7.55,-6.17 2.57,-1.29 5.36,-2 9.14,-2.81 3.77,-0.81 8.53,-1.72 12.83,-2.41 4.31,-0.69 8.16,-1.16 11.3,-1.12 3.14,0.04 5.57,0.59 7.67,1.67 2.11,1.08 3.89,2.69 6.17,5.28 2.28,2.59 5.04,6.18 7.41,9.43 2.37,3.25 4.33,6.18 4.81,10.15 0.49,3.98 -0.51,9.01 -1.5,14.05 -0.87,-1.79 -1.73,-3.59 -2.6,-4.86 -0.86,-1.27 -1.73,-2.03 -3.16,-1.72 -1.43,0.31 -3.42,1.69 -6.08,3.44 -2.67,1.75 -6.02,3.86 -9.36,5.98 -4.34,-7.54 -8.69,-15.08 -11.9,-20.61 -3.21,-5.52 -5.28,-9.03 -7.06,-11.35 -1.78,-2.32 -3.28,-3.46 -5.01,-4.06 -1.74,-0.6 -3.72,-0.65 -5.76,0.24 -2.04,0.89 -4.13,2.72 -6.37,4.12 -2.24,1.4 -4.61,2.37 -6.46,3.67 -1.85,1.29 -3.18,2.9 -3.69,4.78 -0.51,1.88 -0.2,4.02 1.28,7.11 1.49,3.09 4.15,7.13 7.74,12.54 3.59,5.41 8.11,12.2 12.63,18.98 -3.42,2 -6.84,4 -9.16,5.26 -2.32,1.26 -3.56,1.78 -4.58,2.74 -1.02,0.96 -1.82,2.37 -1.38,4.03 0.44,1.66 2.12,3.55 3.8,5.45z"/>
    <ellipse class="fil1 str0" transform="matrix(0.104388 -0.0655196 0.0655196 0.104388 652.212 2405.7)" rx="18.73" ry="19.4"/>
    <path class="fil1 str0" d="M658.25 2381.2c2.6,-1.76 6.88,-4.36 9.49,-5.77 2.61,-1.41 3.57,-1.64 4.52,-1.83 0.96,-0.2 1.92,-0.38 2.82,-0.07 0.9,0.31 1.75,1.1 2.78,2.2 1.03,1.11 2.25,2.52 5.82,8.29 3.57,5.77 9.51,15.89 15.32,25.48 5.81,9.59 11.51,18.66 15.46,24.89 3.95,6.22 6.17,9.6 7.35,11.69 1.18,2.08 1.31,2.87 1.28,3.72 -0.04,0.85 -0.24,1.76 -0.78,2.66 -0.54,0.91 -1.4,1.81 -2.9,2.93 -1.5,1.12 -3.64,2.47 -5.96,4.07 -2.31,1.6 -4.79,3.47 -6.57,4.36 -1.78,0.89 -2.85,0.8 -3.85,0.69 -0.99,-0.12 -1.89,-0.27 -2.82,-0.97 -0.92,-0.7 -1.87,-1.95 -3.9,-5.24 -2.03,-3.29 -5.15,-8.6 -10.73,-17.6 -5.58,-8.99 -13.63,-21.66 -19.3,-30.74 -5.67,-9.08 -8.96,-14.58 -10.8,-17.84 -1.84,-3.26 -2.23,-4.28 -2.28,-5.12 -0.05,-0.84 0.25,-1.51 0.87,-2.3 0.61,-0.8 1.54,-1.72 4.14,-3.49z"/>
    <ellipse class="fil1 str0" transform="matrix(0.104388 -0.0655196 0.0655196 0.104388 758.655 2534.91)" rx="283.68" ry="170.61"/>
    <path class="fil1 str0" d="M663.23 2442.93c-5.02,-1.23 -10.05,-2.45 -13.96,-5.3 -3.91,-2.85 -6.72,-7.32 -8.87,-11.16 -2.15,-3.84 -3.65,-7.06 -4.46,-9.79 -0.81,-2.74 -0.93,-5 -0.49,-7.29 0.45,-2.29 1.45,-4.61 3.37,-7.76 1.92,-3.15 4.74,-7.13 7.63,-11.21 2.89,-4.08 5.84,-8.27 8.49,-11.3 2.65,-3.02 4.98,-4.88 7.55,-6.17 2.57,-1.29 5.36,-2 9.14,-2.81 3.77,-0.81 8.53,-1.72 12.83,-2.41 4.31,-0.69 8.16,-1.16 11.3,-1.12 3.14,0.04 5.57,0.59 7.67,1.67 2.11,1.08 3.89,2.69 6.17,5.28 2.28,2.59 5.04,6.18 7.41,9.43 2.37,3.25 4.33,6.18 4.81,10.15 0.49,3.98 -0.51,9.01 -1.5,14.05 -0.87,-1.79 -1.73,-3.59 -2.6,-4.86 -0.86,-1.27 -1.73,-2.03 -3.16,-1.72 -1.43,0.31 -3.42,1.69 -6.08,3.44 -2.67,1.75 -6.02,3.86 -9.36,5.98 -4.34,-7.54 -8.69,-15.08 -11.9,-20.61 -3.21,-5.52 -5.28,-9.03 -7.06,-11.35 -1.78,-2.32 -3.28,-3.46 -5.01,-4.06 -1.74,-0.6 -3.72,-0.65 -5.76,0.24 -2.04,0.89 -4.13,2.72 -6.37,4.12 -2.24,1.4 -4.61,2.37 -6.46,3.67 -1.85,1.29 -3.18,2.9 -3.69,4.78 -0.51,1.88 -0.2,4.02 1.28,7.11 1.49,3.09 4.15,7.13 7.74,12.54 3.59,5.41 8.11,12.2 12.63,18.98 -3.42,2 -6.84,4 -9.16,5.26 -2.32,1.26 -3.56,1.78 -4.58,2.74 -1.02,0.96 -1.82,2.37 -1.38,4.03 0.44,1.66 2.12,3.55 3.8,5.45z"/>
    <ellipse class="fil1 str0" transform="matrix(0.104388 -0.0655196 0.0655196 0.104388 650.256 2406.93)" rx="18.73" ry="19.4"/>
    <path class="fil1 str0" d="M658.25 2381.2c2.6,-1.76 6.88,-4.36 9.49,-5.77 2.61,-1.41 3.57,-1.64 4.52,-1.83 0.96,-0.2 1.92,-0.38 2.82,-0.07 0.9,0.31 1.75,1.1 2.78,2.2 1.03,1.11 2.25,2.52 5.82,8.29 3.57,5.77 9.51,15.89 15.32,25.48 5.81,9.59 11.51,18.66 15.46,24.89 3.95,6.22 6.17,9.6 7.35,11.69 1.18,2.08 1.31,2.87 1.28,3.72 -0.04,0.85 -0.24,1.76 -0.78,2.66 -0.54,0.91 -1.4,1.81 -2.9,2.93 -1.5,1.12 -3.64,2.47 -5.96,4.07 -2.31,1.6 -4.79,3.47 -6.57,4.36 -1.78,0.89 -2.85,0.8 -3.85,0.69 -0.99,-0.12 -1.89,-0.27 -2.82,-0.97 -0.92,-0.7 -1.87,-1.95 -3.9,-5.24 -2.03,-3.29 -5.15,-8.6 -10.73,-17.6 -5.58,-8.99 -13.63,-21.66 -19.3,-30.74 -5.67,-9.08 -8.96,-14.58 -10.8,-17.84 -1.84,-3.26 -2.23,-4.28 -2.28,-5.12 -0.05,-0.84 0.25,-1.51 0.87,-2.3 0.61,-0.8 1.54,-1.72 4.14,-3.49z"/>
    <ellipse class="fil1 str0" transform="matrix(0.104388 -0.0655196 0.0655196 0.104388 758.655 2534.91)" rx="283.68" ry="170.61"/>
    <path class="fil4 str0" d="M663.23 2442.93c-5.02,-1.23 -10.05,-2.45 -13.96,-5.3 -3.91,-2.85 -6.72,-7.32 -8.87,-11.16 -2.15,-3.84 -3.65,-7.06 -4.46,-9.79 -0.81,-2.74 -0.93,-5 -0.49,-7.29 0.45,-2.29 1.45,-4.61 3.37,-7.76 1.92,-3.15 4.74,-7.13 7.63,-11.21 2.89,-4.08 5.84,-8.27 8.49,-11.3 2.65,-3.02 4.98,-4.88 7.55,-6.17 2.57,-1.29 5.36,-2 9.14,-2.81 3.77,-0.81 8.53,-1.72 12.83,-2.41 4.31,-0.69 8.16,-1.16 11.3,-1.12 3.14,0.04 5.57,0.59 7.67,1.67 2.11,1.08 3.89,2.69 6.17,5.28 2.28,2.59 5.04,6.18 7.41,9.43 2.37,3.25 4.33,6.18 4.81,10.15 0.49,3.98 -0.51,9.01 -1.5,14.05 -0.87,-1.79 -1.73,-3.59 -2.6,-4.86 -0.86,-1.27 -1.73,-2.03 -3.16,-1.72 -1.43,0.31 -3.42,1.69 -6.08,3.44 -2.67,1.75 -6.02,3.86 -9.36,5.98 -4.34,-7.54 -8.69,-15.08 -11.9,-20.61 -3.21,-5.52 -5.28,-9.03 -7.06,-11.35 -1.78,-2.32 -3.28,-3.46 -5.01,-4.06 -1.74,-0.6 -3.72,-0.65 -5.76,0.24 -2.04,0.89 -4.13,2.72 -6.37,4.12 -2.24,1.4 -4.61,2.37 -6.46,3.67 -1.85,1.29 -3.18,2.9 -3.69,4.78 -0.51,1.88 -0.2,4.02 1.28,7.11 1.49,3.09 4.15,7.13 7.74,12.54 3.59,5.41 8.11,12.2 12.63,18.98 -3.42,2 -6.84,4 -9.16,5.26 -2.32,1.26 -3.56,1.78 -4.58,2.74 -1.02,0.96 -1.82,2.37 -1.38,4.03 0.44,1.66 2.12,3.55 3.8,5.45z"/>
    <ellipse class="fil1 str0" transform="matrix(0.104388 -0.0655196 0.0655196 0.104388 692.202 2382.96)" rx="18.73" ry="19.4"/>
    <path class="fil4 str0" d="M658.25 2381.2c2.6,-1.76 6.88,-4.36 9.49,-5.77 2.61,-1.41 3.57,-1.64 4.52,-1.83 0.96,-0.2 1.92,-0.38 2.82,-0.07 0.9,0.31 1.75,1.1 2.78,2.2 1.03,1.11 2.25,2.52 5.82,8.29 3.57,5.77 9.51,15.89 15.32,25.48 5.81,9.59 11.51,18.66 15.46,24.89 3.95,6.22 6.17,9.6 7.35,11.69 1.18,2.08 1.31,2.87 1.28,3.72 -0.04,0.85 -0.24,1.76 -0.78,2.66 -0.54,0.91 -1.4,1.81 -2.9,2.93 -1.5,1.12 -3.64,2.47 -5.98,3.97 -2.34,1.5 -4.87,3.17 -6.63,4.05 -1.76,0.89 -2.76,0.99 -3.72,0.97 -0.96,-0.02 -1.9,-0.15 -2.83,-0.85 -0.94,-0.7 -1.88,-1.95 -3.91,-5.23 -2.03,-3.29 -5.15,-8.6 -10.73,-17.6 -5.58,-8.99 -13.63,-21.66 -19.3,-30.74 -5.67,-9.08 -8.96,-14.58 -10.8,-17.84 -1.84,-3.26 -2.23,-4.28 -2.28,-5.12 -0.05,-0.84 0.25,-1.51 0.87,-2.3 0.61,-0.8 1.54,-1.72 4.14,-3.49z"/>
    <ellipse class="fil5 str0" transform="matrix(0.104388 -0.0655196 0.0655196 0.104388 758.655 2534.91)" rx="283.68" ry="170.61"/>
    <ellipse class="fil1 str0" transform="matrix(0.10692 -0.067109 0.067109 0.10692 715.163 2431.84)" rx="0.33" ry="1"/>
    <path class="fil1 str0" d="M683.06 2435.78c-0.62,0.79 -1.24,1.58 -1.64,2.42 -0.39,0.84 -0.56,1.74 0.83,4.7 1.39,2.95 4.33,7.95 9.29,15.91 4.96,7.96 11.94,18.86 15.79,24.79 3.85,5.92 4.58,6.87 5.36,7.49 0.79,0.62 1.64,0.93 2.4,1.02 0.75,0.09 1.41,-0.03 6.1,-2.9 4.69,-2.87 13.4,-8.47 17.94,-11.51 4.54,-3.05 4.89,-3.54 5.19,-4.22 0.3,-0.69 0.54,-1.57 0.18,-2.84 -0.36,-1.27 -1.33,-2.92 -3.54,-6.49 -2.21,-3.57 -5.65,-9.05 -9.34,-14.88 -3.69,-5.83 -7.63,-12 -10.55,-16.81 -2.92,-4.81 -4.83,-8.27 -6.27,-10.36 -1.44,-2.09 -2.42,-2.8 -3.38,-3.1 -0.95,-0.3 -1.88,-0.18 -2.55,0.01 -0.67,0.19 -1.09,0.46 -1.51,0.72 4,6.26 8,12.53 11.04,17.47 3.04,4.94 5.11,8.56 6.2,10.86 1.09,2.3 1.19,3.27 1.28,4.36 0.09,1.09 0.15,2.3 -0.39,3.43 -0.55,1.14 -1.71,2.2 -3.67,3.69 -1.95,1.49 -4.7,3.41 -6.75,4.81 -2.05,1.41 -3.41,2.3 -4.74,2.78 -1.33,0.48 -2.64,0.54 -4.12,0.1 -1.48,-0.44 -3.12,-1.37 -4.54,-2.79 -1.42,-1.42 -2.62,-3.33 -4.16,-5.79 -1.54,-2.46 -3.42,-5.46 -5.29,-8.51 -1.87,-3.04 -3.73,-6.13 -5.25,-8.53 -1.52,-2.4 -2.71,-4.11 -3.9,-5.83z"/>
    <ellipse class="fil1 str0" transform="matrix(0.10692 -0.067109 0.067109 0.10692 715.163 2431.84)" rx="0.33" ry="1"/>
    <path class="fil1 str0" d="M683.06 2435.78c-0.62,0.79 -1.24,1.58 -1.64,2.42 -0.39,0.84 -0.56,1.74 0.83,4.7 1.39,2.95 4.33,7.95 9.29,15.91 4.96,7.96 11.94,18.86 15.79,24.79 3.85,5.92 4.58,6.87 5.36,7.49 0.79,0.62 1.64,0.93 2.4,1.02 0.75,0.09 1.41,-0.03 6.1,-2.9 4.69,-2.87 13.4,-8.47 17.94,-11.51 4.54,-3.05 4.89,-3.54 5.19,-4.22 0.3,-0.69 0.54,-1.57 0.18,-2.84 -0.36,-1.27 -1.33,-2.92 -3.54,-6.49 -2.21,-3.57 -5.65,-9.05 -9.34,-14.88 -3.69,-5.83 -7.63,-12 -10.55,-16.81 -2.92,-4.81 -4.83,-8.27 -6.27,-10.36 -1.44,-2.09 -2.42,-2.8 -3.38,-3.1 -0.95,-0.3 -1.88,-0.18 -2.55,0.01 -0.67,0.19 -1.09,0.46 -1.51,0.72 4,6.26 8,12.53 11.04,17.47 3.04,4.94 5.11,8.56 6.2,10.86 1.09,2.3 1.19,3.27 1.28,4.36 0.09,1.09 0.15,2.3 -0.39,3.43 -0.55,1.14 -1.71,2.2 -3.67,3.69 -1.95,1.49 -4.7,3.41 -6.75,4.81 -2.05,1.41 -3.41,2.3 -4.74,2.78 -1.33,0.48 -2.64,0.54 -4.12,0.1 -1.48,-0.44 -3.12,-1.37 -4.54,-2.79 -1.42,-1.42 -2.62,-3.33 -4.16,-5.79 -1.54,-2.46 -3.42,-5.46 -5.29,-8.51 -1.87,-3.04 -3.73,-6.13 -5.25,-8.53 -1.52,-2.4 -2.71,-4.11 -3.9,-5.83z"/>
    <ellipse class="fil1 str0" transform="matrix(0.10692 -0.067109 0.067109 0.10692 715.163 2431.84)" rx="0.33" ry="1"/>
    <path class="fil1 str0" d="M683.06 2435.78c-0.62,0.79 -1.24,1.58 -1.64,2.42 -0.39,0.84 -0.56,1.74 0.83,4.7 1.39,2.95 4.33,7.95 9.29,15.91 4.96,7.96 11.94,18.86 15.79,24.79 3.85,5.92 4.58,6.87 5.36,7.49 0.79,0.62 1.64,0.93 2.4,1.02 0.75,0.09 1.41,-0.03 6.1,-2.9 4.69,-2.87 13.4,-8.47 17.94,-11.51 4.54,-3.05 4.89,-3.54 5.19,-4.22 0.3,-0.69 0.54,-1.57 0.18,-2.84 -0.36,-1.27 -1.33,-2.92 -3.54,-6.49 -2.21,-3.57 -5.65,-9.05 -9.34,-14.88 -3.69,-5.83 -7.63,-12 -10.55,-16.81 -2.92,-4.81 -4.83,-8.27 -6.27,-10.36 -1.44,-2.09 -2.42,-2.8 -3.38,-3.1 -0.95,-0.3 -1.88,-0.18 -2.55,0.01 -0.67,0.19 -1.09,0.46 -1.51,0.72 4,6.26 8,12.53 11.04,17.47 3.04,4.94 5.11,8.56 6.2,10.86 1.09,2.3 1.19,3.27 1.28,4.36 0.09,1.09 0.15,2.3 -0.39,3.43 -0.55,1.14 -1.71,2.2 -3.67,3.69 -1.95,1.49 -4.7,3.41 -6.75,4.81 -2.05,1.41 -3.41,2.3 -4.74,2.78 -1.33,0.48 -2.64,0.54 -4.12,0.1 -1.48,-0.44 -3.12,-1.37 -4.54,-2.79 -1.42,-1.42 -2.62,-3.33 -4.16,-5.79 -1.54,-2.46 -3.42,-5.46 -5.29,-8.51 -1.87,-3.04 -3.73,-6.13 -5.25,-8.53 -1.52,-2.4 -2.71,-4.11 -3.9,-5.83z"/>
    <ellipse class="fil1 str0" transform="matrix(0.10692 -0.067109 0.067109 0.10692 650.461 2405.53)" rx="19.07" ry="20.07"/>
    <ellipse class="fil1 str0" transform="matrix(0.10692 -0.067109 0.067109 0.10692 715.163 2431.84)" rx="0.33" ry="1"/>
    <path class="fil1 str0" d="M683.06 2435.78c-0.62,0.79 -1.24,1.58 -1.64,2.42 -0.39,0.84 -0.56,1.74 0.83,4.7 1.39,2.95 4.33,7.95 9.29,15.91 4.96,7.96 11.94,18.86 15.79,24.79 3.85,5.92 4.58,6.87 5.36,7.49 0.79,0.62 1.64,0.93 2.4,1.02 0.75,0.09 1.41,-0.03 6.1,-2.9 4.69,-2.87 13.4,-8.47 17.94,-11.51 4.54,-3.05 4.89,-3.54 5.19,-4.22 0.3,-0.69 0.54,-1.57 0.18,-2.84 -0.36,-1.27 -1.33,-2.92 -3.54,-6.49 -2.21,-3.57 -5.65,-9.05 -9.34,-14.88 -3.69,-5.83 -7.63,-12 -10.55,-16.81 -2.92,-4.81 -4.83,-8.27 -6.27,-10.36 -1.44,-2.09 -2.42,-2.8 -3.38,-3.1 -0.95,-0.3 -1.88,-0.18 -2.55,0.01 -0.67,0.19 -1.09,0.46 -1.51,0.72 4,6.26 8,12.53 11.04,17.47 3.04,4.94 5.11,8.56 6.47,11.13 1.36,2.57 2.02,4.08 2.1,5.17 0.09,1.09 -0.4,1.75 -1.22,2.62 -0.82,0.86 -1.99,1.93 -3.94,3.42 -1.95,1.49 -4.7,3.41 -6.78,4.77 -2.08,1.36 -3.49,2.16 -5.05,2.84 -1.56,0.67 -3.26,1.21 -4.71,0.82 -1.45,-0.39 -2.65,-1.71 -3.84,-3.33 -1.2,-1.62 -2.39,-3.53 -3.93,-5.98 -1.54,-2.46 -3.42,-5.46 -5.29,-8.51 -1.87,-3.04 -3.73,-6.13 -5.25,-8.53 -1.52,-2.4 -2.71,-4.11 -3.9,-5.83z"/>
    <path class="fil2 str0" d="M716.37 2521.75c5.54,9.04 11.07,18.07 16.61,27.11 2.79,-1.53 5.58,-3.06 7.9,-4.41 2.32,-1.35 4.17,-2.51 5.69,-3.59 1.52,-1.08 2.7,-2.08 3.17,-3.09 0.47,-1 0.22,-2.01 -0.01,-3.03 -0.23,-1.02 -0.44,-2.05 -0.47,-3.08 -0.03,-1.03 0.11,-2.06 0.71,-3.13 0.6,-1.07 1.64,-2.18 2.89,-2.67 1.24,-0.5 2.68,-0.38 3.76,-0.41 1.08,-0.04 1.81,-0.22 2.68,-0.84 0.88,-0.62 1.91,-1.68 1.96,-2.95 0.05,-1.27 -0.89,-2.76 -1.84,-4.36 -0.95,-1.6 -1.92,-3.32 -3.2,-5.03 -1.28,-1.71 -2.87,-3.43 -4.11,-4.04 -1.24,-0.61 -2.13,-0.12 -2.83,0.43 -0.71,0.55 -1.23,1.15 -1.73,1.88 -0.5,0.72 -0.97,1.57 -1.54,2.28 -0.57,0.71 -1.25,1.28 -1.95,1.72 -0.71,0.44 -1.45,0.76 -2.23,0.85 -0.78,0.1 -1.59,-0.02 -2.47,-0.3 -0.87,-0.28 -1.8,-0.73 -2.53,-1.38 -0.73,-0.64 -1.25,-1.48 -1.91,-1.9 -0.65,-0.43 -1.44,-0.45 -2.99,0.07 -1.55,0.52 -3.85,1.58 -6.57,3.32 -2.72,1.74 -5.85,4.15 -8.99,6.56z"/>
    <path class="fil2 str0" d="M778.25 2503.39c5.75,8.94 11.5,17.89 17.24,26.83 -2.6,1.85 -5.2,3.71 -7.43,5.22 -2.23,1.51 -4.09,2.68 -5.73,3.58 -1.64,0.9 -3.06,1.53 -4.17,1.51 -1.11,-0.02 -1.91,-0.68 -2.74,-1.33 -0.82,-0.65 -1.66,-1.29 -2.58,-1.77 -0.92,-0.48 -1.91,-0.79 -3.14,-0.72 -1.23,0.07 -2.69,0.54 -3.67,1.44 -0.99,0.91 -1.51,2.25 -2.01,3.21 -0.5,0.96 -0.99,1.53 -1.93,2.06 -0.94,0.52 -2.35,0.99 -3.52,0.48 -1.17,-0.51 -2.11,-2.01 -3.14,-3.56 -1.03,-1.56 -2.16,-3.18 -3.15,-5.09 -0.99,-1.91 -1.85,-4.09 -1.86,-5.48 -0.01,-1.39 0.82,-1.97 1.62,-2.37 0.8,-0.4 1.58,-0.61 2.45,-0.74 0.87,-0.13 1.84,-0.19 2.73,-0.4 0.89,-0.21 1.7,-0.57 2.41,-1.01 0.71,-0.45 1.31,-0.98 1.74,-1.64 0.43,-0.66 0.68,-1.45 0.8,-2.36 0.12,-0.91 0.12,-1.95 -0.14,-2.89 -0.26,-0.94 -0.79,-1.77 -0.89,-2.55 -0.1,-0.78 0.22,-1.5 1.37,-2.67 1.14,-1.17 3.11,-2.79 5.86,-4.49 2.75,-1.7 6.3,-3.48 9.85,-5.26z"/>
    <path class="fil2 str0" d="M642.6 2404.33c5.54,9.04 11.07,18.07 16.61,27.11 2.79,-1.53 5.58,-3.06 7.9,-4.41 2.32,-1.35 4.17,-2.51 5.69,-3.59 1.52,-1.08 2.7,-2.08 3.17,-3.09 0.47,-1 0.22,-2.01 -0.01,-3.03 -0.23,-1.02 -0.44,-2.05 -0.47,-3.08 -0.03,-1.03 0.11,-2.06 0.71,-3.13 0.6,-1.07 1.64,-2.18 2.89,-2.67 1.24,-0.5 2.68,-0.38 3.76,-0.41 1.08,-0.04 1.81,-0.22 2.68,-0.84 0.88,-0.62 1.91,-1.68 1.96,-2.95 0.05,-1.27 -0.89,-2.76 -1.84,-4.36 -0.95,-1.6 -1.92,-3.32 -3.2,-5.03 -1.28,-1.71 -2.87,-3.43 -4.11,-4.04 -1.24,-0.61 -2.13,-0.12 -2.83,0.43 -0.71,0.55 -1.23,1.15 -1.73,1.88 -0.5,0.72 -0.97,1.57 -1.54,2.28 -0.57,0.71 -1.25,1.28 -1.95,1.72 -0.71,0.44 -1.45,0.76 -2.23,0.85 -0.78,0.1 -1.59,-0.02 -2.47,-0.3 -0.87,-0.28 -1.8,-0.73 -2.53,-1.38 -0.73,-0.64 -1.25,-1.48 -1.91,-1.9 -0.65,-0.43 -1.44,-0.45 -2.99,0.07 -1.55,0.52 -3.85,1.58 -6.57,3.32 -2.72,1.74 -5.85,4.15 -8.99,6.56z"/>
    <path class="fil2 str0" d="M660.86 2433.31c5.54,9.03 11.07,18.07 16.61,27.1 2.79,-1.53 5.58,-3.06 7.9,-4.41 2.32,-1.35 4.17,-2.51 5.69,-3.59 1.52,-1.08 2.7,-2.08 3.17,-3.09 0.47,-1 0.22,-2.01 -0.01,-3.03 -0.23,-1.02 -0.44,-2.05 -0.47,-3.08 -0.03,-1.03 0.11,-2.06 0.71,-3.13 0.6,-1.07 1.64,-2.18 2.89,-2.67 1.24,-0.5 2.68,-0.38 3.76,-0.41 1.08,-0.04 1.81,-0.22 2.68,-0.84 0.88,-0.62 1.91,-1.68 1.96,-2.95 0.05,-1.27 -0.89,-2.76 -1.84,-4.36 -0.95,-1.6 -1.92,-3.32 -3.2,-5.03 -1.28,-1.71 -2.87,-3.43 -4.11,-4.04 -1.24,-0.61 -2.13,-0.12 -2.83,0.43 -0.71,0.55 -1.23,1.15 -1.73,1.88 -0.5,0.72 -0.97,1.57 -1.54,2.28 -0.57,0.71 -1.25,1.28 -1.95,1.72 -0.71,0.44 -1.45,0.76 -2.23,0.85 -0.78,0.1 -1.6,-0.02 -2.47,-0.3 -0.87,-0.28 -1.8,-0.73 -2.53,-1.38 -0.73,-0.64 -1.25,-1.48 -1.91,-1.9 -0.65,-0.43 -1.44,-0.45 -2.99,0.07 -1.55,0.52 -3.85,1.58 -6.57,3.32 -2.72,1.74 -5.86,4.15 -8.99,6.57z"/>
    <path class="fil2 str0" d="M722.78 2414.98c5.73,8.91 11.46,17.83 17.19,26.74 -2.59,1.85 -5.18,3.69 -7.4,5.2 -2.22,1.5 -4.08,2.67 -5.71,3.56 -1.63,0.9 -3.05,1.53 -4.15,1.51 -1.11,-0.02 -1.91,-0.68 -2.73,-1.33 -0.82,-0.65 -1.65,-1.28 -2.57,-1.76 -0.91,-0.48 -1.9,-0.79 -3.13,-0.72 -1.22,0.07 -2.68,0.53 -3.66,1.44 -0.99,0.9 -1.5,2.25 -2.01,3.2 -0.5,0.96 -0.98,1.53 -1.92,2.05 -0.94,0.52 -2.34,0.99 -3.51,0.48 -1.17,-0.51 -2.1,-2 -3.13,-3.55 -1.03,-1.55 -2.15,-3.17 -3.14,-5.07 -0.99,-1.9 -1.84,-4.08 -1.85,-5.46 -0.01,-1.38 0.82,-1.96 1.62,-2.36 0.8,-0.4 1.57,-0.61 2.44,-0.74 0.87,-0.13 1.83,-0.19 2.72,-0.4 0.89,-0.21 1.7,-0.56 2.4,-1.01 0.71,-0.45 1.31,-0.98 1.73,-1.63 0.43,-0.66 0.68,-1.44 0.8,-2.35 0.12,-0.91 0.12,-1.94 -0.14,-2.88 -0.26,-0.93 -0.79,-1.77 -0.89,-2.54 -0.1,-0.78 0.22,-1.5 1.36,-2.67 1.14,-1.17 3.1,-2.78 5.84,-4.48 2.75,-1.69 6.28,-3.47 9.82,-5.24z"/>
    <path class="fil2 str0" d="M704.35 2386.24c5.73,8.91 11.46,17.83 17.19,26.74 -2.59,1.85 -5.18,3.69 -7.41,5.2 -2.22,1.51 -4.07,2.67 -5.71,3.57 -1.64,0.9 -3.05,1.52 -4.16,1.51 -1.11,-0.02 -1.91,-0.68 -2.73,-1.32 -0.82,-0.65 -1.65,-1.29 -2.57,-1.76 -0.91,-0.48 -1.9,-0.79 -3.12,-0.72 -1.22,0.07 -2.68,0.53 -3.66,1.44 -0.99,0.9 -1.5,2.25 -2.01,3.2 -0.5,0.96 -0.98,1.53 -1.92,2.05 -0.94,0.52 -2.34,0.99 -3.5,0.48 -1.17,-0.51 -2.1,-2 -3.13,-3.55 -1.03,-1.56 -2.15,-3.17 -3.14,-5.07 -0.99,-1.9 -1.84,-4.08 -1.85,-5.46 -0.01,-1.38 0.82,-1.97 1.62,-2.36 0.8,-0.39 1.57,-0.6 2.44,-0.74 0.87,-0.13 1.84,-0.19 2.72,-0.39 0.89,-0.21 1.7,-0.57 2.4,-1.01 0.71,-0.45 1.31,-0.98 1.73,-1.63 0.43,-0.66 0.68,-1.45 0.8,-2.35 0.12,-0.91 0.12,-1.94 -0.14,-2.88 -0.26,-0.93 -0.79,-1.77 -0.89,-2.54 -0.1,-0.78 0.22,-1.5 1.36,-2.67 1.14,-1.17 3.1,-2.78 5.84,-4.48 2.75,-1.69 6.29,-3.47 9.82,-5.24z"/>
    <path class="fil2 str0" d="M761.17 2473.14c5.75,8.94 11.5,17.89 17.24,26.83 -2.6,1.85 -5.2,3.71 -7.43,5.22 -2.23,1.51 -4.09,2.68 -5.73,3.58 -1.64,0.9 -3.06,1.53 -4.17,1.52 -1.11,-0.02 -1.92,-0.68 -2.74,-1.33 -0.82,-0.65 -1.66,-1.29 -2.58,-1.77 -0.92,-0.48 -1.91,-0.79 -3.13,-0.72 -1.23,0.07 -2.69,0.54 -3.68,1.44 -0.99,0.91 -1.51,2.26 -2.01,3.22 -0.5,0.96 -0.99,1.53 -1.93,2.06 -0.94,0.52 -2.35,0.99 -3.52,0.48 -1.17,-0.51 -2.11,-2 -3.14,-3.56 -1.03,-1.56 -2.16,-3.18 -3.15,-5.09 -0.99,-1.9 -1.84,-4.09 -1.86,-5.48 -0.01,-1.39 0.82,-1.97 1.62,-2.37 0.8,-0.4 1.58,-0.61 2.45,-0.74 0.87,-0.13 1.84,-0.19 2.73,-0.4 0.89,-0.21 1.7,-0.57 2.41,-1.01 0.71,-0.45 1.31,-0.98 1.74,-1.64 0.43,-0.66 0.68,-1.45 0.8,-2.36 0.12,-0.91 0.12,-1.95 -0.14,-2.89 -0.27,-0.94 -0.79,-1.77 -0.89,-2.55 -0.1,-0.78 0.23,-1.5 1.37,-2.67 1.14,-1.17 3.11,-2.79 5.86,-4.49 2.76,-1.7 6.3,-3.48 9.85,-5.26z"/>
    <path class="fil2 str0" d="M778.25 2503.39c5.75,8.94 11.5,17.89 17.24,26.83 -2.6,1.85 -5.2,3.71 -7.43,5.22 -2.23,1.51 -4.09,2.68 -5.73,3.58 -1.64,0.9 -3.06,1.53 -4.17,1.51 -1.11,-0.02 -1.91,-0.68 -2.74,-1.33 -0.82,-0.65 -1.66,-1.29 -2.58,-1.77 -0.92,-0.48 -1.91,-0.79 -3.14,-0.72 -1.23,0.07 -2.69,0.54 -3.67,1.44 -0.99,0.91 -1.51,2.25 -2.01,3.21 -0.5,0.96 -0.99,1.53 -1.93,2.06 -0.94,0.52 -2.35,0.99 -3.52,0.48 -1.17,-0.51 -2.11,-2.01 -3.14,-3.56 -1.03,-1.56 -2.16,-3.18 -3.15,-5.09 -0.99,-1.91 -1.85,-4.09 -1.86,-5.48 -0.01,-1.39 0.82,-1.97 1.62,-2.37 0.8,-0.4 1.58,-0.61 2.45,-0.74 0.87,-0.13 1.84,-0.19 2.73,-0.4 0.89,-0.21 1.7,-0.57 2.41,-1.01 0.71,-0.45 1.31,-0.98 1.74,-1.64 0.43,-0.66 0.68,-1.45 0.8,-2.36 0.12,-0.91 0.12,-1.95 -0.14,-2.89 -0.26,-0.94 -0.79,-1.77 -0.89,-2.55 -0.1,-0.78 0.22,-1.5 1.37,-2.67 1.14,-1.17 3.11,-2.79 5.86,-4.49 2.75,-1.7 6.3,-3.48 9.85,-5.26z"/>
    <path class="fil1 str0" d="M663.23 2442.93c-5.02,-1.23 -10.05,-2.45 -13.96,-5.3 -3.91,-2.85 -6.72,-7.32 -8.87,-11.16 -2.15,-3.84 -3.65,-7.06 -4.46,-9.79 -0.81,-2.74 -0.93,-5 -0.49,-7.29 0.45,-2.29 1.45,-4.61 3.37,-7.76 1.92,-3.15 4.74,-7.13 7.63,-11.21 2.89,-4.08 5.84,-8.27 8.49,-11.3 2.65,-3.02 4.98,-4.88 7.55,-6.17 2.57,-1.29 5.36,-2 9.14,-2.81 3.77,-0.81 8.53,-1.72 12.83,-2.41 4.31,-0.69 8.16,-1.16 11.3,-1.12 3.14,0.04 5.57,0.59 7.67,1.67 2.11,1.08 3.89,2.69 6.17,5.28 2.28,2.59 5.04,6.18 7.41,9.43 2.37,3.25 4.33,6.18 4.81,10.15 0.49,3.98 -0.51,9.01 -1.5,14.05 -0.87,-1.79 -1.73,-3.59 -2.6,-4.86 -0.86,-1.27 -1.73,-2.03 -3.16,-1.72 -1.43,0.31 -3.42,1.69 -6.08,3.44 -2.67,1.75 -6.02,3.86 -9.36,5.98 -4.34,-7.54 -8.69,-15.08 -11.9,-20.61 -3.21,-5.52 -5.28,-9.03 -7.06,-11.35 -1.78,-2.32 -3.28,-3.46 -5.01,-4.06 -1.74,-0.6 -3.72,-0.65 -5.76,0.24 -2.04,0.89 -4.13,2.72 -6.37,4.12 -2.24,1.4 -4.61,2.37 -6.46,3.67 -1.85,1.29 -3.18,2.9 -3.69,4.78 -0.51,1.88 -0.2,4.02 1.28,7.11 1.49,3.09 4.15,7.13 7.74,12.54 3.59,5.41 8.11,12.2 12.63,18.98 -3.42,2 -6.84,4 -9.16,5.26 -2.32,1.26 -3.56,1.78 -4.58,2.74 -1.02,0.96 -1.82,2.37 -1.38,4.03 0.44,1.66 2.12,3.55 3.8,5.45z"/>
    <path class="fil1 str0" d="M658.25 2381.2c2.6,-1.76 6.88,-4.36 9.49,-5.77 2.61,-1.41 3.57,-1.64 4.52,-1.83 0.96,-0.2 1.92,-0.38 2.82,-0.07 0.9,0.31 1.75,1.1 2.78,2.2 1.03,1.11 2.25,2.52 5.82,8.29 3.57,5.77 9.51,15.89 15.32,25.48 5.81,9.59 11.51,18.66 15.46,24.89 3.95,6.22 6.17,9.6 7.35,11.69 1.18,2.08 1.31,2.87 1.28,3.72 -0.04,0.85 -0.24,1.76 -0.78,2.66 -0.54,0.91 -1.4,1.81 -2.9,2.93 -1.5,1.12 -3.64,2.47 -5.96,4.07 -2.31,1.6 -4.79,3.47 -6.57,4.36 -1.78,0.89 -2.85,0.8 -3.85,0.69 -0.99,-0.12 -1.89,-0.27 -2.82,-0.97 -0.92,-0.7 -1.87,-1.95 -3.9,-5.24 -2.03,-3.29 -5.15,-8.6 -10.73,-17.6 -5.58,-8.99 -13.63,-21.66 -19.3,-30.74 -5.67,-9.08 -8.96,-14.58 -10.8,-17.84 -1.84,-3.26 -2.23,-4.28 -2.28,-5.12 -0.05,-0.84 0.25,-1.51 0.87,-2.3 0.61,-0.8 1.54,-1.72 4.14,-3.49z"/>
    <path class="fil3 str0" d="M675.6 2424.79c-4.93,2.89 -9.86,5.77 -12.54,7.52 -2.68,1.75 -3.1,2.36 -3.33,3.03 -0.23,0.67 -0.27,1.41 -0.02,2.26 0.25,0.85 0.8,1.82 1.43,2.72 0.63,0.91 1.36,1.76 5.65,8.37 4.29,6.61 12.15,18.97 18.78,29.4 6.63,10.43 12.02,18.92 15.57,25.19 3.55,6.28 5.25,10.33 6.56,14.44 1.31,4.11 2.24,8.27 3.04,12.92 0.81,4.65 1.51,9.8 2.71,14.91 1.2,5.12 2.91,10.22 5.6,14.56 2.69,4.34 6.38,7.94 11.23,10.54 4.85,2.6 10.86,4.22 16.52,4.92 5.66,0.7 10.98,0.48 15.54,-0.31 4.57,-0.79 8.39,-2.15 12.99,-4.58 4.6,-2.44 10,-5.95 14.35,-9.82 4.35,-3.87 7.67,-8.09 10.18,-12.68 2.51,-4.59 4.2,-9.55 5.23,-14.42 1.03,-4.87 1.41,-9.65 0.89,-13.83 -0.52,-4.19 -1.93,-7.78 -4.91,-11.55 -2.98,-3.77 -7.54,-7.73 -12.18,-11.5 -4.64,-3.77 -9.36,-7.36 -13.03,-10.52 -3.67,-3.15 -6.28,-5.86 -9.11,-9.08 -2.83,-3.22 -5.89,-6.95 -9.4,-12.08 -3.51,-5.13 -7.48,-11.66 -12.09,-18.8 -4.61,-7.13 -9.86,-14.87 -14.12,-21.51 -4.27,-6.64 -7.55,-12.17 -9.26,-15.87 -1.7,-3.7 -1.83,-5.57 -2.35,-6.87 -0.52,-1.3 -1.42,-2.03 -2.37,-2.28 -0.95,-0.25 -1.95,-0.02 -3.3,0.62 -1.35,0.64 -3.05,1.7 -4.55,2.65 -1.5,0.95 -2.79,1.79 -4.46,2.85 -1.67,1.07 -3.72,2.37 -5.77,3.67 1.64,2.48 3.28,4.97 4.93,7.45 1.49,-0.48 2.97,-0.96 4.24,-0.49 1.26,0.47 2.31,1.88 3.67,3.98 1.36,2.1 3.03,4.89 5.77,9.31 2.73,4.42 6.53,10.48 10.27,16.47 3.74,5.99 7.43,11.93 9.48,15.32 2.05,3.4 2.44,4.26 2.76,5.2 0.32,0.94 0.55,1.96 -0.66,3.33 -1.21,1.37 -3.87,3.1 -6.09,4.54 -2.22,1.44 -3.99,2.6 -6.77,4.37 -2.79,1.77 -6.58,4.16 -9.04,5.66 -2.46,1.5 -3.57,2.11 -4.57,2.4 -1,0.29 -1.87,0.27 -2.7,-0.08 -0.83,-0.35 -1.61,-1.03 -2.96,-2.8 -1.34,-1.77 -3.24,-4.64 -5.2,-7.63 -1.96,-3 -3.97,-6.14 -6.53,-10.18 -2.56,-4.04 -5.67,-8.98 -8.07,-12.87 -2.4,-3.89 -4.1,-6.72 -5.7,-9.52 -1.6,-2.79 -3.1,-5.55 -3.35,-7.43 -0.25,-1.88 0.74,-2.89 1.73,-3.9 -1.57,-2.67 -3.14,-5.34 -4.7,-8.01z"/>
    <ellipse class="fil1 str0" transform="matrix(0.104388 -0.0655196 0.0655196 0.104388 758.655 2534.91)" rx="283.68" ry="170.61"/>
    <path class="fil1 str0" d="M663.23 2442.93c-5.02,-1.23 -10.05,-2.45 -13.96,-5.3 -3.91,-2.85 -6.72,-7.32 -8.87,-11.16 -2.15,-3.84 -3.65,-7.06 -4.46,-9.79 -0.81,-2.74 -0.93,-5 -0.49,-7.29 0.45,-2.29 1.45,-4.61 3.37,-7.76 1.92,-3.15 4.74,-7.13 7.63,-11.21 2.89,-4.08 5.84,-8.27 8.49,-11.3 2.65,-3.02 4.98,-4.88 7.55,-6.17 2.57,-1.29 5.36,-2 9.14,-2.81 3.77,-0.81 8.53,-1.72 12.83,-2.41 4.31,-0.69 8.16,-1.16 11.3,-1.12 3.14,0.04 5.57,0.59 7.67,1.67 2.11,1.08 3.89,2.69 6.17,5.28 2.28,2.59 5.04,6.18 7.41,9.43 2.37,3.25 4.33,6.18 4.81,10.15 0.49,3.98 -0.51,9.01 -1.5,14.05 -0.87,-1.79 -1.73,-3.59 -2.6,-4.86 -0.86,-1.27 -1.73,-2.03 -3.16,-1.72 -1.43,0.31 -3.42,1.69 -6.08,3.44 -2.67,1.75 -6.02,3.86 -9.36,5.98 -4.34,-7.54 -8.69,-15.08 -11.9,-20.61 -3.21,-5.52 -5.28,-9.03 -7.06,-11.35 -1.78,-2.32 -3.28,-3.46 -5.01,-4.06 -1.74,-0.6 -3.72,-0.65 -5.76,0.24 -2.04,0.89 -4.13,2.72 -6.37,4.12 -2.24,1.4 -4.61,2.37 -6.46,3.67 -1.85,1.29 -3.18,2.9 -3.69,4.78 -0.51,1.88 -0.2,4.02 1.28,7.11 1.49,3.09 4.15,7.13 7.74,12.54 3.59,5.41 8.11,12.2 12.63,18.98 -3.42,2 -6.84,4 -9.16,5.26 -2.32,1.26 -3.56,1.78 -4.58,2.74 -1.02,0.96 -1.82,2.37 -1.38,4.03 0.44,1.66 2.12,3.55 3.8,5.45z"/>
    <ellipse class="fil1 str0" transform="matrix(0.104388 -0.0655196 0.0655196 0.104388 652.212 2405.7)" rx="18.73" ry="19.4"/>
    <path class="fil1 str0" d="M658.25 2381.2c2.6,-1.76 6.88,-4.36 9.49,-5.77 2.61,-1.41 3.57,-1.64 4.52,-1.83 0.96,-0.2 1.92,-0.38 2.82,-0.07 0.9,0.31 1.75,1.1 2.78,2.2 1.03,1.11 2.25,2.52 5.82,8.29 3.57,5.77 9.51,15.89 15.32,25.48 5.81,9.59 11.51,18.66 15.46,24.89 3.95,6.22 6.17,9.6 7.35,11.69 1.18,2.08 1.31,2.87 1.28,3.72 -0.04,0.85 -0.24,1.76 -0.78,2.66 -0.54,0.91 -1.4,1.81 -2.9,2.93 -1.5,1.12 -3.64,2.47 -5.96,4.07 -2.31,1.6 -4.79,3.47 -6.57,4.36 -1.78,0.89 -2.85,0.8 -3.85,0.69 -0.99,-0.12 -1.89,-0.27 -2.82,-0.97 -0.92,-0.7 -1.87,-1.95 -3.9,-5.24 -2.03,-3.29 -5.15,-8.6 -10.73,-17.6 -5.58,-8.99 -13.63,-21.66 -19.3,-30.74 -5.67,-9.08 -8.96,-14.58 -10.8,-17.84 -1.84,-3.26 -2.23,-4.28 -2.28,-5.12 -0.05,-0.84 0.25,-1.51 0.87,-2.3 0.61,-0.8 1.54,-1.72 4.14,-3.49z"/>
    <ellipse class="fil1 str0" transform="matrix(0.104388 -0.0655196 0.0655196 0.104388 758.655 2534.91)" rx="283.68" ry="170.61"/>
    <path class="fil1 str0" d="M663.23 2442.93c-5.02,-1.23 -10.05,-2.45 -13.96,-5.3 -3.91,-2.85 -6.72,-7.32 -8.87,-11.16 -2.15,-3.84 -3.65,-7.06 -4.46,-9.79 -0.81,-2.74 -0.93,-5 -0.49,-7.29 0.45,-2.29 1.45,-4.61 3.37,-7.76 1.92,-3.15 4.74,-7.13 7.63,-11.21 2.89,-4.08 5.84,-8.27 8.49,-11.3 2.65,-3.02 4.98,-4.88 7.55,-6.17 2.57,-1.29 5.36,-2 9.14,-2.81 3.77,-0.81 8.53,-1.72 12.83,-2.41 4.31,-0.69 8.16,-1.16 11.3,-1.12 3.14,0.04 5.57,0.59 7.67,1.67 2.11,1.08 3.89,2.69 6.17,5.28 2.28,2.59 5.04,6.18 7.41,9.43 2.37,3.25 4.33,6.18 4.81,10.15 0.49,3.98 -0.51,9.01 -1.5,14.05 -0.87,-1.79 -1.73,-3.59 -2.6,-4.86 -0.86,-1.27 -1.73,-2.03 -3.16,-1.72 -1.43,0.31 -3.42,1.69 -6.08,3.44 -2.67,1.75 -6.02,3.86 -9.36,5.98 -4.34,-7.54 -8.69,-15.08 -11.9,-20.61 -3.21,-5.52 -5.28,-9.03 -7.06,-11.35 -1.78,-2.32 -3.28,-3.46 -5.01,-4.06 -1.74,-0.6 -3.72,-0.65 -5.76,0.24 -2.04,0.89 -4.13,2.72 -6.37,4.12 -2.24,1.4 -4.61,2.37 -6.46,3.67 -1.85,1.29 -3.18,2.9 -3.69,4.78 -0.51,1.88 -0.2,4.02 1.28,7.11 1.49,3.09 4.15,7.13 7.74,12.54 3.59,5.41 8.11,12.2 12.63,18.98 -3.42,2 -6.84,4 -9.16,5.26 -2.32,1.26 -3.56,1.78 -4.58,2.74 -1.02,0.96 -1.82,2.37 -1.38,4.03 0.44,1.66 2.12,3.55 3.8,5.45z"/>
    <ellipse class="fil1 str0" transform="matrix(0.104388 -0.0655196 0.0655196 0.104388 650.256 2406.93)" rx="18.73" ry="19.4"/>
    <path class="fil1 str0" d="M658.25 2381.2c2.6,-1.76 6.88,-4.36 9.49,-5.77 2.61,-1.41 3.57,-1.64 4.52,-1.83 0.96,-0.2 1.92,-0.38 2.82,-0.07 0.9,0.31 1.75,1.1 2.78,2.2 1.03,1.11 2.25,2.52 5.82,8.29 3.57,5.77 9.51,15.89 15.32,25.48 5.81,9.59 11.51,18.66 15.46,24.89 3.95,6.22 6.17,9.6 7.35,11.69 1.18,2.08 1.31,2.87 1.28,3.72 -0.04,0.85 -0.24,1.76 -0.78,2.66 -0.54,0.91 -1.4,1.81 -2.9,2.93 -1.5,1.12 -3.64,2.47 -5.96,4.07 -2.31,1.6 -4.79,3.47 -6.57,4.36 -1.78,0.89 -2.85,0.8 -3.85,0.69 -0.99,-0.12 -1.89,-0.27 -2.82,-0.97 -0.92,-0.7 -1.87,-1.95 -3.9,-5.24 -2.03,-3.29 -5.15,-8.6 -10.73,-17.6 -5.58,-8.99 -13.63,-21.66 -19.3,-30.74 -5.67,-9.08 -8.96,-14.58 -10.8,-17.84 -1.84,-3.26 -2.23,-4.28 -2.28,-5.12 -0.05,-0.84 0.25,-1.51 0.87,-2.3 0.61,-0.8 1.54,-1.72 4.14,-3.49z"/>
    <ellipse class="fil1 str0" transform="matrix(0.104388 -0.0655196 0.0655196 0.104388 758.655 2534.91)" rx="283.68" ry="170.61"/>
    <path class="fil4 str0" d="M663.23 2442.93c-5.02,-1.23 -10.05,-2.45 -13.96,-5.3 -3.91,-2.85 -6.72,-7.32 -8.87,-11.16 -2.15,-3.84 -3.65,-7.06 -4.46,-9.79 -0.81,-2.74 -0.93,-5 -0.49,-7.29 0.45,-2.29 1.45,-4.61 3.37,-7.76 1.92,-3.15 4.74,-7.13 7.63,-11.21 2.89,-4.08 5.84,-8.27 8.49,-11.3 2.65,-3.02 4.98,-4.88 7.55,-6.17 2.57,-1.29 5.36,-2 9.14,-2.81 3.77,-0.81 8.53,-1.72 12.83,-2.41 4.31,-0.69 8.16,-1.16 11.3,-1.12 3.14,0.04 5.57,0.59 7.67,1.67 2.11,1.08 3.89,2.69 6.17,5.28 2.28,2.59 5.04,6.18 7.41,9.43 2.37,3.25 4.33,6.18 4.81,10.15 0.49,3.98 -0.51,9.01 -1.5,14.05 -0.87,-1.79 -1.73,-3.59 -2.6,-4.86 -0.86,-1.27 -1.73,-2.03 -3.16,-1.72 -1.43,0.31 -3.42,1.69 -6.08,3.44 -2.67,1.75 -6.02,3.86 -9.36,5.98 -4.34,-7.54 -8.69,-15.08 -11.9,-20.61 -3.21,-5.52 -5.28,-9.03 -7.06,-11.35 -1.78,-2.32 -3.28,-3.46 -5.01,-4.06 -1.74,-0.6 -3.72,-0.65 -5.76,0.24 -2.04,0.89 -4.13,2.72 -6.37,4.12 -2.24,1.4 -4.61,2.37 -6.46,3.67 -1.85,1.29 -3.18,2.9 -3.69,4.78 -0.51,1.88 -0.2,4.02 1.28,7.11 1.49,3.09 4.15,7.13 7.74,12.54 3.59,5.41 8.11,12.2 12.63,18.98 -3.42,2 -6.84,4 -9.16,5.26 -2.32,1.26 -3.56,1.78 -4.58,2.74 -1.02,0.96 -1.82,2.37 -1.38,4.03 0.44,1.66 2.12,3.55 3.8,5.45z"/>
    <ellipse class="fil1 str0" transform="matrix(0.104388 -0.0655196 0.0655196 0.104388 692.202 2382.96)" rx="18.73" ry="19.4"/>
    <path class="fil4 str0" d="M658.25 2381.2c2.6,-1.76 6.88,-4.36 9.49,-5.77 2.61,-1.41 3.57,-1.64 4.52,-1.83 0.96,-0.2 1.92,-0.38 2.82,-0.07 0.9,0.31 1.75,1.1 2.78,2.2 1.03,1.11 2.25,2.52 5.82,8.29 3.57,5.77 9.51,15.89 15.32,25.48 5.81,9.59 11.51,18.66 15.46,24.89 3.95,6.22 6.17,9.6 7.35,11.69 1.18,2.08 1.31,2.87 1.28,3.72 -0.04,0.85 -0.24,1.76 -0.78,2.66 -0.54,0.91 -1.4,1.81 -2.9,2.93 -1.5,1.12 -3.64,2.47 -5.98,3.97 -2.34,1.5 -4.87,3.17 -6.63,4.05 -1.76,0.89 -2.76,0.99 -3.72,0.97 -0.96,-0.02 -1.9,-0.15 -2.83,-0.85 -0.94,-0.7 -1.88,-1.95 -3.91,-5.23 -2.03,-3.29 -5.15,-8.6 -10.73,-17.6 -5.58,-8.99 -13.63,-21.66 -19.3,-30.74 -5.67,-9.08 -8.96,-14.58 -10.8,-17.84 -1.84,-3.26 -2.23,-4.28 -2.28,-5.12 -0.05,-0.84 0.25,-1.51 0.87,-2.3 0.61,-0.8 1.54,-1.72 4.14,-3.49z"/>
    <ellipse class="fil5 str0" transform="matrix(0.104388 -0.0655196 0.0655196 0.104388 758.655 2534.91)" rx="283.68" ry="170.61"/>
    <path class="fil2 str0" d="M659.78 2308.12c-5.51,-9.05 -11.02,-18.1 -16.53,-27.15 -2.8,1.52 -5.59,3.04 -7.92,4.38 -2.32,1.34 -4.18,2.5 -5.7,3.58 -1.52,1.08 -2.7,2.07 -3.18,3.07 -0.47,1 -0.23,2.01 -0,3.03 0.23,1.02 0.43,2.05 0.46,3.08 0.03,1.03 -0.12,2.06 -0.72,3.12 -0.6,1.07 -1.65,2.17 -2.9,2.67 -1.24,0.49 -2.68,0.37 -3.76,0.4 -1.08,0.03 -1.81,0.21 -2.69,0.83 -0.88,0.62 -1.91,1.67 -1.96,2.94 -0.05,1.27 0.87,2.76 1.82,4.37 0.95,1.6 1.91,3.32 3.19,5.04 1.27,1.72 2.86,3.44 4.1,4.05 1.24,0.61 2.13,0.13 2.83,-0.42 0.71,-0.55 1.23,-1.15 1.73,-1.87 0.5,-0.73 0.97,-1.57 1.55,-2.28 0.57,-0.71 1.25,-1.28 1.96,-1.72 0.71,-0.44 1.45,-0.75 2.23,-0.85 0.78,-0.09 1.6,0.03 2.47,0.31 0.87,0.29 1.8,0.74 2.52,1.39 0.73,0.64 1.25,1.48 1.9,1.91 0.65,0.43 1.44,0.46 2.99,-0.06 1.55,-0.52 3.86,-1.57 6.58,-3.3 2.72,-1.73 5.87,-4.13 9.01,-6.54z"/>
   </g>
  </g>
 </g>
</svg>
