<?xml version="1.0" encoding="UTF-8"?>
<!DOCTYPE svg PUBLIC "-//W3C//DTD SVG 1.1//EN" "http://www.w3.org/Graphics/SVG/1.1/DTD/svg11.dtd">
<!-- Creator: CorelDRAW -->
<svg xmlns="http://www.w3.org/2000/svg" xml:space="preserve" width="125.528mm" height="102.335mm" version="1.1" style="shape-rendering:geometricPrecision; text-rendering:geometricPrecision; image-rendering:optimizeQuality; fill-rule:evenodd; clip-rule:evenodd"
viewBox="0 0 3178.42 2591.16"
 xmlns:xlink="http://www.w3.org/1999/xlink"
 xmlns:xodm="http://www.corel.com/coreldraw/odm/2003">
 <defs>
  <style type="text/css">
   <![CDATA[
    .str0 {stroke:#373435;stroke-width:5.06;stroke-miterlimit:22.9256}
    .fil1 {fill:none}
    .fil3 {fill:#889FAC}
    .fil0 {fill:#6B809B}
    .fil2 {fill:#52658C}
   ]]>
  </style>
 </defs>
 <g id="Слой_x0020_1">
  <metadata id="CorelCorpID_0Corel-Layer"/>
  <g id="_1937552402400">
   <g>
    <path class="fil0 str0" d="M2229.46 10.05c-25.74,60.44 -51.49,120.88 -71.51,178.94 -20.03,58.06 -34.34,113.74 -44.52,176.27 -10.17,62.53 -16.19,131.91 -17.87,195.48 -1.67,63.57 1,121.34 8.2,178.6 7.2,57.27 18.92,114.04 32.85,166.14 13.93,52.1 30.07,99.54 48.82,154.98 18.74,55.44 40.08,118.89 62.79,190.93 22.72,72.04 46.82,152.69 102.55,287.29 55.74,134.6 143.12,323.16 227.13,506.98 84.01,183.82 164.65,362.89 245.3,541.96 117.41,-64.04 234.81,-128.08 352.22,-192.12 -75.7,-251.41 -151.4,-502.83 -212.98,-690.2 -61.57,-187.38 -109.01,-310.71 -155.29,-437.01 -46.28,-126.3 -91.41,-255.57 -172.55,-448.87 -81.14,-193.3 -198.3,-450.65 -271.83,-596.22 -73.52,-145.57 -103.41,-179.36 -133.3,-213.15z"/>
    <path class="fil1 str0" d="M2128.56 873.86c37.05,74.36 74.11,148.71 111.01,232.14 36.91,83.43 73.67,175.93 181.55,418.58 107.88,242.65 286.88,635.45 377.87,831.03 91,195.58 93.99,193.95 94.57,193.63 0.58,-0.32 -1.24,0.68 -3.07,1.68"/>
    <path class="fil0 str0" d="M2229.46 10.05c-25.74,60.44 -51.49,120.88 -71.51,178.94 -20.03,58.06 -34.34,113.74 -44.52,176.27 -10.17,62.53 -16.19,131.91 -17.87,195.48 -1.67,63.57 1,121.34 8.2,178.6 7.2,57.27 18.92,114.04 32.85,166.14 13.93,52.1 30.07,99.54 48.82,154.98 18.74,55.44 40.08,118.89 62.79,190.93 22.72,72.04 46.82,152.69 102.55,287.29 55.74,134.6 143.12,323.16 227.13,506.98 84.01,183.82 164.65,362.89 245.3,541.96 117.41,-64.04 234.81,-128.08 352.22,-192.12 -75.7,-251.41 -151.4,-502.83 -212.98,-690.2 -61.57,-187.38 -109.01,-310.71 -155.29,-437.01 -46.28,-126.3 -91.41,-255.57 -172.55,-448.87 -81.14,-193.3 -198.3,-450.65 -271.83,-596.22 -73.52,-145.57 -103.41,-179.36 -133.3,-213.15z"/>
    <path class="fil1 str0" d="M2128.56 873.86c37.05,74.36 74.11,148.71 111.01,232.14 36.91,83.43 73.67,175.93 181.55,418.58 107.88,242.65 286.88,635.45 377.87,831.03 91,195.58 93.99,193.95 94.57,193.63 0.58,-0.32 -1.24,0.68 -3.07,1.68"/>
   </g>
   <g>
    <path class="fil0 str0" d="M402.15 3.86c5.91,9.4 11.83,18.8 18.68,31.48 6.85,12.68 14.65,28.63 22.71,45.53 8.07,16.89 16.42,34.7 24.64,54.99 8.22,20.28 16.31,43.03 25.93,77.46 9.63,34.42 20.78,80.52 29.05,122.92 8.27,42.4 13.66,81.11 16.75,132.84 3.1,51.73 3.91,116.5 1.49,175.54 -2.43,59.04 -8.09,112.36 -18.43,165.47 -10.34,53.11 -25.34,106.02 -37.57,145.98 -12.22,39.96 -21.66,66.98 -31.09,94 -14.56,39.35 -29.11,78.69 -47.73,125.21 -18.61,46.52 -41.28,100.21 -63.95,153.9 194.78,325.14 389.56,650.27 584.34,975.41 -80.24,63.83 -160.47,127.66 -240.71,191.5 -7.76,-13.72 -15.51,-27.44 -23.27,-41.17 -51.9,37.59 -103.8,75.17 -155.71,112.76 -86.5,-138.41 -173.01,-276.81 -235.65,-375.85 -62.64,-99.03 -101.42,-158.69 -140.2,-218.34 -14.91,-143.78 -29.83,-287.55 -41.76,-398.51 -11.93,-110.96 -20.88,-189.12 -34.9,-315.29 -14.02,-126.18 -33.11,-300.38 -52.2,-474.58 35.2,-85.91 70.4,-171.82 109.47,-258.02 39.08,-86.21 82.03,-172.71 116.63,-241.61 34.6,-68.9 60.85,-120.21 81.13,-157.87 20.28,-37.66 34.6,-61.68 48.99,-80.02 14.39,-18.34 28.86,-31.03 43.33,-43.7z"/>
    <path class="fil1 str0" d="M84.54 1527.38c192.82,309.17 385.64,618.35 578.46,927.52"/>
    <path class="fil1 str0" d="M2.59 785.09c113.35,181.36 226.7,362.72 340.05,544.08"/>
    <path class="fil1 str0" d="M511.16 863.43c-65.91,139.67 -131.82,279.33 -197.73,419"/>
    <ellipse class="fil2 str0" cx="645.98" cy="2275.94" rx="34" ry="33.11"/>
    <ellipse class="fil2 str0" cx="694.3" cy="2352.9" rx="34" ry="33.11"/>
    <path class="fil3 str0" d="M48.59 1216.18c32.83,5.23 65.66,10.46 89.68,18.34 24.03,7.88 39.26,18.43 56.5,30.37 17.24,11.93 36.48,25.25 62.1,51.14 25.61,25.89 57.59,64.35 73.49,100.82 15.92,36.46 15.77,70.93 14.15,103.43 -1.62,32.48 -4.71,62.98 -20.62,93.48 -15.91,30.5 -44.65,61 -76.25,74.92 -31.6,13.92 -66.08,11.28 -90.96,6.12 -24.87,-5.17 -40.16,-12.84 -55.43,-20.51 -17.55,-152.71 -35.1,-305.41 -52.65,-458.12z"/>
   </g>
  </g>
 </g>
</svg>
