<?xml version="1.0" encoding="UTF-8"?>
<!DOCTYPE svg PUBLIC "-//W3C//DTD SVG 1.1//EN" "http://www.w3.org/Graphics/SVG/1.1/DTD/svg11.dtd">
<!-- Creator: CorelDRAW -->
<svg xmlns="http://www.w3.org/2000/svg" xml:space="preserve" width="125.179mm" height="102.29mm" version="1.1" style="shape-rendering:geometricPrecision; text-rendering:geometricPrecision; image-rendering:optimizeQuality; fill-rule:evenodd; clip-rule:evenodd"
viewBox="0 0 3165.22 2586.45"
 xmlns:xlink="http://www.w3.org/1999/xlink"
 xmlns:xodm="http://www.corel.com/coreldraw/odm/2003">
 <defs>
  <style type="text/css">
   <![CDATA[
    .str0 {stroke:#373435;stroke-width:5.06;stroke-miterlimit:22.9256}
    .str1 {stroke:#373435;stroke-width:5.06;stroke-miterlimit:22.9256;stroke-dasharray:25.285530 25.285530}
    .fil1 {fill:none}
    .fil3 {fill:#889FAC}
    .fil0 {fill:#6B809B}
    .fil2 {fill:#52658C}
   ]]>
  </style>
 </defs>
 <g id="Слой_x0020_1">
  <metadata id="CorelCorpID_0Corel-Layer"/>
  <g id="_1973743200512">
   <path class="fil0 str0" d="M2217.56 8.89c-25.71,60.36 -51.42,120.71 -71.42,178.7 -20,57.98 -34.29,113.59 -44.45,176.03 -10.15,62.44 -16.17,131.72 -17.85,195.21 -1.67,63.48 1,121.17 8.18,178.36 7.19,57.19 18.89,113.88 32.81,165.91 13.91,52.03 30.03,99.41 48.75,154.77 18.71,55.37 40.02,118.72 62.71,190.66 22.69,71.94 46.75,152.48 102.41,286.89 55.66,134.42 142.92,322.72 226.82,506.28 83.89,183.57 164.43,362.39 244.96,541.22 117.24,-63.95 234.49,-127.9 351.73,-191.85 -75.6,-251.07 -151.19,-502.14 -212.68,-689.25 -61.48,-187.12 -108.86,-310.28 -155.08,-436.41 -46.22,-126.13 -91.29,-255.21 -172.32,-448.25 -81.03,-193.04 -198.03,-450.03 -271.45,-595.4 -73.42,-145.37 -103.27,-179.12 -133.12,-212.86z"/>
   <g>
    <path class="fil0 str0" d="M398.96 3.85c5.87,9.32 11.73,18.65 18.53,31.23 6.8,12.57 14.53,28.41 22.53,45.17 8.01,16.75 16.29,34.43 24.44,54.55 8.16,20.12 16.18,42.69 25.73,76.84 9.55,34.15 20.62,79.88 28.82,121.94 8.21,42.07 13.55,80.46 16.62,131.78 3.08,51.32 3.88,115.57 1.48,174.14 -2.41,58.57 -8.03,111.47 -18.29,164.16 -10.25,52.69 -25.14,105.18 -37.27,144.82 -12.12,39.65 -21.48,66.45 -30.84,93.25 -14.44,39.03 -28.88,78.06 -47.35,124.21 -18.46,46.15 -40.95,99.41 -63.44,152.68 193.23,322.55 386.46,645.1 579.69,967.65 -79.6,63.32 -159.19,126.65 -238.79,189.97 -7.69,-13.61 -15.39,-27.22 -23.08,-40.84 -51.49,37.29 -102.98,74.57 -154.47,111.86 -85.81,-137.31 -171.63,-274.61 -233.77,-372.86 -62.14,-98.24 -100.61,-157.43 -139.08,-216.61 -14.8,-142.63 -29.59,-285.26 -41.43,-395.34 -11.84,-110.08 -20.72,-187.61 -34.62,-312.79 -13.91,-125.17 -32.85,-297.98 -51.78,-470.8 34.92,-85.22 69.84,-170.45 108.6,-255.97 38.77,-85.52 81.38,-171.34 115.7,-239.69 34.33,-68.36 60.37,-119.25 80.49,-156.61 20.12,-37.36 34.33,-61.19 48.6,-79.38 14.28,-18.2 28.63,-30.78 42.98,-43.35z"/>
    <path class="fil1 str0" d="M83.88 1515.26c191.29,306.72 382.58,613.43 573.86,920.15"/>
    <path class="fil1 str0" d="M2.58 778.86c112.45,179.92 224.9,359.84 337.34,539.75"/>
    <path class="fil1 str0" d="M507.11 856.59c-65.39,138.56 -130.77,277.11 -196.16,415.66"/>
    <ellipse class="fil2 str0" cx="555.63" cy="2113.15" rx="33.73" ry="32.84"/>
    <ellipse class="fil2 str0" cx="601.79" cy="2183.29" rx="33.73" ry="32.84"/>
    <ellipse class="fil2 str0" cx="640.86" cy="2257.86" rx="33.73" ry="32.84"/>
    <ellipse class="fil2 str0" cx="688.79" cy="2334.2" rx="33.73" ry="32.84"/>
    <path class="fil3 str0" d="M48.22 1206.53c32.57,5.19 65.14,10.37 88.97,18.2 23.83,7.82 38.94,18.29 56.05,30.13 17.1,11.83 36.19,25.05 61.6,50.74 25.41,25.69 57.13,63.84 72.91,100.02 15.79,36.17 15.65,70.37 14.04,102.61 -1.6,32.23 -4.67,62.48 -20.46,92.74 -15.78,30.26 -44.29,60.51 -75.64,74.32 -31.35,13.81 -65.56,11.19 -90.23,6.07 -24.68,-5.12 -39.84,-12.74 -54.99,-20.34 -17.41,-151.49 -34.82,-302.98 -52.23,-454.48z"/>
    <path class="fil1 str1" d="M51.97 1239.14c25.11,3.26 50.23,6.52 75.07,15.1 24.84,8.58 49.4,22.49 74.26,42.47 24.86,19.97 50.01,46.01 67.32,69.98 17.31,23.97 26.78,45.87 33.15,66.73 6.36,20.86 9.62,40.69 10.5,61.26 0.89,20.56 -0.59,41.87 -7.1,64.07 -6.51,22.19 -18.05,45.28 -34.03,60.22 -15.98,14.94 -36.4,21.75 -56.37,25.44 -19.98,3.7 -39.5,4.29 -58.15,0.89 -18.64,-3.41 -36.4,-10.8 -54.15,-18.2"/>
    <path class="fil1 str1" d="M51.97 1239.14c25.11,3.26 50.23,6.52 75.07,15.1 24.84,8.58 49.4,22.49 74.26,42.47 24.86,19.97 50.01,46.01 67.32,69.98 17.31,23.97 26.78,45.87 33.15,66.73 6.36,20.86 9.62,40.69 10.5,61.26 0.89,20.56 -0.59,41.87 -7.1,64.07 -6.51,22.19 -18.05,45.28 -34.03,60.22 -15.98,14.94 -36.4,21.75 -56.37,25.44 -19.98,3.7 -39.5,4.29 -58.15,0.89 -18.64,-3.41 -36.4,-10.8 -54.15,-18.2"/>
    <ellipse class="fil2 str0" cx="555.63" cy="2113.15" rx="33.73" ry="32.84"/>
    <ellipse class="fil2 str0" cx="601.79" cy="2183.29" rx="33.73" ry="32.84"/>
    <ellipse class="fil2 str0" cx="640.86" cy="2257.86" rx="33.73" ry="32.84"/>
    <ellipse class="fil2 str0" cx="688.79" cy="2334.2" rx="33.73" ry="32.84"/>
    <ellipse class="fil2 str0" cx="555.63" cy="2113.15" rx="33.73" ry="32.84"/>
    <ellipse class="fil2 str0" cx="601.79" cy="2183.29" rx="33.73" ry="32.84"/>
    <ellipse class="fil2 str0" cx="640.86" cy="2257.86" rx="33.73" ry="32.84"/>
    <ellipse class="fil2 str0" cx="688.79" cy="2334.2" rx="33.73" ry="32.84"/>
    <ellipse class="fil2 str0" cx="555.63" cy="2113.15" rx="33.73" ry="32.84"/>
    <ellipse class="fil2 str0" cx="601.79" cy="2183.29" rx="33.73" ry="32.84"/>
    <ellipse class="fil2 str0" cx="640.86" cy="2257.86" rx="33.73" ry="32.84"/>
    <ellipse class="fil2 str0" cx="688.79" cy="2334.2" rx="33.73" ry="32.84"/>
   </g>
  </g>
 </g>
</svg>
