<?xml version="1.0" encoding="UTF-8"?>
<!DOCTYPE svg PUBLIC "-//W3C//DTD SVG 1.1//EN" "http://www.w3.org/Graphics/SVG/1.1/DTD/svg11.dtd">
<!-- Creator: CorelDRAW -->
<svg xmlns="http://www.w3.org/2000/svg" xml:space="preserve" width="125.43mm" height="102.635mm" version="1.1" style="shape-rendering:geometricPrecision; text-rendering:geometricPrecision; image-rendering:optimizeQuality; fill-rule:evenodd; clip-rule:evenodd"
viewBox="0 0 3174.69 2597.73"
 xmlns:xlink="http://www.w3.org/1999/xlink"
 xmlns:xodm="http://www.corel.com/coreldraw/odm/2003">
 <defs>
  <style type="text/css">
   <![CDATA[
    .str0 {stroke:#373435;stroke-width:5.06;stroke-miterlimit:22.9256}
    .fil1 {fill:none}
    .fil3 {fill:#889FAC}
    .fil0 {fill:#6B809B}
    .fil2 {fill:#52658C}
   ]]>
  </style>
 </defs>
 <g id="Слой_x0020_1">
  <metadata id="CorelCorpID_0Corel-Layer"/>
  <g id="_1973742090064">
   <path class="fil0 str0" d="M2226.09 17.63c-25.73,60.42 -51.47,120.83 -71.49,178.87 -20.02,58.03 -34.33,113.7 -44.5,176.2 -10.16,62.5 -16.19,131.86 -17.87,195.4 -1.67,63.55 1,121.29 8.19,178.54 7.19,57.24 18.91,113.99 32.84,166.07 13.93,52.08 30.06,99.51 48.8,154.92 18.73,55.42 40.06,118.84 62.77,190.85 22.71,72.02 46.8,152.63 102.52,287.18 55.72,134.55 143.06,323.04 227.04,506.78 83.98,183.75 164.59,362.75 245.2,541.75 117.36,-64.01 234.72,-128.03 352.08,-192.04 -75.67,-251.32 -151.34,-502.63 -212.89,-689.93 -61.55,-187.3 -108.96,-310.59 -155.23,-436.84 -46.27,-126.25 -91.38,-255.47 -172.49,-448.7 -81.11,-193.23 -198.23,-450.47 -271.72,-595.98 -73.49,-145.51 -103.37,-179.29 -133.25,-213.07z"/>
   <g>
    <path class="fil0 str0" d="M402.42 3.86c5.92,9.4 11.84,18.81 18.69,31.5 6.86,12.69 14.65,28.66 22.73,45.56 8.08,16.9 16.43,34.73 24.66,55.03 8.23,20.3 16.32,43.06 25.95,77.51 9.63,34.45 20.8,80.57 29.07,123 8.27,42.43 13.66,81.16 16.76,132.93 3.1,51.77 3.92,116.58 1.49,175.65 -2.42,59.08 -8.1,112.44 -18.44,165.59 -10.34,53.15 -25.36,106.09 -37.59,146.08 -12.23,39.99 -21.67,67.03 -31.11,94.07 -14.57,39.37 -29.13,78.74 -47.76,125.29 -18.63,46.55 -41.31,100.28 -64,154.01 194.91,325.36 389.82,650.72 584.74,976.08 -80.29,63.88 -160.58,127.75 -240.87,191.63 -7.76,-13.73 -15.52,-27.46 -23.28,-41.19 -51.94,37.61 -103.88,75.22 -155.81,112.83 -86.56,-138.5 -173.13,-277.01 -235.81,-376.11 -62.68,-99.1 -101.49,-158.8 -140.29,-218.5 -14.93,-143.88 -29.85,-287.75 -41.79,-398.79 -11.94,-111.04 -20.9,-189.25 -34.93,-315.51 -14.03,-126.26 -33.13,-300.58 -52.24,-474.9 35.22,-85.97 70.44,-171.93 109.55,-258.2 39.1,-86.26 82.09,-172.83 116.71,-241.78 34.63,-68.95 60.89,-120.3 81.19,-157.98 20.3,-37.69 34.62,-61.72 49.03,-80.08 14.4,-18.36 28.88,-31.05 43.36,-43.73z"/>
    <path class="fil1 str0" d="M84.59 1528.43c192.95,309.39 385.91,618.78 578.86,928.16"/>
    <path class="fil1 str0" d="M2.59 785.62c113.43,181.48 226.86,362.97 340.28,544.45"/>
    <path class="fil1 str0" d="M511.51 864.02c-65.96,139.76 -131.91,279.52 -197.87,419.29"/>
    <ellipse class="fil2 str0" cx="560.45" cy="2131.53" rx="34.03" ry="33.13"/>
    <ellipse class="fil2 str0" cx="607.02" cy="2202.28" rx="34.03" ry="33.13"/>
    <ellipse class="fil2 str0" cx="646.42" cy="2277.5" rx="34.03" ry="33.13"/>
    <ellipse class="fil2 str0" cx="694.78" cy="2354.51" rx="34.03" ry="33.13"/>
    <path class="fil3 str0" d="M48.62 1217.02c32.85,5.23 65.71,10.46 89.75,18.36 24.04,7.89 39.28,18.45 56.53,30.39 17.25,11.94 36.51,25.27 62.14,51.18 25.63,25.91 57.62,64.4 73.54,100.89 15.93,36.49 15.78,70.99 14.16,103.5 -1.62,32.51 -4.71,63.03 -20.64,93.55 -15.92,30.52 -44.68,61.04 -76.3,74.97 -31.63,13.93 -66.13,11.28 -91.02,6.12 -24.89,-5.17 -40.19,-12.85 -55.47,-20.52 -17.57,-152.81 -35.13,-305.62 -52.69,-458.44z"/>
   </g>
  </g>
 </g>
</svg>
