<?xml version="1.0" encoding="UTF-8"?>
<!DOCTYPE svg PUBLIC "-//W3C//DTD SVG 1.0//EN" "http://www.w3.org/TR/2001/REC-SVG-20010904/DTD/svg10.dtd">
<!-- Creator: CorelDRAW -->
<svg xmlns="http://www.w3.org/2000/svg" xml:space="preserve" width="94.1154mm" height="77.0002mm" version="1.0" style="shape-rendering:geometricPrecision; text-rendering:geometricPrecision; image-rendering:optimizeQuality; fill-rule:evenodd; clip-rule:evenodd"
viewBox="0 0 2688.87 2199.89"
 xmlns:xlink="http://www.w3.org/1999/xlink"
 xmlns:xodm="http://www.corel.com/coreldraw/odm/2003">
 <defs>
  <style type="text/css">
   <![CDATA[
    .str0 {stroke:#373435;stroke-width:5.71;stroke-miterlimit:22.9256}
    .fil1 {fill:none}
    .fil0 {fill:#6B809B}
    .fil2 {fill:#52658C}
   ]]>
  </style>
 </defs>
 <g id="Слой_x0020_1">
  <metadata id="CorelCorpID_0Corel-Layer"/>
  <g id="_2007875056112">
   <g>
    <path class="fil0 str0" d="M1881.52 5.28c-21.88,51.37 -43.76,102.73 -60.78,152.08 -17.02,49.34 -29.19,96.67 -37.83,149.81 -8.64,53.14 -13.76,112.11 -15.19,166.13 -1.42,54.03 0.85,103.12 6.97,151.79 6.12,48.67 16.08,96.92 27.92,141.2 11.84,44.28 25.56,84.6 41.49,131.72 15.93,47.12 34.06,101.04 53.37,162.26 19.31,61.23 39.79,129.76 87.16,244.16 47.37,114.4 121.63,274.65 193.03,430.87 71.4,156.22 139.94,308.42 208.47,460.6 99.78,-54.43 199.56,-108.85 299.34,-163.28 -64.34,-213.67 -128.68,-427.34 -181,-586.59 -52.33,-159.25 -92.64,-264.06 -131.98,-371.4 -39.34,-107.34 -77.69,-217.2 -146.65,-381.49 -68.96,-164.29 -168.53,-383 -231.02,-506.71 -62.49,-123.72 -87.89,-152.44 -113.29,-181.16z"/>
    <path class="fil1 str0" d="M1795.77 739.41c31.49,63.19 62.98,126.39 94.35,197.3 31.37,70.9 62.61,149.52 154.29,355.74 91.69,206.22 243.81,540.05 321.15,706.27 77.34,166.22 79.88,164.83 80.37,164.57 0.49,-0.27 -1.06,0.58 -2.61,1.43"/>
    <path class="fil0 str0" d="M1881.52 5.28c-21.88,51.37 -43.76,102.73 -60.78,152.08 -17.02,49.34 -29.19,96.67 -37.83,149.81 -8.64,53.14 -13.76,112.11 -15.19,166.13 -1.42,54.03 0.85,103.12 6.97,151.79 6.12,48.67 16.08,96.92 27.92,141.2 11.84,44.28 25.56,84.6 41.49,131.72 15.93,47.12 34.06,101.04 53.37,162.26 19.31,61.23 39.79,129.76 87.16,244.16 47.37,114.4 121.63,274.65 193.03,430.87 71.4,156.22 139.94,308.42 208.47,460.6 99.78,-54.43 199.56,-108.85 299.34,-163.28 -64.34,-213.67 -128.68,-427.34 -181,-586.59 -52.33,-159.25 -92.64,-264.06 -131.98,-371.4 -39.34,-107.34 -77.69,-217.2 -146.65,-381.49 -68.96,-164.29 -168.53,-383 -231.02,-506.71 -62.49,-123.72 -87.89,-152.44 -113.29,-181.16z"/>
    <path class="fil1 str0" d="M1795.77 739.41c31.49,63.19 62.98,126.39 94.35,197.3 31.37,70.9 62.61,149.52 154.29,355.74 91.69,206.22 243.81,540.05 321.15,706.27 77.34,166.22 79.88,164.83 80.37,164.57 0.49,-0.27 -1.06,0.58 -2.61,1.43"/>
   </g>
   <g>
    <path class="fil0 str0" d="M340.43 7.49c5,7.94 9.99,15.88 15.78,26.59 5.79,10.71 12.37,24.19 19.18,38.46 6.82,14.26 13.87,29.32 20.81,46.45 6.95,17.13 13.78,36.35 21.91,65.43 8.13,29.08 17.56,68.01 24.54,103.83 6.99,35.82 11.53,68.51 14.15,112.21 2.62,43.7 3.31,98.41 1.26,148.28 -2.05,49.87 -6.84,94.91 -15.57,139.78 -8.73,44.87 -21.41,89.56 -31.73,123.32 -10.32,33.76 -18.29,56.58 -26.26,79.4 -12.3,33.24 -24.59,66.47 -40.32,105.77 -15.72,39.3 -34.87,84.65 -54.02,130 164.53,274.65 329.07,549.3 493.6,823.95 -67.78,53.92 -135.55,107.84 -203.33,161.76 -6.55,-11.59 -13.1,-23.18 -19.65,-34.77 -43.84,31.75 -87.69,63.5 -131.53,95.25 -73.07,-116.91 -146.14,-233.83 -199.06,-317.49 -52.91,-83.65 -85.67,-134.05 -118.43,-184.44 -12.6,-121.45 -25.2,-242.9 -35.28,-336.63 -10.08,-93.73 -17.64,-159.75 -29.48,-266.33 -11.84,-106.58 -27.97,-253.73 -44.09,-400.88 29.73,-72.57 59.47,-145.14 92.47,-217.95 33.01,-72.82 69.29,-145.89 98.52,-204.09 29.23,-58.21 51.4,-101.55 68.54,-133.36 17.13,-31.81 29.23,-52.1 41.39,-67.6 12.16,-15.5 24.38,-26.21 36.6,-36.92z"/>
    <path class="fil1 str0" d="M72.14 1294.44c162.88,261.17 325.76,522.33 488.64,783.5"/>
    <path class="fil1 str0" d="M2.92 667.4c95.75,153.2 191.5,306.4 287.25,459.6"/>
    <path class="fil1 str0" d="M432.52 733.59c-55.68,117.98 -111.35,235.96 -167.03,353.94"/>
    <ellipse class="fil2 str0" cx="473.84" cy="1803.54" rx="28.72" ry="27.97"/>
    <ellipse class="fil2 str0" cx="513.14" cy="1863.26" rx="28.72" ry="27.97"/>
    <ellipse class="fil2 str0" cx="546.41" cy="1926.76" rx="28.72" ry="27.97"/>
    <ellipse class="fil2 str0" cx="587.22" cy="1991.77" rx="28.72" ry="27.97"/>
   </g>
  </g>
 </g>
</svg>
