<?xml version="1.0" encoding="UTF-8"?>
<!DOCTYPE svg PUBLIC "-//W3C//DTD SVG 1.0//EN" "http://www.w3.org/TR/2001/REC-SVG-20010904/DTD/svg10.dtd">
<!-- Creator: CorelDRAW -->
<svg xmlns="http://www.w3.org/2000/svg" xml:space="preserve" width="94.1154mm" height="90.3876mm" version="1.0" style="shape-rendering:geometricPrecision; text-rendering:geometricPrecision; image-rendering:optimizeQuality; fill-rule:evenodd; clip-rule:evenodd"
viewBox="0 0 1293 1241.79"
 xmlns:xlink="http://www.w3.org/1999/xlink"
 xmlns:xodm="http://www.corel.com/coreldraw/odm/2003">
 <defs>
  <style type="text/css">
   <![CDATA[
    .str0 {stroke:#373435;stroke-width:2.75;stroke-miterlimit:22.9256}
    .str1 {stroke:#373435;stroke-width:2.75;stroke-miterlimit:22.9256;stroke-dasharray:27.476951 13.738476}
    .fil1 {fill:none}
    .fil0 {fill:#FEFEFE}
   ]]>
  </style>
 </defs>
 <g id="Слой_x0020_1">
  <metadata id="CorelCorpID_0Corel-Layer"/>
  <g id="_1971828896512">
   <path class="fil0 str0" d="M904.77 124.89c-10.52,24.7 -21.04,49.4 -29.23,73.13 -8.19,23.73 -14.04,46.48 -18.19,72.04 -4.16,25.55 -6.62,53.91 -7.3,79.89 -0.68,25.98 0.41,49.59 3.35,72.99 2.94,23.4 7.73,46.61 13.43,67.9 5.69,21.29 12.29,40.68 19.95,63.34 7.66,22.66 16.38,48.59 25.66,78.03 9.28,29.44 19.13,62.4 41.91,117.41 22.78,55.01 58.49,132.07 92.82,207.19 34.33,75.12 67.29,148.31 100.25,221.49 47.98,-26.17 95.96,-52.34 143.94,-78.52 -30.94,-102.75 -61.88,-205.5 -87.04,-282.07 -25.16,-76.58 -44.55,-126.98 -63.46,-178.6 -18.92,-51.62 -37.36,-104.45 -70.52,-183.45 -33.16,-79 -81.04,-184.17 -111.09,-243.66 -30.05,-59.49 -42.26,-73.3 -54.48,-87.11z"/>
   <path class="fil1 str0" d="M863.54 477.91c15.14,30.39 30.29,60.78 45.37,94.87 15.08,34.1 30.11,71.9 74.2,171.06 44.09,99.17 117.24,259.7 154.43,339.63 37.19,79.93 38.41,79.26 38.65,79.13 0.24,-0.13 -0.51,0.28 -1.26,0.69"/>
   <path class="fil0 str0" d="M904.77 124.89c-10.52,24.7 -21.04,49.4 -29.23,73.13 -8.19,23.73 -14.04,46.48 -18.19,72.04 -4.16,25.55 -6.62,53.91 -7.3,79.89 -0.68,25.98 0.41,49.59 3.35,72.99 2.94,23.4 7.73,46.61 13.43,67.9 5.69,21.29 12.29,40.68 19.95,63.34 7.66,22.66 16.38,48.59 25.66,78.03 9.28,29.44 19.13,62.4 41.91,117.41 22.78,55.01 58.49,132.07 92.82,207.19 34.33,75.12 67.29,148.31 100.25,221.49 47.98,-26.17 95.96,-52.34 143.94,-78.52 -30.94,-102.75 -61.88,-205.5 -87.04,-282.07 -25.16,-76.58 -44.55,-126.98 -63.46,-178.6 -18.92,-51.62 -37.36,-104.45 -70.52,-183.45 -33.16,-79 -81.04,-184.17 -111.09,-243.66 -30.05,-59.49 -42.26,-73.3 -54.48,-87.11z"/>
   <path class="fil1 str0" d="M863.54 477.91c15.14,30.39 30.29,60.78 45.37,94.87 15.08,34.1 30.11,71.9 74.2,171.06 44.09,99.17 117.24,259.7 154.43,339.63 37.19,79.93 38.41,79.26 38.65,79.13 0.24,-0.13 -0.51,0.28 -1.26,0.69"/>
   <ellipse class="fil0 str0" cx="227.86" cy="989.63" rx="13.81" ry="13.45"/>
   <ellipse class="fil0 str0" cx="246.76" cy="1018.34" rx="13.81" ry="13.45"/>
   <ellipse class="fil0 str0" cx="262.75" cy="1048.88" rx="13.81" ry="13.45"/>
   <ellipse class="fil0 str0" cx="282.38" cy="1080.14" rx="13.81" ry="13.45"/>
   <path class="fil0 str0" d="M452.84 364.63c-29.61,-100.88 -59.21,-201.76 -88.82,-302.64 -19.98,6.13 -39.96,12.26 -73.34,22.46 -33.39,10.2 -80.19,24.47 -126.99,38.75 9.69,17.42 19.39,34.84 28.6,59.18 9.21,24.34 17.93,55.6 23.26,84.56 5.33,28.96 7.27,55.61 7.39,85.06 0.12,29.44 -1.57,61.67 -5.33,87.36 -3.76,25.69 -9.57,44.83 -15.27,62.28 -5.69,17.45 -11.27,33.2 -16.84,48.95 2.42,42.17 4.85,84.33 4.36,125.16 -0.48,40.83 -3.88,80.33 -8.12,119.71 -4.24,39.38 -9.33,78.64 -15.63,128.31 -6.3,49.68 -13.81,109.78 -18.54,160.79 -4.73,51.01 -6.67,92.94 -8.6,134.86 28.35,1.7 56.71,3.39 90.27,6.54 33.56,3.15 72.34,7.76 106.26,10.54 33.93,2.79 63,3.76 84.21,2.3 21.2,-1.45 34.53,-5.33 46.29,-13.09 11.75,-7.75 21.93,-19.38 31.62,-33.8 9.69,-14.42 18.9,-31.62 25.81,-50.89 6.91,-19.27 11.51,-40.59 16.72,-61.07 5.21,-20.48 11.03,-40.11 14.9,-62.89 3.88,-22.78 5.82,-48.71 6.79,-75.73 0.97,-27.02 0.97,-55.13 1.21,-83.85 0.24,-28.72 0.73,-58.04 0.73,-82.63 -0,-24.6 -0.49,-44.47 -0.97,-64.34 -8.59,-18.85 -17.18,-37.7 -35.51,-95.35 -18.33,-57.65 -46.39,-154.1 -74.45,-250.55z"/>
   <path class="fil0 str0" d="M637.86 895.39c86.88,-11.6 173.76,-23.2 260.64,-34.8 2.3,27.84 4.6,55.67 6.71,81.47 2.12,25.79 4.06,49.54 5.51,75.95 1.45,26.41 2.42,55.49 2.42,75 0,19.51 -0.97,29.44 -3.88,37.56 -2.91,8.12 -7.75,14.42 -13.69,19.14 -5.94,4.73 -12.96,7.88 -24.23,10.3 -11.27,2.42 -26.78,4.12 -56.7,6.78 -29.93,2.67 -74.28,6.3 -100.69,7.15 -26.41,0.85 -34.89,-1.09 -42.16,-4.72 -7.27,-3.64 -13.33,-8.97 -17.93,-15.02 -4.6,-6.06 -7.75,-12.84 -9.45,-24.84 -1.7,-12 -1.94,-29.2 -2.3,-51.01 -0.36,-21.81 -0.85,-48.22 -1.57,-79.49 -0.73,-31.26 -1.7,-67.37 -2.67,-103.48z"/>
   <path class="fil1 str1" d="M653.85 909.93c-0.24,44.59 -0.48,89.18 -0.73,124.92 -0.24,35.74 -0.48,62.64 1.94,79.61 2.42,16.96 7.51,23.99 12.72,30.53 5.21,6.54 10.54,12.6 16.6,15.75 6.06,3.15 12.84,3.39 30.29,3.03 17.45,-0.36 45.56,-1.33 72.21,-3.64 26.66,-2.3 51.86,-5.94 69.19,-9.94 17.33,-4 26.78,-8.36 33.08,-15.51 6.3,-7.15 9.45,-17.08 10.54,-31.38 1.09,-14.3 0.12,-32.96 -1.21,-55.62 -1.33,-22.66 -3.03,-49.31 -5.09,-77.55 -2.06,-28.23 -4.48,-58.04 -5.82,-72.94 -1.33,-14.9 -1.58,-14.9 -1.82,-14.9"/>
   <path class="fil1 str1" d="M527.35 694.74c-1.7,34.9 -3.39,69.79 -3.88,113.9 -0.48,44.1 0.24,97.42 1.21,130.98 0.97,33.56 2.18,47.38 4.36,63.01 2.18,15.63 5.33,33.08 9.57,51.01 4.24,17.93 9.57,36.35 14.9,53.56 5.33,17.21 10.66,33.2 18.42,48.71 7.76,15.51 17.93,30.53 27.51,40.83 9.57,10.3 18.54,15.87 29.56,19.02 11.03,3.15 24.11,3.88 37.2,4.61"/>
   <path class="fil1 str1" d="M680.74 1233.44c0,-13.09 0,-26.17 0,-39.26 17.69,1.21 35.38,2.42 58.16,1.33 22.78,-1.09 50.65,-4.48 77.3,-7.39 26.66,-2.91 52.1,-5.33 71.12,-7.41 19.02,-2.08 31.62,-3.81 44.22,-5.55"/>
   <path class="fil1 str0" d="M713.95 1173.95c0.86,21.67 1.72,43.33 2.58,65"/>
   <path class="fil1 str0" d="M871.34 1160.02c2.16,21.33 4.32,42.66 6.47,63.99"/>
   <path class="fil1 str0" d="M714.91 539.16c-1.7,33.68 -3.39,67.37 -4.48,103.11 -1.09,35.74 -1.57,73.55 -1.71,114.5 -0.14,40.95 0.07,85.04 0.28,129.13"/>
   <path class="fil1 str0" d="M864.95 485.19c-3.97,12.66 -7.94,25.32 -11.26,40.13 -3.32,14.81 -5.98,31.78 -8.17,49.59 -2.18,17.81 -3.88,36.47 -4.85,55.37 -0.97,18.9 -1.21,38.05 -1.09,59.13 0.12,21.08 0.61,44.1 1.82,65.91 1.21,21.81 3.15,42.41 4.88,60.81 1.73,18.4 3.24,34.6 4.75,50.8"/>
   <ellipse class="fil0 str0" cx="541.61" cy="721.26" rx="14.82" ry="14.92"/>
   <ellipse class="fil0 str0" cx="541.34" cy="871.76" rx="17.99" ry="17.81"/>
   <path class="fil0 str0" d="M434.85 894.46c-86.88,-11.6 -173.76,-23.2 -260.64,-34.8 -2.3,27.84 -4.6,55.67 -6.71,81.47 -2.12,25.79 -4.06,49.54 -5.51,75.95 -1.45,26.41 -2.42,55.49 -2.42,75 0,19.51 0.97,29.44 3.88,37.56 2.91,8.12 7.75,14.42 13.69,19.14 5.94,4.73 12.96,7.88 24.23,10.3 11.27,2.42 26.78,4.12 56.7,6.78 29.93,2.67 74.28,6.3 100.69,7.15 26.41,0.85 34.89,-1.09 42.16,-4.72 7.27,-3.64 13.33,-8.97 17.93,-15.02 4.6,-6.06 7.75,-12.84 9.45,-24.84 1.7,-12 1.94,-29.2 2.3,-51.01 0.36,-21.81 0.85,-48.22 1.57,-79.49 0.73,-31.26 1.7,-67.37 2.67,-103.48z"/>
   <path class="fil0 str0" d="M707.65 63.39c67.12,20.7 134.25,41.4 201.37,62.11 -9.69,16.96 -19.39,33.93 -28.6,58.04 -9.21,24.11 -17.93,55.37 -23.26,84.33 -5.33,28.96 -7.27,55.61 -7.39,85.06 -0.12,29.44 1.57,61.67 5.33,87.36 3.76,25.69 9.57,44.83 15.27,62.28 5.69,17.45 11.27,33.2 16.84,48.95 -2.42,42.17 -4.85,84.33 -4.36,125.16 0.48,40.83 3.88,80.33 8.12,119.71 4.24,39.38 9.33,78.64 15.63,128.31 6.3,49.68 13.81,109.78 18.54,160.79 4.73,51.01 6.67,92.94 8.6,134.86 -28.35,1.7 -56.71,3.39 -90.27,6.54 -33.56,3.15 -72.34,7.76 -106.26,10.54 -33.93,2.79 -63,3.76 -84.21,2.3 -21.2,-1.45 -34.53,-5.33 -46.29,-13.09 -11.75,-7.75 -21.93,-19.38 -31.62,-33.8 -9.69,-14.42 -18.9,-31.62 -25.81,-50.89 -6.91,-19.27 -11.51,-40.59 -16.72,-61.07 -5.21,-20.48 -11.03,-40.11 -14.9,-62.89 -3.88,-22.78 -5.82,-48.71 -6.79,-75.73 -0.97,-27.02 -0.97,-55.13 -1.21,-83.85 -0.24,-28.72 -0.73,-58.04 -0.73,-82.63 0,-24.6 0.49,-44.47 0.97,-64.34 8.67,-19.96 17.35,-39.92 26.02,-59.88 57.24,-196.06 114.48,-392.13 171.72,-588.19z"/>
   <path class="fil0 str0" d="M637.86 895.39c86.88,-11.6 173.76,-23.2 260.64,-34.8 2.3,27.84 4.6,55.67 6.71,81.47 2.12,25.79 4.06,49.54 5.51,75.95 1.45,26.41 2.42,55.49 2.42,75 0,19.51 -0.97,29.44 -3.88,37.56 -2.91,8.12 -7.75,14.42 -13.69,19.14 -5.94,4.73 -12.96,7.88 -24.23,10.3 -11.27,2.42 -26.78,4.12 -56.7,6.78 -29.93,2.67 -74.28,6.3 -100.69,7.15 -26.41,0.85 -34.89,-1.09 -42.16,-4.72 -7.27,-3.64 -13.33,-8.97 -17.93,-15.02 -4.6,-6.06 -7.75,-12.84 -9.45,-24.84 -1.7,-12 -1.94,-29.2 -2.3,-51.01 -0.36,-21.81 -0.85,-48.22 -1.57,-79.49 -0.73,-31.26 -1.7,-67.37 -2.67,-103.48z"/>
   <path class="fil0 str0" d="M650.89 415.66c-0.46,41.2 -0.93,82.4 -0.07,108.03 0.86,25.63 3.04,35.68 9.77,41.33 6.73,5.65 18,6.9 35.22,6.71 17.23,-0.18 40.41,-1.81 55.74,-2.93 15.33,-1.12 22.81,-1.74 28.53,-5.31 5.71,-3.57 9.66,-10.1 11.77,-35.51 2.11,-25.41 2.39,-69.71 2.66,-114.01 -47.87,0.56 -95.74,1.12 -143.62,1.68z"/>
   <path class="fil1 str0" d="M864.95 485.19c-3.97,12.66 -7.94,25.32 -11.26,40.13 -3.32,14.81 -5.98,31.78 -8.17,49.59 -2.18,17.81 -3.88,36.47 -4.85,55.37 -0.97,18.9 -1.21,38.05 -1.09,59.13 0.12,21.08 0.61,44.1 1.82,65.91 1.21,21.81 3.15,42.41 4.88,60.81 1.73,18.4 3.24,34.6 4.75,50.8"/>
   <path class="fil1 str1" d="M665.67 428.31c-0.83,23.7 -1.65,47.41 -2.2,66.01 -0.55,18.6 -0.83,32.11 1.52,41.76 2.34,9.65 7.3,15.44 17.25,17.94 9.95,2.5 24.87,1.72 42.01,1.22 17.13,-0.5 36.48,-0.73 46.32,-6.41 9.84,-5.68 10.18,-16.82 10.27,-28.31 0.09,-11.49 -0.07,-23.32 -0.38,-39.43 -0.31,-16.12 -0.77,-36.51 -1.22,-56.91"/>
   <path class="fil0 str0" d="M650.89 415.66c-0.46,41.2 -0.93,82.4 -0.07,108.03 0.86,25.63 3.04,35.68 9.77,41.33 6.73,5.65 18,6.9 35.22,6.71 17.23,-0.18 40.41,-1.81 55.74,-2.93 15.33,-1.12 22.81,-1.74 28.53,-5.31 5.71,-3.57 9.66,-10.1 11.77,-35.51 2.11,-25.41 2.39,-69.71 2.66,-114.01 -47.87,0.56 -95.74,1.12 -143.62,1.68z"/>
   <path class="fil0 str0" d="M536.67 144.02c0.41,144.8 0.82,289.59 1.23,434.39 14.08,-59.98 28.15,-119.96 40.76,-177.58 12.61,-57.62 23.76,-112.87 31.27,-156.24 7.51,-43.38 11.39,-74.88 15.27,-106.38 -9.06,1.99 -18.13,3.99 -27.87,5.12 -9.74,1.13 -20.17,1.41 -30.39,1.38 -10.22,-0.03 -20.25,-0.36 -30.27,-0.69z"/>
   <path class="fil0 str0" d="M536.15 144.02c10.42,0.23 20.83,0.46 31.03,0.34 10.2,-0.12 20.17,-0.58 29.81,-1.66 9.63,-1.08 18.92,-2.79 28.22,-4.5 1.09,-22.05 2.18,-44.1 3.27,-66.15 -8.72,1.83 -17.45,3.66 -25.32,4.88 -7.87,1.21 -14.9,1.8 -23.87,2.22 -8.97,0.42 -19.87,0.66 -27.27,0.78 -7.41,0.12 -11.31,0.12 -15.21,0.12 -0.21,21.32 -0.43,42.65 -0.64,63.98z"/>
   <path class="fil0 str0" d="M536.79 80.05c14.16,-0.3 28.32,-0.6 39.38,-1.12 11.06,-0.52 19.02,-1.26 27.22,-2.44 8.2,-1.18 16.64,-2.81 25.08,-4.43 0.48,-14.78 0.97,-29.57 1.45,-44.35 -12.84,1.21 -25.69,2.42 -38.29,3.76 -12.6,1.33 -24.96,2.79 -34.2,4 -9.24,1.21 -15.35,2.18 -21.46,3.15 0.27,13.81 0.54,27.63 0.81,41.44z"/>
   <path class="fil0 str0" d="M535.99 38.61c-0.16,-8.72 -0.33,-17.45 -0.49,-26.17 9.42,0.48 18.85,0.97 27.8,0.85 8.95,-0.12 17.43,-0.85 25.31,-2.42 7.88,-1.58 15.15,-4 22.54,-5.94 7.39,-1.94 14.9,-3.39 23.02,-2.18 8.12,1.21 16.84,5.09 29.44,13.33 12.6,8.24 29.08,20.84 45.56,33.44 0,21.81 0,43.62 0.81,61.8 0.81,18.17 2.42,32.72 3.76,44.71 1.33,12 2.38,21.45 3.77,30.28 1.39,8.83 3.11,17.04 4.83,25.26 -20.63,5.6 -41.25,11.2 -61.88,16.8 14.3,8.97 28.6,17.93 42.89,26.9 -16.96,43.13 -33.93,86.27 -54.53,136.43 -20.6,50.16 -44.83,107.35 -68.34,160.67 -23.51,53.31 -46.28,102.75 -69.06,152.19 5.33,-26.66 10.66,-53.31 16.3,-79.8 5.64,-26.48 11.59,-52.8 20.67,-92.58 9.08,-39.79 21.29,-93.05 30.94,-137.01 9.65,-43.96 16.73,-78.62 22.79,-111.02 6.06,-32.39 11.11,-62.51 15.33,-97.48 4.22,-34.97 7.61,-74.79 9.55,-102.09 1.94,-27.3 2.42,-42.08 2.91,-56.86 -12.76,1.25 -25.53,2.5 -37.57,3.8 -12.04,1.29 -23.36,2.63 -32.64,3.82 -9.27,1.19 -16.5,2.24 -23.73,3.29z"/>
   <path class="fil1 str1" d="M693.17 51.69c0.24,16.96 0.48,33.93 1.21,53.31 0.73,19.39 1.94,41.2 3.39,58.16 1.45,16.96 3.15,29.08 4.85,41.2 -19.14,5.09 -38.29,10.18 -57.43,15.27 7.27,9.94 14.54,19.87 21.93,26.41 7.39,6.54 14.9,9.7 22.42,12.85 -31.5,73.67 -63.01,147.34 -89.54,209.74 -26.54,62.4 -48.1,113.53 -69.67,164.66"/>
   <path class="fil1 str0" d="M617.47 186.65c4.88,6.14 9.76,12.29 16.23,18.94 6.48,6.65 14.56,13.82 22.96,20 8.4,6.18 17.11,11.38 25.82,16.57"/>
   <path class="fil0 str0" d="M539.08 143.09c-0.41,144.8 -0.82,289.59 -1.23,434.39 -14.08,-59.98 -28.15,-119.96 -40.76,-177.58 -12.61,-57.62 -23.76,-112.87 -31.27,-156.24 -7.51,-43.38 -11.39,-74.88 -15.27,-106.38 9.06,1.99 18.13,3.99 27.87,5.12 9.74,1.13 20.17,1.41 30.39,1.38 10.22,-0.03 20.25,-0.36 30.27,-0.69z"/>
   <path class="fil0 str0" d="M539.6 143.1c-10.42,0.23 -20.83,0.46 -31.03,0.34 -10.2,-0.12 -20.17,-0.58 -29.81,-1.66 -9.63,-1.08 -18.92,-2.79 -28.22,-4.5 -1.09,-22.05 -2.18,-44.1 -3.27,-66.15 8.72,1.83 17.45,3.66 25.32,4.88 7.87,1.21 14.9,1.8 23.87,2.22 8.97,0.42 19.87,0.66 27.27,0.78 7.41,0.12 11.31,0.12 15.21,0.12 0.21,21.32 0.43,42.65 0.64,63.98z"/>
   <path class="fil0 str0" d="M538.96 79.12c-14.16,-0.3 -28.32,-0.6 -39.38,-1.12 -11.06,-0.52 -19.02,-1.26 -27.22,-2.44 -8.2,-1.18 -16.64,-2.81 -25.08,-4.43 -0.48,-14.78 -0.97,-29.57 -1.45,-44.35 12.84,1.21 25.69,2.42 38.29,3.76 12.6,1.33 24.96,2.79 34.2,4 9.24,1.21 15.35,2.18 21.46,3.15 -0.27,13.81 -0.54,27.63 -0.81,41.44z"/>
   <path class="fil0 str0" d="M539.76 37.68c0.16,-8.72 0.33,-17.45 0.49,-26.17 -9.42,0.48 -18.85,0.97 -27.8,0.85 -8.95,-0.12 -17.43,-0.85 -25.31,-2.42 -7.88,-1.58 -15.15,-4 -22.54,-5.94 -7.39,-1.94 -14.9,-3.39 -23.02,-2.18 -8.12,1.21 -16.84,5.09 -29.44,13.33 -12.6,8.24 -29.08,20.84 -45.56,33.44 0,21.81 0,43.62 -0.81,61.8 -0.81,18.17 -2.42,32.72 -3.76,44.71 -1.33,12 -2.38,21.45 -3.77,30.28 -1.39,8.83 -3.11,17.04 -4.83,25.26 20.63,5.6 41.25,11.2 61.88,16.8 -14.3,8.97 -28.6,17.93 -42.89,26.9 16.96,43.13 33.93,86.27 54.53,136.43 20.6,50.16 44.83,107.35 63.93,151.09 19.09,43.74 33.05,74.02 47,104.31 3.49,-7.51 6.99,-15.01 5.76,-31.92 -1.23,-16.91 -7.18,-43.22 -16.26,-83.01 -9.08,-39.79 -21.29,-93.05 -30.94,-137.01 -9.65,-43.96 -16.73,-78.62 -22.79,-111.02 -6.06,-32.39 -11.11,-62.51 -15.33,-97.48 -4.22,-34.97 -7.61,-74.79 -9.55,-102.09 -1.94,-27.3 -2.42,-42.08 -2.91,-56.86 12.76,1.25 25.53,2.5 37.57,3.8 12.04,1.29 23.36,2.63 32.64,3.82 9.27,1.19 16.5,2.24 23.73,3.29z"/>
   <path class="fil1 str0" d="M458.28 185.73c-4.88,6.14 -9.76,12.29 -16.23,18.94 -6.48,6.65 -14.56,13.82 -22.96,20 -8.4,6.18 -17.11,11.38 -25.82,16.57"/>
   <path class="fil0 str0" d="M536.67 144.02c0.41,144.8 0.82,289.59 1.23,434.39 14.08,-59.98 28.15,-119.96 40.76,-177.58 12.61,-57.62 23.76,-112.87 31.27,-156.24 7.51,-43.38 11.39,-74.88 15.27,-106.38 -9.06,1.99 -18.13,3.99 -27.87,5.12 -9.74,1.13 -20.17,1.41 -30.39,1.38 -10.22,-0.03 -20.25,-0.36 -30.27,-0.69z"/>
   <path class="fil0 str0" d="M536.79 80.05c14.16,-0.3 28.32,-0.6 39.38,-1.12 11.06,-0.52 19.02,-1.26 27.22,-2.44 8.2,-1.18 16.64,-2.81 25.08,-4.43 0.48,-14.78 0.97,-29.57 1.45,-44.35 -12.84,1.21 -25.69,2.42 -38.29,3.76 -12.6,1.33 -24.96,2.79 -34.2,4 -9.24,1.21 -15.35,2.18 -21.46,3.15 0.27,13.81 0.54,27.63 0.81,41.44z"/>
   <path class="fil0 str0" d="M535.99 38.61c-0.16,-8.72 -0.33,-17.45 -0.49,-26.17 9.42,0.48 18.85,0.97 27.8,0.85 8.95,-0.12 17.43,-0.85 25.31,-2.42 7.88,-1.58 15.15,-4 22.54,-5.94 7.39,-1.94 14.9,-3.39 23.02,-2.18 8.12,1.21 16.84,5.09 29.44,13.33 12.6,8.24 29.08,20.84 45.56,33.44 0,21.81 0,43.62 0.81,61.8 0.81,18.17 2.42,32.72 3.76,44.71 1.33,12 2.38,21.45 3.77,30.28 1.39,8.83 3.11,17.04 4.83,25.26 -20.63,5.6 -41.25,11.2 -61.88,16.8 14.3,8.97 28.6,17.93 42.89,26.9 -16.96,43.13 -33.93,86.27 -54.53,136.43 -20.6,50.16 -44.83,107.35 -68.34,160.67 -23.51,53.31 -46.28,102.75 -69.06,152.19 5.33,-26.66 10.66,-53.31 16.3,-79.8 5.64,-26.48 11.59,-52.8 20.67,-92.58 9.08,-39.79 21.29,-93.05 30.94,-137.01 9.65,-43.96 16.73,-78.62 22.79,-111.02 6.06,-32.39 11.11,-62.51 15.33,-97.48 4.22,-34.97 7.61,-74.79 9.55,-102.09 1.94,-27.3 2.42,-42.08 2.91,-56.86 -12.76,1.25 -25.53,2.5 -37.57,3.8 -12.04,1.29 -23.36,2.63 -32.64,3.82 -9.27,1.19 -16.5,2.24 -23.73,3.29z"/>
   <path class="fil1 str0" d="M617.47 186.65c4.88,6.14 9.76,12.29 16.23,18.94 6.48,6.65 14.56,13.82 22.96,20 8.4,6.18 17.11,11.38 25.82,16.57"/>
   <path class="fil0 str0" d="M536.67 144.02c0.41,144.8 0.82,289.59 1.23,434.39 14.08,-59.98 28.15,-119.96 40.76,-177.58 12.61,-57.62 23.76,-112.87 31.27,-156.24 7.51,-43.38 11.39,-74.88 15.27,-106.38 -9.06,1.99 -18.13,3.99 -27.87,5.12 -9.74,1.13 -20.17,1.41 -30.39,1.38 -10.22,-0.03 -20.25,-0.36 -30.27,-0.69z"/>
   <path class="fil0 str0" d="M536.79 80.05c14.16,-0.3 28.32,-0.6 39.38,-1.12 11.06,-0.52 19.02,-1.26 27.22,-2.44 8.2,-1.18 16.64,-2.81 25.08,-4.43 0.48,-14.78 0.97,-29.57 1.45,-44.35 -12.84,1.21 -25.69,2.42 -38.29,3.76 -12.6,1.33 -24.96,2.79 -34.2,4 -9.24,1.21 -15.35,2.18 -21.46,3.15 0.27,13.81 0.54,27.63 0.81,41.44z"/>
   <path class="fil1 str0" d="M617.47 186.65c4.88,6.14 9.76,12.29 16.23,18.94 6.48,6.65 14.56,13.82 22.96,20 8.4,6.18 17.11,11.38 25.82,16.57"/>
   <path class="fil0 str0" d="M539.08 143.09c-0.41,144.8 -0.82,289.59 -1.23,434.39 -14.08,-59.98 -28.15,-119.96 -40.76,-177.58 -12.61,-57.62 -23.76,-112.87 -31.27,-156.24 -7.51,-43.38 -11.39,-74.88 -15.27,-106.38 9.06,1.99 18.13,3.99 27.87,5.12 9.74,1.13 20.17,1.41 30.39,1.38 10.22,-0.03 20.25,-0.36 30.27,-0.69z"/>
   <path class="fil0 str0" d="M538.96 79.12c-14.16,-0.3 -28.32,-0.6 -39.38,-1.12 -11.06,-0.52 -19.02,-1.26 -27.22,-2.44 -8.2,-1.18 -16.64,-2.81 -25.08,-4.43 -0.48,-14.78 -0.97,-29.57 -1.45,-44.35 12.84,1.21 25.69,2.42 38.29,3.76 12.6,1.33 24.96,2.79 34.2,4 9.24,1.21 15.35,2.18 21.46,3.15 -0.27,13.81 -0.54,27.63 -0.81,41.44z"/>
   <path class="fil1 str0" d="M458.28 185.73c-4.88,6.14 -9.76,12.29 -16.23,18.94 -6.48,6.65 -14.56,13.82 -22.96,20 -8.4,6.18 -17.11,11.38 -25.82,16.57"/>
   <path class="fil0 str0" d="M536.67 144.02c0.41,144.8 0.82,289.59 1.23,434.39 14.08,-59.98 28.15,-119.96 40.76,-177.58 12.61,-57.62 23.76,-112.87 31.27,-156.24 7.51,-43.38 11.39,-74.88 15.27,-106.38 -9.06,1.99 -18.13,3.99 -27.87,5.12 -9.74,1.13 -20.17,1.41 -30.39,1.38 -10.22,-0.03 -20.25,-0.36 -30.27,-0.69z"/>
   <path class="fil0 str0" d="M536.79 80.05c14.16,-0.3 28.32,-0.6 39.38,-1.12 11.06,-0.52 19.02,-1.26 27.22,-2.44 8.2,-1.18 16.64,-2.81 25.08,-4.43 0.48,-14.78 0.97,-29.57 1.45,-44.35 -12.84,1.21 -25.69,2.42 -38.29,3.76 -12.6,1.33 -24.96,2.79 -34.2,4 -9.24,1.21 -15.35,2.18 -21.46,3.15 0.27,13.81 0.54,27.63 0.81,41.44z"/>
   <path class="fil1 str0" d="M617.47 186.65c4.88,6.14 9.76,12.29 16.23,18.94 6.48,6.65 14.56,13.82 22.96,20 8.4,6.18 17.11,11.38 25.82,16.57"/>
   <g>
    <path class="fil0" d="M1.4 443.29c46.04,73.67 92.09,147.34 138.13,221.01l-138.13 -221.01zm162.3 -317.34c2.4,3.82 4.8,7.63 7.59,12.79 2.78,5.15 5.95,11.63 9.23,18.49 3.28,6.86 6.67,14.1 10.01,22.34 3.34,8.24 6.63,17.48 10.53,31.46 3.91,13.98 8.44,32.71 11.8,49.93 3.36,17.22 5.55,32.94 6.8,53.96 1.26,21.01 1.59,47.32 0.6,71.3 -0.99,23.98 -3.29,45.64 -7.49,67.22 -4.2,21.57 -10.29,43.07 -15.26,59.3 -4.96,16.23 -8.8,27.21 -12.63,38.18 -5.91,15.98 -11.82,31.96 -19.39,50.86 -7.56,18.9 -16.77,40.71 -25.98,62.52 79.12,132.07 158.24,264.14 237.36,396.21 -32.59,25.93 -65.18,51.86 -97.78,77.79 -3.15,-5.57 -6.3,-11.15 -9.45,-16.72 -21.08,15.27 -42.17,30.53 -63.25,45.8 -35.14,-56.22 -70.28,-112.44 -95.72,-152.67 -25.44,-40.23 -41.2,-64.46 -56.95,-88.69 -6.06,-58.4 -12.12,-116.8 -16.96,-161.88 -4.85,-45.07 -8.48,-76.82 -14.18,-128.07 -5.69,-51.25 -13.45,-122.01 -21.2,-192.77 14.3,-34.9 28.6,-69.79 44.47,-104.81 15.87,-35.02 33.32,-70.16 47.38,-98.14 14.06,-27.99 24.72,-48.83 32.96,-64.13 8.24,-15.3 14.06,-25.05 19.9,-32.51 5.85,-7.45 11.72,-12.6 17.6,-17.75z"/>
    <path id="_1" class="fil1 str0" d="M1.4 443.29c46.04,73.67 92.09,147.34 138.13,221.01m24.17 -538.34c2.4,3.82 4.8,7.63 7.59,12.79 2.78,5.15 5.95,11.63 9.23,18.49 3.28,6.86 6.67,14.1 10.01,22.34 3.34,8.24 6.63,17.48 10.53,31.46 3.91,13.98 8.44,32.71 11.8,49.93 3.36,17.22 5.55,32.94 6.8,53.96 1.26,21.01 1.59,47.32 0.6,71.3 -0.99,23.98 -3.29,45.64 -7.49,67.22 -4.2,21.57 -10.29,43.07 -15.26,59.3 -4.96,16.23 -8.8,27.21 -12.63,38.18 -5.91,15.98 -11.82,31.96 -19.39,50.86 -7.56,18.9 -16.77,40.71 -25.98,62.52 79.12,132.07 158.24,264.14 237.36,396.21 -32.59,25.93 -65.18,51.86 -97.78,77.79 -3.15,-5.57 -6.3,-11.15 -9.45,-16.72 -21.08,15.27 -42.17,30.53 -63.25,45.8 -35.14,-56.22 -70.28,-112.44 -95.72,-152.67 -25.44,-40.23 -41.2,-64.46 -56.95,-88.69 -6.06,-58.4 -12.12,-116.8 -16.96,-161.88 -4.85,-45.07 -8.48,-76.82 -14.18,-128.07 -5.69,-51.25 -13.45,-122.01 -21.2,-192.77 14.3,-34.9 28.6,-69.79 44.47,-104.81 15.87,-35.02 33.32,-70.16 47.38,-98.14 14.06,-27.99 24.72,-48.83 32.96,-64.13 8.24,-15.3 14.06,-25.05 19.9,-32.51 5.85,-7.45 11.72,-12.6 17.6,-17.75z"/>
   </g>
  </g>
 </g>
</svg>
